<?xml version="1.0" encoding="utf-8" standalone="no"?>
<!DOCTYPE svg PUBLIC "-//W3C//DTD SVG 1.1//EN"
  "http://www.w3.org/Graphics/SVG/1.1/DTD/svg11.dtd">
<svg xmlns:xlink="http://www.w3.org/1999/xlink" width="432pt" height="432pt" viewBox="0 0 432 432" xmlns="http://www.w3.org/2000/svg" version="1.1">
 <metadata>
  <rdf:RDF xmlns:dc="http://purl.org/dc/elements/1.1/" xmlns:cc="http://creativecommons.org/ns#" xmlns:rdf="http://www.w3.org/1999/02/22-rdf-syntax-ns#">
   <cc:Work>
    <dc:type rdf:resource="http://purl.org/dc/dcmitype/StillImage"/>
    <dc:date>2023-05-15T17:32:50.973944</dc:date>
    <dc:format>image/svg+xml</dc:format>
    <dc:creator>
     <cc:Agent>
      <dc:title>Matplotlib v3.7.1, https://matplotlib.org/</dc:title>
     </cc:Agent>
    </dc:creator>
   </cc:Work>
  </rdf:RDF>
 </metadata>
 <defs>
  <style type="text/css">*{stroke-linejoin: round; stroke-linecap: butt}</style>
 </defs>
 <g id="figure_1">
  <g id="patch_1">
   <path d="M 0 432 
L 432 432 
L 432 0 
L 0 0 
L 0 432 
z
" style="fill: none"/>
  </g>
  <g id="axes_1">
   <g id="patch_2">
    <path d="M 54 384.48 
L 388.8 384.48 
L 388.8 51.84 
L 54 51.84 
L 54 384.48 
z
" style="fill: none"/>
   </g>
   <g id="PathCollection_1">
    <defs>
     <path id="C0_0_51e60a445d" d="M 0 2.236068 
C 0.593012 2.236068 1.161816 2.000462 1.581139 1.581139 
C 2.000462 1.161816 2.236068 0.593012 2.236068 -0 
C 2.236068 -0.593012 2.000462 -1.161816 1.581139 -1.581139 
C 1.161816 -2.000462 0.593012 -2.236068 0 -2.236068 
C -0.593012 -2.236068 -1.161816 -2.000462 -1.581139 -1.581139 
C -2.000462 -1.161816 -2.236068 -0.593012 -2.236068 0 
C -2.236068 0.593012 -2.000462 1.161816 -1.581139 1.581139 
C -1.161816 2.000462 -0.593012 2.236068 0 2.236068 
z
"/>
    </defs>
    <g clip-path="url(#pff1f05503d)">
     <use xlink:href="#C0_0_51e60a445d" x="167.086605" y="76.406031" style="fill: #562666; stroke: #562666"/>
    </g>
    <g clip-path="url(#pff1f05503d)">
     <use xlink:href="#C0_0_51e60a445d" x="332.100351" y="111.076963" style="fill: #ea936f; stroke: #ea936f"/>
    </g>
    <g clip-path="url(#pff1f05503d)">
     <use xlink:href="#C0_0_51e60a445d" x="187.081961" y="366.299144" style="fill: #b93e6a; stroke: #b93e6a"/>
    </g>
    <g clip-path="url(#pff1f05503d)">
     <use xlink:href="#C0_0_51e60a445d" x="311.215985" y="94.087131" style="fill: #eb9973; stroke: #eb9973"/>
    </g>
    <g clip-path="url(#pff1f05503d)">
     <use xlink:href="#C0_0_51e60a445d" x="271.671285" y="74.699243" style="fill: #eca57a; stroke: #eca57a"/>
    </g>
    <g clip-path="url(#pff1f05503d)">
     <use xlink:href="#C0_0_51e60a445d" x="260.806047" y="365.309127" style="fill: #cb4564; stroke: #cb4564"/>
    </g>
    <g clip-path="url(#pff1f05503d)">
     <use xlink:href="#C0_0_51e60a445d" x="359.017104" y="146.067287" style="fill: #e98768; stroke: #e98768"/>
    </g>
    <g clip-path="url(#pff1f05503d)">
     <use xlink:href="#C0_0_51e60a445d" x="69.218182" y="250.158765" style="fill: #8d3271; stroke: #8d3271"/>
    </g>
    <g clip-path="url(#pff1f05503d)">
     <use xlink:href="#C0_0_51e60a445d" x="101.650368" y="121.680549" style="fill: #692b6c; stroke: #692b6c"/>
    </g>
    <g clip-path="url(#pff1f05503d)">
     <use xlink:href="#C0_0_51e60a445d" x="106.159162" y="116.622786" style="fill: #682a6c; stroke: #682a6c"/>
    </g>
    <g clip-path="url(#pff1f05503d)">
     <use xlink:href="#C0_0_51e60a445d" x="112.021918" y="326.208152" style="fill: #a3386f; stroke: #a3386f"/>
    </g>
    <g clip-path="url(#pff1f05503d)">
     <use xlink:href="#C0_0_51e60a445d" x="80.126354" y="281.984314" style="fill: #953470; stroke: #953470"/>
    </g>
    <g clip-path="url(#pff1f05503d)">
     <use xlink:href="#C0_0_51e60a445d" x="199.873795" y="368.598925" style="fill: #bc3f69; stroke: #bc3f69"/>
    </g>
    <g clip-path="url(#pff1f05503d)">
     <use xlink:href="#C0_0_51e60a445d" x="80.122242" y="281.975654" style="fill: #953470; stroke: #953470"/>
    </g>
    <g clip-path="url(#pff1f05503d)">
     <use xlink:href="#C0_0_51e60a445d" x="72.198489" y="175.344316" style="fill: #792e6f; stroke: #792e6f"/>
    </g>
    <g clip-path="url(#pff1f05503d)">
     <use xlink:href="#C0_0_51e60a445d" x="270.41393" y="362.5805" style="fill: #cc4663; stroke: #cc4663"/>
    </g>
    <g clip-path="url(#pff1f05503d)">
     <use xlink:href="#C0_0_51e60a445d" x="197.324485" y="368.225744" style="fill: #bc3f69; stroke: #bc3f69"/>
    </g>
    <g clip-path="url(#pff1f05503d)">
     <use xlink:href="#C0_0_51e60a445d" x="202.678221" y="368.961295" style="fill: #bd3f69; stroke: #bd3f69"/>
    </g>
    <g clip-path="url(#pff1f05503d)">
     <use xlink:href="#C0_0_51e60a445d" x="75.739332" y="271.783763" style="fill: #933471; stroke: #933471"/>
    </g>
    <g clip-path="url(#pff1f05503d)">
     <use xlink:href="#C0_0_51e60a445d" x="373.581818" y="182.884536" style="fill: #e77c63; stroke: #e77c63"/>
    </g>
    <g clip-path="url(#pff1f05503d)">
     <use xlink:href="#C0_0_51e60a445d" x="123.940798" y="100.315577" style="fill: #62296a; stroke: #62296a"/>
    </g>
    <g clip-path="url(#pff1f05503d)">
     <use xlink:href="#C0_0_51e60a445d" x="83.934757" y="147.416503" style="fill: #722c6e; stroke: #722c6e"/>
    </g>
    <g clip-path="url(#pff1f05503d)">
     <use xlink:href="#C0_0_51e60a445d" x="371.94662" y="176.843242" style="fill: #e77e63; stroke: #e77e63"/>
    </g>
    <g clip-path="url(#pff1f05503d)">
     <use xlink:href="#C0_0_51e60a445d" x="142.786844" y="87.662153" style="fill: #5c2868; stroke: #5c2868"/>
    </g>
    <g clip-path="url(#pff1f05503d)">
     <use xlink:href="#C0_0_51e60a445d" x="229.77404" y="66.96" style="fill: #edb081; stroke: #edb081"/>
    </g>
    <g clip-path="url(#pff1f05503d)">
     <use xlink:href="#C0_0_51e60a445d" x="355.360962" y="296.998395" style="fill: #de5d5c; stroke: #de5d5c"/>
    </g>
    <g clip-path="url(#pff1f05503d)">
     <use xlink:href="#C0_0_51e60a445d" x="158.307559" y="79.901573" style="fill: #582766; stroke: #582766"/>
    </g>
    <g clip-path="url(#pff1f05503d)">
     <use xlink:href="#C0_0_51e60a445d" x="163.863778" y="77.619123" style="fill: #572766; stroke: #572766"/>
    </g>
    <g clip-path="url(#pff1f05503d)">
     <use xlink:href="#C0_0_51e60a445d" x="169.862749" y="75.424292" style="fill: #552665; stroke: #552665"/>
    </g>
    <g clip-path="url(#pff1f05503d)">
     <use xlink:href="#C0_0_51e60a445d" x="206.349463" y="369.36" style="fill: #be3f69; stroke: #be3f69"/>
    </g>
    <g clip-path="url(#pff1f05503d)">
     <use xlink:href="#C0_0_51e60a445d" x="352.623703" y="135.641903" style="fill: #e98a6a; stroke: #e98a6a"/>
    </g>
    <g clip-path="url(#pff1f05503d)">
     <use xlink:href="#C0_0_51e60a445d" x="358.554003" y="145.244499" style="fill: #e98768; stroke: #e98768"/>
    </g>
    <g clip-path="url(#pff1f05503d)">
     <use xlink:href="#C0_0_51e60a445d" x="182.241475" y="365.145092" style="fill: #b83e6b; stroke: #b83e6b"/>
    </g>
    <g clip-path="url(#pff1f05503d)">
     <use xlink:href="#C0_0_51e60a445d" x="72.042567" y="175.858971" style="fill: #792e6f; stroke: #792e6f"/>
    </g>
    <g clip-path="url(#pff1f05503d)">
     <use xlink:href="#C0_0_51e60a445d" x="87.72067" y="140.871116" style="fill: #702c6e; stroke: #702c6e"/>
    </g>
    <g clip-path="url(#pff1f05503d)">
     <use xlink:href="#C0_0_51e60a445d" x="103.128207" y="316.901293" style="fill: #a0376f; stroke: #a0376f"/>
    </g>
    <g clip-path="url(#pff1f05503d)">
     <use xlink:href="#C0_0_51e60a445d" x="130.44551" y="95.49194" style="fill: #602969; stroke: #602969"/>
    </g>
    <g clip-path="url(#pff1f05503d)">
     <use xlink:href="#C0_0_51e60a445d" x="344.168287" y="312.648688" style="fill: #dc585c; stroke: #dc585c"/>
    </g>
    <g clip-path="url(#pff1f05503d)">
     <use xlink:href="#C0_0_51e60a445d" x="212.194634" y="67.054713" style="fill: #4b2362; stroke: #4b2362"/>
    </g>
    <g clip-path="url(#pff1f05503d)">
     <use xlink:href="#C0_0_51e60a445d" x="239.510985" y="67.738602" style="fill: #edae7f; stroke: #edae7f"/>
    </g>
    <g clip-path="url(#pff1f05503d)">
     <use xlink:href="#C0_0_51e60a445d" x="111.528626" y="111.142622" style="fill: #652a6b; stroke: #652a6b"/>
    </g>
    <g clip-path="url(#pff1f05503d)">
     <use xlink:href="#C0_0_51e60a445d" x="339.475204" y="118.741386" style="fill: #ea906d; stroke: #ea906d"/>
    </g>
    <g clip-path="url(#pff1f05503d)">
     <use xlink:href="#C0_0_51e60a445d" x="365.545325" y="159.225902" style="fill: #e88366; stroke: #e88366"/>
    </g>
    <g clip-path="url(#pff1f05503d)">
     <use xlink:href="#C0_0_51e60a445d" x="97.394019" y="309.971044" style="fill: #9e3770; stroke: #9e3770"/>
    </g>
    <g clip-path="url(#pff1f05503d)">
     <use xlink:href="#C0_0_51e60a445d" x="128.786395" y="340.201018" style="fill: #a93a6e; stroke: #a93a6e"/>
    </g>
    <g clip-path="url(#pff1f05503d)">
     <use xlink:href="#C0_0_51e60a445d" x="256.848839" y="366.24697" style="fill: #ca4564; stroke: #ca4564"/>
    </g>
    <g clip-path="url(#pff1f05503d)">
     <use xlink:href="#C0_0_51e60a445d" x="317.682347" y="98.720599" style="fill: #eb9872; stroke: #eb9872"/>
    </g>
    <g clip-path="url(#pff1f05503d)">
     <use xlink:href="#C0_0_51e60a445d" x="339.593732" y="318.000359" style="fill: #db565d; stroke: #db565d"/>
    </g>
    <g clip-path="url(#pff1f05503d)">
     <use xlink:href="#C0_0_51e60a445d" x="263.755011" y="364.54052" style="fill: #cc4664; stroke: #cc4664"/>
    </g>
    <g clip-path="url(#pff1f05503d)">
     <use xlink:href="#C0_0_51e60a445d" x="342.223995" y="121.889407" style="fill: #ea8f6c; stroke: #ea8f6c"/>
    </g>
   </g>
   <g id="matplotlib.axis_1">
    <g id="xtick_1">
     <g id="line2d_1">
      <defs>
       <path id="mfe4f77d416" d="M 0 0 
L 0 3.5 
" style="stroke: #000000; stroke-width: 0.8"/>
      </defs>
      <g>
       <use xlink:href="#mfe4f77d416" x="65.766326" y="384.48" style="stroke: #000000; stroke-width: 0.8"/>
      </g>
     </g>
     <g id="text_1">
      <!-- 0 -->
      <g transform="translate(62.585076 399.078438) scale(0.1 -0.1)">
       <defs>
        <path id="DejaVuSans-30" d="M 2034 4250 
Q 1547 4250 1301 3770 
Q 1056 3291 1056 2328 
Q 1056 1369 1301 889 
Q 1547 409 2034 409 
Q 2525 409 2770 889 
Q 3016 1369 3016 2328 
Q 3016 3291 2770 3770 
Q 2525 4250 2034 4250 
z
M 2034 4750 
Q 2819 4750 3233 4129 
Q 3647 3509 3647 2328 
Q 3647 1150 3233 529 
Q 2819 -91 2034 -91 
Q 1250 -91 836 529 
Q 422 1150 422 2328 
Q 422 3509 836 4129 
Q 1250 4750 2034 4750 
z
" transform="scale(0.015625)"/>
       </defs>
       <use xlink:href="#DejaVuSans-30"/>
      </g>
     </g>
    </g>
    <g id="xtick_2">
     <g id="line2d_2">
      <g>
       <use xlink:href="#mfe4f77d416" x="377.930318" y="384.48" style="stroke: #000000; stroke-width: 0.8"/>
      </g>
     </g>
     <g id="text_2">
      <!-- 1 -->
      <g transform="translate(374.749068 399.078438) scale(0.1 -0.1)">
       <defs>
        <path id="DejaVuSans-31" d="M 794 531 
L 1825 531 
L 1825 4091 
L 703 3866 
L 703 4441 
L 1819 4666 
L 2450 4666 
L 2450 531 
L 3481 531 
L 3481 0 
L 794 0 
L 794 531 
z
" transform="scale(0.015625)"/>
       </defs>
       <use xlink:href="#DejaVuSans-31"/>
      </g>
     </g>
    </g>
    <g id="text_3">
     <!-- sin(2π ✕ input) -->
     <g transform="translate(183.915625 412.756563) scale(0.1 -0.1)">
      <defs>
       <path id="DejaVuSans-73" d="M 2834 3397 
L 2834 2853 
Q 2591 2978 2328 3040 
Q 2066 3103 1784 3103 
Q 1356 3103 1142 2972 
Q 928 2841 928 2578 
Q 928 2378 1081 2264 
Q 1234 2150 1697 2047 
L 1894 2003 
Q 2506 1872 2764 1633 
Q 3022 1394 3022 966 
Q 3022 478 2636 193 
Q 2250 -91 1575 -91 
Q 1294 -91 989 -36 
Q 684 19 347 128 
L 347 722 
Q 666 556 975 473 
Q 1284 391 1588 391 
Q 1994 391 2212 530 
Q 2431 669 2431 922 
Q 2431 1156 2273 1281 
Q 2116 1406 1581 1522 
L 1381 1569 
Q 847 1681 609 1914 
Q 372 2147 372 2553 
Q 372 3047 722 3315 
Q 1072 3584 1716 3584 
Q 2034 3584 2315 3537 
Q 2597 3491 2834 3397 
z
" transform="scale(0.015625)"/>
       <path id="DejaVuSans-69" d="M 603 3500 
L 1178 3500 
L 1178 0 
L 603 0 
L 603 3500 
z
M 603 4863 
L 1178 4863 
L 1178 4134 
L 603 4134 
L 603 4863 
z
" transform="scale(0.015625)"/>
       <path id="DejaVuSans-6e" d="M 3513 2113 
L 3513 0 
L 2938 0 
L 2938 2094 
Q 2938 2591 2744 2837 
Q 2550 3084 2163 3084 
Q 1697 3084 1428 2787 
Q 1159 2491 1159 1978 
L 1159 0 
L 581 0 
L 581 3500 
L 1159 3500 
L 1159 2956 
Q 1366 3272 1645 3428 
Q 1925 3584 2291 3584 
Q 2894 3584 3203 3211 
Q 3513 2838 3513 2113 
z
" transform="scale(0.015625)"/>
       <path id="DejaVuSans-28" d="M 1984 4856 
Q 1566 4138 1362 3434 
Q 1159 2731 1159 2009 
Q 1159 1288 1364 580 
Q 1569 -128 1984 -844 
L 1484 -844 
Q 1016 -109 783 600 
Q 550 1309 550 2009 
Q 550 2706 781 3412 
Q 1013 4119 1484 4856 
L 1984 4856 
z
" transform="scale(0.015625)"/>
       <path id="DejaVuSans-32" d="M 1228 531 
L 3431 531 
L 3431 0 
L 469 0 
L 469 531 
Q 828 903 1448 1529 
Q 2069 2156 2228 2338 
Q 2531 2678 2651 2914 
Q 2772 3150 2772 3378 
Q 2772 3750 2511 3984 
Q 2250 4219 1831 4219 
Q 1534 4219 1204 4116 
Q 875 4013 500 3803 
L 500 4441 
Q 881 4594 1212 4672 
Q 1544 4750 1819 4750 
Q 2544 4750 2975 4387 
Q 3406 4025 3406 3419 
Q 3406 3131 3298 2873 
Q 3191 2616 2906 2266 
Q 2828 2175 2409 1742 
Q 1991 1309 1228 531 
z
" transform="scale(0.015625)"/>
       <path id="DejaVuSans-3c0" d="M 231 3500 
L 3584 3500 
L 3584 2925 
L 3144 2925 
L 3144 775 
Q 3144 550 3220 451 
Q 3297 353 3469 353 
Q 3516 353 3584 361 
Q 3653 369 3675 372 
L 3675 -44 
Q 3566 -84 3450 -103 
Q 3334 -122 3219 -122 
Q 2844 -122 2700 83 
Q 2556 288 2556 838 
L 2556 2925 
L 1266 2925 
L 1266 0 
L 678 0 
L 678 2925 
L 231 2925 
L 231 3500 
z
" transform="scale(0.015625)"/>
       <path id="DejaVuSans-20" transform="scale(0.015625)"/>
       <path id="DejaVuSans-2715" d="M 3122 2331 
L 4550 903 
L 4106 463 
L 2681 1891 
L 1253 463 
L 809 903 
L 2238 2331 
L 809 3759 
L 1253 4200 
L 2681 2775 
L 4109 4203 
L 4553 3763 
L 3122 2331 
z
" transform="scale(0.015625)"/>
       <path id="DejaVuSans-70" d="M 1159 525 
L 1159 -1331 
L 581 -1331 
L 581 3500 
L 1159 3500 
L 1159 2969 
Q 1341 3281 1617 3432 
Q 1894 3584 2278 3584 
Q 2916 3584 3314 3078 
Q 3713 2572 3713 1747 
Q 3713 922 3314 415 
Q 2916 -91 2278 -91 
Q 1894 -91 1617 61 
Q 1341 213 1159 525 
z
M 3116 1747 
Q 3116 2381 2855 2742 
Q 2594 3103 2138 3103 
Q 1681 3103 1420 2742 
Q 1159 2381 1159 1747 
Q 1159 1113 1420 752 
Q 1681 391 2138 391 
Q 2594 391 2855 752 
Q 3116 1113 3116 1747 
z
" transform="scale(0.015625)"/>
       <path id="DejaVuSans-75" d="M 544 1381 
L 544 3500 
L 1119 3500 
L 1119 1403 
Q 1119 906 1312 657 
Q 1506 409 1894 409 
Q 2359 409 2629 706 
Q 2900 1003 2900 1516 
L 2900 3500 
L 3475 3500 
L 3475 0 
L 2900 0 
L 2900 538 
Q 2691 219 2414 64 
Q 2138 -91 1772 -91 
Q 1169 -91 856 284 
Q 544 659 544 1381 
z
M 1991 3584 
L 1991 3584 
z
" transform="scale(0.015625)"/>
       <path id="DejaVuSans-74" d="M 1172 4494 
L 1172 3500 
L 2356 3500 
L 2356 3053 
L 1172 3053 
L 1172 1153 
Q 1172 725 1289 603 
Q 1406 481 1766 481 
L 2356 481 
L 2356 0 
L 1766 0 
Q 1100 0 847 248 
Q 594 497 594 1153 
L 594 3053 
L 172 3053 
L 172 3500 
L 594 3500 
L 594 4494 
L 1172 4494 
z
" transform="scale(0.015625)"/>
       <path id="DejaVuSans-29" d="M 513 4856 
L 1013 4856 
Q 1481 4119 1714 3412 
Q 1947 2706 1947 2009 
Q 1947 1309 1714 600 
Q 1481 -109 1013 -844 
L 513 -844 
Q 928 -128 1133 580 
Q 1338 1288 1338 2009 
Q 1338 2731 1133 3434 
Q 928 4138 513 4856 
z
" transform="scale(0.015625)"/>
      </defs>
      <use xlink:href="#DejaVuSans-73"/>
      <use xlink:href="#DejaVuSans-69" x="52.099609"/>
      <use xlink:href="#DejaVuSans-6e" x="79.882812"/>
      <use xlink:href="#DejaVuSans-28" x="143.261719"/>
      <use xlink:href="#DejaVuSans-32" x="182.275391"/>
      <use xlink:href="#DejaVuSans-3c0" x="245.898438"/>
      <use xlink:href="#DejaVuSans-20" x="306.103516"/>
      <use xlink:href="#DejaVuSans-2715" x="337.890625"/>
      <use xlink:href="#DejaVuSans-20" x="421.679688"/>
      <use xlink:href="#DejaVuSans-69" x="453.466797"/>
      <use xlink:href="#DejaVuSans-6e" x="481.25"/>
      <use xlink:href="#DejaVuSans-70" x="544.628906"/>
      <use xlink:href="#DejaVuSans-75" x="608.105469"/>
      <use xlink:href="#DejaVuSans-74" x="671.484375"/>
      <use xlink:href="#DejaVuSans-29" x="710.693359"/>
     </g>
    </g>
   </g>
   <g id="matplotlib.axis_2">
    <g id="ytick_1">
     <g id="line2d_3">
      <defs>
       <path id="m0576d4a142" d="M 0 0 
L -3.5 0 
" style="stroke: #000000; stroke-width: 0.8"/>
      </defs>
      <g>
       <use xlink:href="#m0576d4a142" x="54" y="370.109628" style="stroke: #000000; stroke-width: 0.8"/>
      </g>
     </g>
     <g id="text_4">
      <!-- 0 -->
      <g transform="translate(40.6375 373.908847) scale(0.1 -0.1)">
       <use xlink:href="#DejaVuSans-30"/>
      </g>
     </g>
    </g>
    <g id="ytick_2">
     <g id="line2d_4">
      <g>
       <use xlink:href="#m0576d4a142" x="54" y="66.764328" style="stroke: #000000; stroke-width: 0.8"/>
      </g>
     </g>
     <g id="text_5">
      <!-- 1 -->
      <g transform="translate(40.6375 70.563547) scale(0.1 -0.1)">
       <use xlink:href="#DejaVuSans-31"/>
      </g>
     </g>
    </g>
    <g id="text_6">
     <!-- cos(2π ✕ input) -->
     <g transform="translate(34.557812 256.895156) rotate(-90) scale(0.1 -0.1)">
      <defs>
       <path id="DejaVuSans-63" d="M 3122 3366 
L 3122 2828 
Q 2878 2963 2633 3030 
Q 2388 3097 2138 3097 
Q 1578 3097 1268 2742 
Q 959 2388 959 1747 
Q 959 1106 1268 751 
Q 1578 397 2138 397 
Q 2388 397 2633 464 
Q 2878 531 3122 666 
L 3122 134 
Q 2881 22 2623 -34 
Q 2366 -91 2075 -91 
Q 1284 -91 818 406 
Q 353 903 353 1747 
Q 353 2603 823 3093 
Q 1294 3584 2113 3584 
Q 2378 3584 2631 3529 
Q 2884 3475 3122 3366 
z
" transform="scale(0.015625)"/>
       <path id="DejaVuSans-6f" d="M 1959 3097 
Q 1497 3097 1228 2736 
Q 959 2375 959 1747 
Q 959 1119 1226 758 
Q 1494 397 1959 397 
Q 2419 397 2687 759 
Q 2956 1122 2956 1747 
Q 2956 2369 2687 2733 
Q 2419 3097 1959 3097 
z
M 1959 3584 
Q 2709 3584 3137 3096 
Q 3566 2609 3566 1747 
Q 3566 888 3137 398 
Q 2709 -91 1959 -91 
Q 1206 -91 779 398 
Q 353 888 353 1747 
Q 353 2609 779 3096 
Q 1206 3584 1959 3584 
z
" transform="scale(0.015625)"/>
      </defs>
      <use xlink:href="#DejaVuSans-63"/>
      <use xlink:href="#DejaVuSans-6f" x="54.980469"/>
      <use xlink:href="#DejaVuSans-73" x="116.162109"/>
      <use xlink:href="#DejaVuSans-28" x="168.261719"/>
      <use xlink:href="#DejaVuSans-32" x="207.275391"/>
      <use xlink:href="#DejaVuSans-3c0" x="270.898438"/>
      <use xlink:href="#DejaVuSans-20" x="331.103516"/>
      <use xlink:href="#DejaVuSans-2715" x="362.890625"/>
      <use xlink:href="#DejaVuSans-20" x="446.679688"/>
      <use xlink:href="#DejaVuSans-69" x="478.466797"/>
      <use xlink:href="#DejaVuSans-6e" x="506.25"/>
      <use xlink:href="#DejaVuSans-70" x="569.628906"/>
      <use xlink:href="#DejaVuSans-75" x="633.105469"/>
      <use xlink:href="#DejaVuSans-74" x="696.484375"/>
      <use xlink:href="#DejaVuSans-29" x="735.693359"/>
     </g>
    </g>
   </g>
   <g id="patch_3">
    <path d="M 54 384.48 
L 54 51.84 
" style="fill: none; stroke: #000000; stroke-width: 0.8; stroke-linejoin: miter; stroke-linecap: square"/>
   </g>
   <g id="patch_4">
    <path d="M 388.8 384.48 
L 388.8 51.84 
" style="fill: none; stroke: #000000; stroke-width: 0.8; stroke-linejoin: miter; stroke-linecap: square"/>
   </g>
   <g id="patch_5">
    <path d="M 54 384.48 
L 388.8 384.48 
" style="fill: none; stroke: #000000; stroke-width: 0.8; stroke-linejoin: miter; stroke-linecap: square"/>
   </g>
   <g id="patch_6">
    <path d="M 54 51.84 
L 388.8 51.84 
" style="fill: none; stroke: #000000; stroke-width: 0.8; stroke-linejoin: miter; stroke-linecap: square"/>
   </g>
  </g>
 </g>
 <defs>
  <clipPath id="pff1f05503d">
   <rect x="54" y="51.84" width="334.8" height="332.64"/>
  </clipPath>
 </defs>
</svg>
