<?xml version="1.0" encoding="utf-8" standalone="no"?>
<!DOCTYPE svg PUBLIC "-//W3C//DTD SVG 1.1//EN"
  "http://www.w3.org/Graphics/SVG/1.1/DTD/svg11.dtd">
<svg xmlns:xlink="http://www.w3.org/1999/xlink" width="432pt" height="432pt" viewBox="0 0 432 432" xmlns="http://www.w3.org/2000/svg" version="1.1">
 <metadata>
  <rdf:RDF xmlns:dc="http://purl.org/dc/elements/1.1/" xmlns:cc="http://creativecommons.org/ns#" xmlns:rdf="http://www.w3.org/1999/02/22-rdf-syntax-ns#">
   <cc:Work>
    <dc:type rdf:resource="http://purl.org/dc/dcmitype/StillImage"/>
    <dc:date>2023-05-15T17:32:50.919565</dc:date>
    <dc:format>image/svg+xml</dc:format>
    <dc:creator>
     <cc:Agent>
      <dc:title>Matplotlib v3.7.1, https://matplotlib.org/</dc:title>
     </cc:Agent>
    </dc:creator>
   </cc:Work>
  </rdf:RDF>
 </metadata>
 <defs>
  <style type="text/css">*{stroke-linejoin: round; stroke-linecap: butt}</style>
 </defs>
 <g id="figure_1">
  <g id="patch_1">
   <path d="M 0 432 
L 432 432 
L 432 0 
L 0 0 
L 0 432 
z
" style="fill: none"/>
  </g>
  <g id="axes_1">
   <g id="patch_2">
    <path d="M 54 384.48 
L 388.8 384.48 
L 388.8 51.84 
L 54 51.84 
L 54 384.48 
z
" style="fill: none"/>
   </g>
   <g id="PathCollection_1">
    <defs>
     <path id="me1b4c44796" d="M 0 2.236068 
C 0.593012 2.236068 1.161816 2.000462 1.581139 1.581139 
C 2.000462 1.161816 2.236068 0.593012 2.236068 0 
C 2.236068 -0.593012 2.000462 -1.161816 1.581139 -1.581139 
C 1.161816 -2.000462 0.593012 -2.236068 0 -2.236068 
C -0.593012 -2.236068 -1.161816 -2.000462 -1.581139 -1.581139 
C -2.000462 -1.161816 -2.236068 -0.593012 -2.236068 0 
C -2.236068 0.593012 -2.000462 1.161816 -1.581139 1.581139 
C -1.161816 2.000462 -0.593012 2.236068 0 2.236068 
z
" style="stroke: #000000"/>
    </defs>
    <g clip-path="url(#pc6d6a59fad)">
     <use xlink:href="#me1b4c44796" x="205.140767" y="175.872426" style="stroke: #000000"/>
     <use xlink:href="#me1b4c44796" x="160.293715" y="233.676717" style="stroke: #000000"/>
     <use xlink:href="#me1b4c44796" x="287.532723" y="97.837763" style="stroke: #000000"/>
     <use xlink:href="#me1b4c44796" x="101.431643" y="319.799839" style="stroke: #000000"/>
     <use xlink:href="#me1b4c44796" x="234.315539" y="143.527033" style="stroke: #000000"/>
     <use xlink:href="#me1b4c44796" x="200.716" y="181.1715" style="stroke: #000000"/>
     <use xlink:href="#me1b4c44796" x="97.10239" y="326.41035" style="stroke: #000000"/>
     <use xlink:href="#me1b4c44796" x="70.085985" y="368.018515" style="stroke: #000000"/>
     <use xlink:href="#me1b4c44796" x="84.527118" y="345.721747" style="stroke: #000000"/>
     <use xlink:href="#me1b4c44796" x="347.562239" y="70.304348" style="stroke: #000000"/>
     <use xlink:href="#me1b4c44796" x="97.318177" y="326.080323" style="stroke: #000000"/>
     <use xlink:href="#me1b4c44796" x="269.179703" y="111.486441" style="stroke: #000000"/>
     <use xlink:href="#me1b4c44796" x="144.608838" y="255.736418" style="stroke: #000000"/>
     <use xlink:href="#me1b4c44796" x="181.258232" y="205.57752" style="stroke: #000000"/>
     <use xlink:href="#me1b4c44796" x="251.331302" y="126.929714" style="stroke: #000000"/>
     <use xlink:href="#me1b4c44796" x="99.976213" y="322.019608" style="stroke: #000000"/>
     <use xlink:href="#me1b4c44796" x="108.066577" y="309.717549" style="stroke: #000000"/>
     <use xlink:href="#me1b4c44796" x="146.85536" y="252.528609" style="stroke: #000000"/>
     <use xlink:href="#me1b4c44796" x="339.290055" y="72.47567" style="stroke: #000000"/>
     <use xlink:href="#me1b4c44796" x="75.690289" y="359.357435" style="stroke: #000000"/>
     <use xlink:href="#me1b4c44796" x="230.939687" y="147.026534" style="stroke: #000000"/>
     <use xlink:href="#me1b4c44796" x="109.522292" y="307.514351" style="stroke: #000000"/>
     <use xlink:href="#me1b4c44796" x="110.962795" y="305.33758" style="stroke: #000000"/>
     <use xlink:href="#me1b4c44796" x="324.428168" y="77.70214" style="stroke: #000000"/>
     <use xlink:href="#me1b4c44796" x="207.367564" y="173.242837" style="stroke: #000000"/>
     <use xlink:href="#me1b4c44796" x="106.408238" y="312.231474" style="stroke: #000000"/>
     <use xlink:href="#me1b4c44796" x="137.025321" y="266.673339" style="stroke: #000000"/>
     <use xlink:href="#me1b4c44796" x="240.917791" y="136.877777" style="stroke: #000000"/>
     <use xlink:href="#me1b4c44796" x="209.046535" y="171.276922" style="stroke: #000000"/>
     <use xlink:href="#me1b4c44796" x="267.944017" y="112.488081" style="stroke: #000000"/>
     <use xlink:href="#me1b4c44796" x="73.353673" y="362.967832" style="stroke: #000000"/>
     <use xlink:href="#me1b4c44796" x="79.003417" y="354.240998" style="stroke: #000000"/>
     <use xlink:href="#me1b4c44796" x="373.581818" y="66.96" style="stroke: #000000"/>
     <use xlink:href="#me1b4c44796" x="69.286085" y="369.255031" style="stroke: #000000"/>
     <use xlink:href="#me1b4c44796" x="311.575985" y="83.575028" style="stroke: #000000"/>
     <use xlink:href="#me1b4c44796" x="292.794687" y="94.358913" style="stroke: #000000"/>
     <use xlink:href="#me1b4c44796" x="161.916742" y="231.441486" style="stroke: #000000"/>
     <use xlink:href="#me1b4c44796" x="114.697196" y="299.711056" style="stroke: #000000"/>
     <use xlink:href="#me1b4c44796" x="162.775879" y="230.26212" style="stroke: #000000"/>
     <use xlink:href="#me1b4c44796" x="196.787865" y="185.956441" style="stroke: #000000"/>
     <use xlink:href="#me1b4c44796" x="173.966941" y="215.153122" style="stroke: #000000"/>
     <use xlink:href="#me1b4c44796" x="153.431193" y="243.229231" style="stroke: #000000"/>
     <use xlink:href="#me1b4c44796" x="144.512057" y="255.874951" style="stroke: #000000"/>
     <use xlink:href="#me1b4c44796" x="151.167359" y="246.41511" style="stroke: #000000"/>
     <use xlink:href="#me1b4c44796" x="208.625784" y="171.768219" style="stroke: #000000"/>
     <use xlink:href="#me1b4c44796" x="187.512701" y="197.544215" style="stroke: #000000"/>
     <use xlink:href="#me1b4c44796" x="232.7383" y="145.153756" style="stroke: #000000"/>
     <use xlink:href="#me1b4c44796" x="77.911524" y="355.926763" style="stroke: #000000"/>
     <use xlink:href="#me1b4c44796" x="121.140698" y="290.064096" style="stroke: #000000"/>
     <use xlink:href="#me1b4c44796" x="285.581381" y="99.177761" style="stroke: #000000"/>
     <use xlink:href="#me1b4c44796" x="193.188228" y="190.406114" style="stroke: #000000"/>
     <use xlink:href="#me1b4c44796" x="280.568268" y="102.742814" style="stroke: #000000"/>
     <use xlink:href="#me1b4c44796" x="227.687186" y="150.46065" style="stroke: #000000"/>
     <use xlink:href="#me1b4c44796" x="365.941218" y="67.390933" style="stroke: #000000"/>
     <use xlink:href="#me1b4c44796" x="273.138971" y="108.346362" style="stroke: #000000"/>
     <use xlink:href="#me1b4c44796" x="71.740977" y="365.460316" style="stroke: #000000"/>
     <use xlink:href="#me1b4c44796" x="360.893439" y="67.927432" style="stroke: #000000"/>
     <use xlink:href="#me1b4c44796" x="85.191427" y="344.698361" style="stroke: #000000"/>
     <use xlink:href="#me1b4c44796" x="260.84595" y="118.438409" style="stroke: #000000"/>
     <use xlink:href="#me1b4c44796" x="257.204996" y="121.618928" style="stroke: #000000"/>
     <use xlink:href="#me1b4c44796" x="179.603384" y="207.731348" style="stroke: #000000"/>
     <use xlink:href="#me1b4c44796" x="261.792409" y="117.625787" style="stroke: #000000"/>
     <use xlink:href="#me1b4c44796" x="255.315869" y="123.302943" style="stroke: #000000"/>
     <use xlink:href="#me1b4c44796" x="182.825522" y="203.548447" style="stroke: #000000"/>
     <use xlink:href="#me1b4c44796" x="191.448188" y="192.578844" style="stroke: #000000"/>
     <use xlink:href="#me1b4c44796" x="189.263632" y="195.326383" style="stroke: #000000"/>
     <use xlink:href="#me1b4c44796" x="345.825543" y="70.716138" style="stroke: #000000"/>
     <use xlink:href="#me1b4c44796" x="276.000691" y="106.143028" style="stroke: #000000"/>
     <use xlink:href="#me1b4c44796" x="125.412508" y="283.715573" style="stroke: #000000"/>
     <use xlink:href="#me1b4c44796" x="337.033888" y="73.159856" style="stroke: #000000"/>
     <use xlink:href="#me1b4c44796" x="232.823773" y="145.065228" style="stroke: #000000"/>
     <use xlink:href="#me1b4c44796" x="298.057782" y="91.077671" style="stroke: #000000"/>
     <use xlink:href="#me1b4c44796" x="222.215851" y="156.373189" style="stroke: #000000"/>
     <use xlink:href="#me1b4c44796" x="328.403172" y="76.138598" style="stroke: #000000"/>
     <use xlink:href="#me1b4c44796" x="78.095744" y="355.642314" style="stroke: #000000"/>
     <use xlink:href="#me1b4c44796" x="69.218182" y="369.36" style="stroke: #000000"/>
     <use xlink:href="#me1b4c44796" x="273.914407" y="107.743808" style="stroke: #000000"/>
     <use xlink:href="#me1b4c44796" x="174.009675" y="215.096362" style="stroke: #000000"/>
     <use xlink:href="#me1b4c44796" x="170.632007" y="219.605037" style="stroke: #000000"/>
     <use xlink:href="#me1b4c44796" x="84.874978" y="345.185822" style="stroke: #000000"/>
     <use xlink:href="#me1b4c44796" x="234.181768" y="143.664434" style="stroke: #000000"/>
     <use xlink:href="#me1b4c44796" x="71.150187" y="366.373498" style="stroke: #000000"/>
     <use xlink:href="#me1b4c44796" x="200.942716" y="180.897628" style="stroke: #000000"/>
     <use xlink:href="#me1b4c44796" x="186.992684" y="198.205554" style="stroke: #000000"/>
     <use xlink:href="#me1b4c44796" x="135.132453" y="269.428005" style="stroke: #000000"/>
     <use xlink:href="#me1b4c44796" x="97.177903" y="326.294855" style="stroke: #000000"/>
     <use xlink:href="#me1b4c44796" x="195.450558" y="187.602386" style="stroke: #000000"/>
     <use xlink:href="#me1b4c44796" x="325.4173" y="77.301832" style="stroke: #000000"/>
     <use xlink:href="#me1b4c44796" x="218.480643" y="160.505361" style="stroke: #000000"/>
     <use xlink:href="#me1b4c44796" x="192.704831" y="191.008305" style="stroke: #000000"/>
     <use xlink:href="#me1b4c44796" x="80.946514" y="351.242337" style="stroke: #000000"/>
     <use xlink:href="#me1b4c44796" x="285.024642" y="99.564996" style="stroke: #000000"/>
     <use xlink:href="#me1b4c44796" x="269.306719" y="111.384064" style="stroke: #000000"/>
     <use xlink:href="#me1b4c44796" x="142.061618" y="259.391734" style="stroke: #000000"/>
     <use xlink:href="#me1b4c44796" x="188.307674" y="196.53554" style="stroke: #000000"/>
     <use xlink:href="#me1b4c44796" x="146.246513" y="253.396474" style="stroke: #000000"/>
     <use xlink:href="#me1b4c44796" x="210.176121" y="169.96247" style="stroke: #000000"/>
     <use xlink:href="#me1b4c44796" x="340.403685" y="72.152458" style="stroke: #000000"/>
     <use xlink:href="#me1b4c44796" x="177.439044" y="210.565712" style="stroke: #000000"/>
     <use xlink:href="#me1b4c44796" x="361.439914" y="67.859691" style="stroke: #000000"/>
    </g>
   </g>
   <g id="matplotlib.axis_1">
    <g id="xtick_1">
     <g id="line2d_1">
      <defs>
       <path id="m0110d05b38" d="M 0 0 
L 0 3.5 
" style="stroke: #000000; stroke-width: 0.8"/>
      </defs>
      <g>
       <use xlink:href="#m0110d05b38" x="68.541151" y="384.48" style="stroke: #000000; stroke-width: 0.8"/>
      </g>
     </g>
     <g id="text_1">
      <!-- 0.0 -->
      <g transform="translate(60.589588 399.078438) scale(0.1 -0.1)">
       <defs>
        <path id="DejaVuSans-30" d="M 2034 4250 
Q 1547 4250 1301 3770 
Q 1056 3291 1056 2328 
Q 1056 1369 1301 889 
Q 1547 409 2034 409 
Q 2525 409 2770 889 
Q 3016 1369 3016 2328 
Q 3016 3291 2770 3770 
Q 2525 4250 2034 4250 
z
M 2034 4750 
Q 2819 4750 3233 4129 
Q 3647 3509 3647 2328 
Q 3647 1150 3233 529 
Q 2819 -91 2034 -91 
Q 1250 -91 836 529 
Q 422 1150 422 2328 
Q 422 3509 836 4129 
Q 1250 4750 2034 4750 
z
" transform="scale(0.015625)"/>
        <path id="DejaVuSans-2e" d="M 684 794 
L 1344 794 
L 1344 0 
L 684 0 
L 684 794 
z
" transform="scale(0.015625)"/>
       </defs>
       <use xlink:href="#DejaVuSans-30"/>
       <use xlink:href="#DejaVuSans-2e" x="63.623047"/>
       <use xlink:href="#DejaVuSans-30" x="95.410156"/>
      </g>
     </g>
    </g>
    <g id="xtick_2">
     <g id="line2d_2">
      <g>
       <use xlink:href="#m0110d05b38" x="376.92639" y="384.48" style="stroke: #000000; stroke-width: 0.8"/>
      </g>
     </g>
     <g id="text_2">
      <!-- 0.5 -->
      <g transform="translate(368.974828 399.078438) scale(0.1 -0.1)">
       <defs>
        <path id="DejaVuSans-35" d="M 691 4666 
L 3169 4666 
L 3169 4134 
L 1269 4134 
L 1269 2991 
Q 1406 3038 1543 3061 
Q 1681 3084 1819 3084 
Q 2600 3084 3056 2656 
Q 3513 2228 3513 1497 
Q 3513 744 3044 326 
Q 2575 -91 1722 -91 
Q 1428 -91 1123 -41 
Q 819 9 494 109 
L 494 744 
Q 775 591 1075 516 
Q 1375 441 1709 441 
Q 2250 441 2565 725 
Q 2881 1009 2881 1497 
Q 2881 1984 2565 2268 
Q 2250 2553 1709 2553 
Q 1456 2553 1204 2497 
Q 953 2441 691 2322 
L 691 4666 
z
" transform="scale(0.015625)"/>
       </defs>
       <use xlink:href="#DejaVuSans-30"/>
       <use xlink:href="#DejaVuSans-2e" x="63.623047"/>
       <use xlink:href="#DejaVuSans-35" x="95.410156"/>
      </g>
     </g>
    </g>
    <g id="text_3">
     <!-- min distance in 1D -->
     <g transform="translate(174.428906 412.756563) scale(0.1 -0.1)">
      <defs>
       <path id="DejaVuSans-6d" d="M 3328 2828 
Q 3544 3216 3844 3400 
Q 4144 3584 4550 3584 
Q 5097 3584 5394 3201 
Q 5691 2819 5691 2113 
L 5691 0 
L 5113 0 
L 5113 2094 
Q 5113 2597 4934 2840 
Q 4756 3084 4391 3084 
Q 3944 3084 3684 2787 
Q 3425 2491 3425 1978 
L 3425 0 
L 2847 0 
L 2847 2094 
Q 2847 2600 2669 2842 
Q 2491 3084 2119 3084 
Q 1678 3084 1418 2786 
Q 1159 2488 1159 1978 
L 1159 0 
L 581 0 
L 581 3500 
L 1159 3500 
L 1159 2956 
Q 1356 3278 1631 3431 
Q 1906 3584 2284 3584 
Q 2666 3584 2933 3390 
Q 3200 3197 3328 2828 
z
" transform="scale(0.015625)"/>
       <path id="DejaVuSans-69" d="M 603 3500 
L 1178 3500 
L 1178 0 
L 603 0 
L 603 3500 
z
M 603 4863 
L 1178 4863 
L 1178 4134 
L 603 4134 
L 603 4863 
z
" transform="scale(0.015625)"/>
       <path id="DejaVuSans-6e" d="M 3513 2113 
L 3513 0 
L 2938 0 
L 2938 2094 
Q 2938 2591 2744 2837 
Q 2550 3084 2163 3084 
Q 1697 3084 1428 2787 
Q 1159 2491 1159 1978 
L 1159 0 
L 581 0 
L 581 3500 
L 1159 3500 
L 1159 2956 
Q 1366 3272 1645 3428 
Q 1925 3584 2291 3584 
Q 2894 3584 3203 3211 
Q 3513 2838 3513 2113 
z
" transform="scale(0.015625)"/>
       <path id="DejaVuSans-20" transform="scale(0.015625)"/>
       <path id="DejaVuSans-64" d="M 2906 2969 
L 2906 4863 
L 3481 4863 
L 3481 0 
L 2906 0 
L 2906 525 
Q 2725 213 2448 61 
Q 2172 -91 1784 -91 
Q 1150 -91 751 415 
Q 353 922 353 1747 
Q 353 2572 751 3078 
Q 1150 3584 1784 3584 
Q 2172 3584 2448 3432 
Q 2725 3281 2906 2969 
z
M 947 1747 
Q 947 1113 1208 752 
Q 1469 391 1925 391 
Q 2381 391 2643 752 
Q 2906 1113 2906 1747 
Q 2906 2381 2643 2742 
Q 2381 3103 1925 3103 
Q 1469 3103 1208 2742 
Q 947 2381 947 1747 
z
" transform="scale(0.015625)"/>
       <path id="DejaVuSans-73" d="M 2834 3397 
L 2834 2853 
Q 2591 2978 2328 3040 
Q 2066 3103 1784 3103 
Q 1356 3103 1142 2972 
Q 928 2841 928 2578 
Q 928 2378 1081 2264 
Q 1234 2150 1697 2047 
L 1894 2003 
Q 2506 1872 2764 1633 
Q 3022 1394 3022 966 
Q 3022 478 2636 193 
Q 2250 -91 1575 -91 
Q 1294 -91 989 -36 
Q 684 19 347 128 
L 347 722 
Q 666 556 975 473 
Q 1284 391 1588 391 
Q 1994 391 2212 530 
Q 2431 669 2431 922 
Q 2431 1156 2273 1281 
Q 2116 1406 1581 1522 
L 1381 1569 
Q 847 1681 609 1914 
Q 372 2147 372 2553 
Q 372 3047 722 3315 
Q 1072 3584 1716 3584 
Q 2034 3584 2315 3537 
Q 2597 3491 2834 3397 
z
" transform="scale(0.015625)"/>
       <path id="DejaVuSans-74" d="M 1172 4494 
L 1172 3500 
L 2356 3500 
L 2356 3053 
L 1172 3053 
L 1172 1153 
Q 1172 725 1289 603 
Q 1406 481 1766 481 
L 2356 481 
L 2356 0 
L 1766 0 
Q 1100 0 847 248 
Q 594 497 594 1153 
L 594 3053 
L 172 3053 
L 172 3500 
L 594 3500 
L 594 4494 
L 1172 4494 
z
" transform="scale(0.015625)"/>
       <path id="DejaVuSans-61" d="M 2194 1759 
Q 1497 1759 1228 1600 
Q 959 1441 959 1056 
Q 959 750 1161 570 
Q 1363 391 1709 391 
Q 2188 391 2477 730 
Q 2766 1069 2766 1631 
L 2766 1759 
L 2194 1759 
z
M 3341 1997 
L 3341 0 
L 2766 0 
L 2766 531 
Q 2569 213 2275 61 
Q 1981 -91 1556 -91 
Q 1019 -91 701 211 
Q 384 513 384 1019 
Q 384 1609 779 1909 
Q 1175 2209 1959 2209 
L 2766 2209 
L 2766 2266 
Q 2766 2663 2505 2880 
Q 2244 3097 1772 3097 
Q 1472 3097 1187 3025 
Q 903 2953 641 2809 
L 641 3341 
Q 956 3463 1253 3523 
Q 1550 3584 1831 3584 
Q 2591 3584 2966 3190 
Q 3341 2797 3341 1997 
z
" transform="scale(0.015625)"/>
       <path id="DejaVuSans-63" d="M 3122 3366 
L 3122 2828 
Q 2878 2963 2633 3030 
Q 2388 3097 2138 3097 
Q 1578 3097 1268 2742 
Q 959 2388 959 1747 
Q 959 1106 1268 751 
Q 1578 397 2138 397 
Q 2388 397 2633 464 
Q 2878 531 3122 666 
L 3122 134 
Q 2881 22 2623 -34 
Q 2366 -91 2075 -91 
Q 1284 -91 818 406 
Q 353 903 353 1747 
Q 353 2603 823 3093 
Q 1294 3584 2113 3584 
Q 2378 3584 2631 3529 
Q 2884 3475 3122 3366 
z
" transform="scale(0.015625)"/>
       <path id="DejaVuSans-65" d="M 3597 1894 
L 3597 1613 
L 953 1613 
Q 991 1019 1311 708 
Q 1631 397 2203 397 
Q 2534 397 2845 478 
Q 3156 559 3463 722 
L 3463 178 
Q 3153 47 2828 -22 
Q 2503 -91 2169 -91 
Q 1331 -91 842 396 
Q 353 884 353 1716 
Q 353 2575 817 3079 
Q 1281 3584 2069 3584 
Q 2775 3584 3186 3129 
Q 3597 2675 3597 1894 
z
M 3022 2063 
Q 3016 2534 2758 2815 
Q 2500 3097 2075 3097 
Q 1594 3097 1305 2825 
Q 1016 2553 972 2059 
L 3022 2063 
z
" transform="scale(0.015625)"/>
       <path id="DejaVuSans-31" d="M 794 531 
L 1825 531 
L 1825 4091 
L 703 3866 
L 703 4441 
L 1819 4666 
L 2450 4666 
L 2450 531 
L 3481 531 
L 3481 0 
L 794 0 
L 794 531 
z
" transform="scale(0.015625)"/>
       <path id="DejaVuSans-44" d="M 1259 4147 
L 1259 519 
L 2022 519 
Q 2988 519 3436 956 
Q 3884 1394 3884 2338 
Q 3884 3275 3436 3711 
Q 2988 4147 2022 4147 
L 1259 4147 
z
M 628 4666 
L 1925 4666 
Q 3281 4666 3915 4102 
Q 4550 3538 4550 2338 
Q 4550 1131 3912 565 
Q 3275 0 1925 0 
L 628 0 
L 628 4666 
z
" transform="scale(0.015625)"/>
      </defs>
      <use xlink:href="#DejaVuSans-6d"/>
      <use xlink:href="#DejaVuSans-69" x="97.412109"/>
      <use xlink:href="#DejaVuSans-6e" x="125.195312"/>
      <use xlink:href="#DejaVuSans-20" x="188.574219"/>
      <use xlink:href="#DejaVuSans-64" x="220.361328"/>
      <use xlink:href="#DejaVuSans-69" x="283.837891"/>
      <use xlink:href="#DejaVuSans-73" x="311.621094"/>
      <use xlink:href="#DejaVuSans-74" x="363.720703"/>
      <use xlink:href="#DejaVuSans-61" x="402.929688"/>
      <use xlink:href="#DejaVuSans-6e" x="464.208984"/>
      <use xlink:href="#DejaVuSans-63" x="527.587891"/>
      <use xlink:href="#DejaVuSans-65" x="582.568359"/>
      <use xlink:href="#DejaVuSans-20" x="644.091797"/>
      <use xlink:href="#DejaVuSans-69" x="675.878906"/>
      <use xlink:href="#DejaVuSans-6e" x="703.662109"/>
      <use xlink:href="#DejaVuSans-20" x="767.041016"/>
      <use xlink:href="#DejaVuSans-31" x="798.828125"/>
      <use xlink:href="#DejaVuSans-44" x="862.451172"/>
     </g>
    </g>
   </g>
   <g id="matplotlib.axis_2">
    <g id="ytick_1">
     <g id="line2d_3">
      <defs>
       <path id="m5d5b04f586" d="M 0 0 
L -3.5 0 
" style="stroke: #000000; stroke-width: 0.8"/>
      </defs>
      <g>
       <use xlink:href="#m5d5b04f586" x="54" y="370.406597" style="stroke: #000000; stroke-width: 0.8"/>
      </g>
     </g>
     <g id="text_4">
      <!-- 0 -->
      <g transform="translate(40.6375 374.205815) scale(0.1 -0.1)">
       <use xlink:href="#DejaVuSans-30"/>
      </g>
     </g>
    </g>
    <g id="ytick_2">
     <g id="line2d_4">
      <g>
       <use xlink:href="#m5d5b04f586" x="54" y="66.915961" style="stroke: #000000; stroke-width: 0.8"/>
      </g>
     </g>
     <g id="text_5">
      <!-- 1 -->
      <g transform="translate(40.6375 70.71518) scale(0.1 -0.1)">
       <use xlink:href="#DejaVuSans-31"/>
      </g>
     </g>
    </g>
    <g id="text_6">
     <!-- distance on circle -->
     <g transform="translate(34.557812 262.049062) rotate(-90) scale(0.1 -0.1)">
      <defs>
       <path id="DejaVuSans-6f" d="M 1959 3097 
Q 1497 3097 1228 2736 
Q 959 2375 959 1747 
Q 959 1119 1226 758 
Q 1494 397 1959 397 
Q 2419 397 2687 759 
Q 2956 1122 2956 1747 
Q 2956 2369 2687 2733 
Q 2419 3097 1959 3097 
z
M 1959 3584 
Q 2709 3584 3137 3096 
Q 3566 2609 3566 1747 
Q 3566 888 3137 398 
Q 2709 -91 1959 -91 
Q 1206 -91 779 398 
Q 353 888 353 1747 
Q 353 2609 779 3096 
Q 1206 3584 1959 3584 
z
" transform="scale(0.015625)"/>
       <path id="DejaVuSans-72" d="M 2631 2963 
Q 2534 3019 2420 3045 
Q 2306 3072 2169 3072 
Q 1681 3072 1420 2755 
Q 1159 2438 1159 1844 
L 1159 0 
L 581 0 
L 581 3500 
L 1159 3500 
L 1159 2956 
Q 1341 3275 1631 3429 
Q 1922 3584 2338 3584 
Q 2397 3584 2469 3576 
Q 2541 3569 2628 3553 
L 2631 2963 
z
" transform="scale(0.015625)"/>
       <path id="DejaVuSans-6c" d="M 603 4863 
L 1178 4863 
L 1178 0 
L 603 0 
L 603 4863 
z
" transform="scale(0.015625)"/>
      </defs>
      <use xlink:href="#DejaVuSans-64"/>
      <use xlink:href="#DejaVuSans-69" x="63.476562"/>
      <use xlink:href="#DejaVuSans-73" x="91.259766"/>
      <use xlink:href="#DejaVuSans-74" x="143.359375"/>
      <use xlink:href="#DejaVuSans-61" x="182.568359"/>
      <use xlink:href="#DejaVuSans-6e" x="243.847656"/>
      <use xlink:href="#DejaVuSans-63" x="307.226562"/>
      <use xlink:href="#DejaVuSans-65" x="362.207031"/>
      <use xlink:href="#DejaVuSans-20" x="423.730469"/>
      <use xlink:href="#DejaVuSans-6f" x="455.517578"/>
      <use xlink:href="#DejaVuSans-6e" x="516.699219"/>
      <use xlink:href="#DejaVuSans-20" x="580.078125"/>
      <use xlink:href="#DejaVuSans-63" x="611.865234"/>
      <use xlink:href="#DejaVuSans-69" x="666.845703"/>
      <use xlink:href="#DejaVuSans-72" x="694.628906"/>
      <use xlink:href="#DejaVuSans-63" x="733.492188"/>
      <use xlink:href="#DejaVuSans-6c" x="788.472656"/>
      <use xlink:href="#DejaVuSans-65" x="816.255859"/>
     </g>
    </g>
   </g>
   <g id="patch_3">
    <path d="M 54 384.48 
L 54 51.84 
" style="fill: none; stroke: #000000; stroke-width: 0.8; stroke-linejoin: miter; stroke-linecap: square"/>
   </g>
   <g id="patch_4">
    <path d="M 388.8 384.48 
L 388.8 51.84 
" style="fill: none; stroke: #000000; stroke-width: 0.8; stroke-linejoin: miter; stroke-linecap: square"/>
   </g>
   <g id="patch_5">
    <path d="M 54 384.48 
L 388.8 384.48 
" style="fill: none; stroke: #000000; stroke-width: 0.8; stroke-linejoin: miter; stroke-linecap: square"/>
   </g>
   <g id="patch_6">
    <path d="M 54 51.84 
L 388.8 51.84 
" style="fill: none; stroke: #000000; stroke-width: 0.8; stroke-linejoin: miter; stroke-linecap: square"/>
   </g>
  </g>
 </g>
 <defs>
  <clipPath id="pc6d6a59fad">
   <rect x="54" y="51.84" width="334.8" height="332.64"/>
  </clipPath>
 </defs>
</svg>
