<?xml version="1.0" encoding="utf-8" standalone="no"?>
<!DOCTYPE svg PUBLIC "-//W3C//DTD SVG 1.1//EN"
  "http://www.w3.org/Graphics/SVG/1.1/DTD/svg11.dtd">
<svg xmlns:xlink="http://www.w3.org/1999/xlink" width="432pt" height="432pt" viewBox="0 0 432 432" xmlns="http://www.w3.org/2000/svg" version="1.1">
 <metadata>
  <rdf:RDF xmlns:dc="http://purl.org/dc/elements/1.1/" xmlns:cc="http://creativecommons.org/ns#" xmlns:rdf="http://www.w3.org/1999/02/22-rdf-syntax-ns#">
   <cc:Work>
    <dc:type rdf:resource="http://purl.org/dc/dcmitype/StillImage"/>
    <dc:date>2023-05-15T17:32:50.950286</dc:date>
    <dc:format>image/svg+xml</dc:format>
    <dc:creator>
     <cc:Agent>
      <dc:title>Matplotlib v3.7.1, https://matplotlib.org/</dc:title>
     </cc:Agent>
    </dc:creator>
   </cc:Work>
  </rdf:RDF>
 </metadata>
 <defs>
  <style type="text/css">*{stroke-linejoin: round; stroke-linecap: butt}</style>
 </defs>
 <g id="figure_1">
  <g id="patch_1">
   <path d="M 0 432 
L 432 432 
L 432 0 
L 0 0 
L 0 432 
z
" style="fill: none"/>
  </g>
  <g id="axes_1">
   <g id="patch_2">
    <path d="M 54 384.48 
L 388.8 384.48 
L 388.8 51.84 
L 54 51.84 
L 54 384.48 
z
" style="fill: none"/>
   </g>
   <g id="PathCollection_1">
    <defs>
     <path id="C0_0_9b471d068f" d="M 0 2.236068 
C 0.593012 2.236068 1.161816 2.000462 1.581139 1.581139 
C 2.000462 1.161816 2.236068 0.593012 2.236068 -0 
C 2.236068 -0.593012 2.000462 -1.161816 1.581139 -1.581139 
C 1.161816 -2.000462 0.593012 -2.236068 0 -2.236068 
C -0.593012 -2.236068 -1.161816 -2.000462 -1.581139 -1.581139 
C -2.000462 -1.161816 -2.236068 -0.593012 -2.236068 0 
C -2.236068 0.593012 -2.000462 1.161816 -1.581139 1.581139 
C -1.161816 2.000462 -0.593012 2.236068 0 2.236068 
z
"/>
    </defs>
    <g clip-path="url(#p7d2aaef153)">
     <use xlink:href="#C0_0_9b471d068f" x="358.952255" y="218.16" style="fill: #562666; stroke: #562666"/>
    </g>
    <g clip-path="url(#p7d2aaef153)">
     <use xlink:href="#C0_0_9b471d068f" x="105.401464" y="218.16" style="fill: #ea936f; stroke: #ea936f"/>
    </g>
    <g clip-path="url(#p7d2aaef153)">
     <use xlink:href="#C0_0_9b471d068f" x="232.753421" y="218.16" style="fill: #b93e6a; stroke: #b93e6a"/>
    </g>
    <g clip-path="url(#p7d2aaef153)">
     <use xlink:href="#C0_0_9b471d068f" x="96.783054" y="218.16" style="fill: #eb9973; stroke: #eb9973"/>
    </g>
    <g clip-path="url(#p7d2aaef153)">
     <use xlink:href="#C0_0_9b471d068f" x="82.738091" y="218.16" style="fill: #eca57a; stroke: #eca57a"/>
    </g>
    <g clip-path="url(#p7d2aaef153)">
     <use xlink:href="#C0_0_9b471d068f" x="209.230346" y="218.16" style="fill: #cb4564; stroke: #cb4564"/>
    </g>
    <g clip-path="url(#p7d2aaef153)">
     <use xlink:href="#C0_0_9b471d068f" x="119.658256" y="218.16" style="fill: #e98768; stroke: #e98768"/>
    </g>
    <g clip-path="url(#p7d2aaef153)">
     <use xlink:href="#C0_0_9b471d068f" x="288.761009" y="218.16" style="fill: #8d3271; stroke: #8d3271"/>
    </g>
    <g clip-path="url(#p7d2aaef153)">
     <use xlink:href="#C0_0_9b471d068f" x="333.277816" y="218.16" style="fill: #692b6c; stroke: #692b6c"/>
    </g>
    <g clip-path="url(#p7d2aaef153)">
     <use xlink:href="#C0_0_9b471d068f" x="335.454183" y="218.16" style="fill: #682a6c; stroke: #682a6c"/>
    </g>
    <g clip-path="url(#p7d2aaef153)">
     <use xlink:href="#C0_0_9b471d068f" x="260.17289" y="218.16" style="fill: #a3386f; stroke: #a3386f"/>
    </g>
    <g clip-path="url(#p7d2aaef153)">
     <use xlink:href="#C0_0_9b471d068f" x="277.829642" y="218.16" style="fill: #953470; stroke: #953470"/>
    </g>
    <g clip-path="url(#p7d2aaef153)">
     <use xlink:href="#C0_0_9b471d068f" x="228.6411" y="218.16" style="fill: #bc3f69; stroke: #bc3f69"/>
    </g>
    <g clip-path="url(#p7d2aaef153)">
     <use xlink:href="#C0_0_9b471d068f" x="277.832744" y="218.16" style="fill: #953470; stroke: #953470"/>
    </g>
    <g clip-path="url(#p7d2aaef153)">
     <use xlink:href="#C0_0_9b471d068f" x="313.363976" y="218.16" style="fill: #792e6f; stroke: #792e6f"/>
    </g>
    <g clip-path="url(#p7d2aaef153)">
     <use xlink:href="#C0_0_9b471d068f" x="206.066469" y="218.16" style="fill: #cc4663; stroke: #cc4663"/>
    </g>
    <g clip-path="url(#p7d2aaef153)">
     <use xlink:href="#C0_0_9b471d068f" x="229.455842" y="218.16" style="fill: #bc3f69; stroke: #bc3f69"/>
    </g>
    <g clip-path="url(#p7d2aaef153)">
     <use xlink:href="#C0_0_9b471d068f" x="227.747022" y="218.16" style="fill: #bd3f69; stroke: #bd3f69"/>
    </g>
    <g clip-path="url(#p7d2aaef153)">
     <use xlink:href="#C0_0_9b471d068f" x="281.425827" y="218.16" style="fill: #933471; stroke: #933471"/>
    </g>
    <g clip-path="url(#p7d2aaef153)">
     <use xlink:href="#C0_0_9b471d068f" x="132.522293" y="218.16" style="fill: #e77c63; stroke: #e77c63"/>
    </g>
    <g clip-path="url(#p7d2aaef153)">
     <use xlink:href="#C0_0_9b471d068f" x="343.188861" y="218.16" style="fill: #62296a; stroke: #62296a"/>
    </g>
    <g clip-path="url(#p7d2aaef153)">
     <use xlink:href="#C0_0_9b471d068f" x="323.19077" y="218.16" style="fill: #722c6e; stroke: #722c6e"/>
    </g>
    <g clip-path="url(#p7d2aaef153)">
     <use xlink:href="#C0_0_9b471d068f" x="130.490629" y="218.16" style="fill: #e77e63; stroke: #e77e63"/>
    </g>
    <g clip-path="url(#p7d2aaef153)">
     <use xlink:href="#C0_0_9b471d068f" x="350.43451" y="218.16" style="fill: #5c2868; stroke: #5c2868"/>
    </g>
    <g clip-path="url(#p7d2aaef153)">
     <use xlink:href="#C0_0_9b471d068f" x="69.218182" y="218.16" style="fill: #edb081; stroke: #edb081"/>
    </g>
    <g clip-path="url(#p7d2aaef153)">
     <use xlink:href="#C0_0_9b471d068f" x="171.049389" y="218.16" style="fill: #de5d5c; stroke: #de5d5c"/>
    </g>
    <g clip-path="url(#p7d2aaef153)">
     <use xlink:href="#C0_0_9b471d068f" x="355.95354" y="218.16" style="fill: #582766; stroke: #582766"/>
    </g>
    <g clip-path="url(#p7d2aaef153)">
     <use xlink:href="#C0_0_9b471d068f" x="357.860004" y="218.16" style="fill: #572766; stroke: #572766"/>
    </g>
    <g clip-path="url(#p7d2aaef153)">
     <use xlink:href="#C0_0_9b471d068f" x="359.885885" y="218.16" style="fill: #552665; stroke: #552665"/>
    </g>
    <g clip-path="url(#p7d2aaef153)">
     <use xlink:href="#C0_0_9b471d068f" x="226.579571" y="218.16" style="fill: #be3f69; stroke: #be3f69"/>
    </g>
    <g clip-path="url(#p7d2aaef153)">
     <use xlink:href="#C0_0_9b471d068f" x="115.710374" y="218.16" style="fill: #e98a6a; stroke: #e98a6a"/>
    </g>
    <g clip-path="url(#p7d2aaef153)">
     <use xlink:href="#C0_0_9b471d068f" x="119.353267" y="218.16" style="fill: #e98768; stroke: #e98768"/>
    </g>
    <g clip-path="url(#p7d2aaef153)">
     <use xlink:href="#C0_0_9b471d068f" x="234.328566" y="218.16" style="fill: #b83e6b; stroke: #b83e6b"/>
    </g>
    <g clip-path="url(#p7d2aaef153)">
     <use xlink:href="#C0_0_9b471d068f" x="313.189501" y="218.16" style="fill: #792e6f; stroke: #792e6f"/>
    </g>
    <g clip-path="url(#p7d2aaef153)">
     <use xlink:href="#C0_0_9b471d068f" x="325.632852" y="218.16" style="fill: #702c6e; stroke: #702c6e"/>
    </g>
    <g clip-path="url(#p7d2aaef153)">
     <use xlink:href="#C0_0_9b471d068f" x="264.304534" y="218.16" style="fill: #a0376f; stroke: #a0376f"/>
    </g>
    <g clip-path="url(#p7d2aaef153)">
     <use xlink:href="#C0_0_9b471d068f" x="345.774984" y="218.16" style="fill: #602969; stroke: #602969"/>
    </g>
    <g clip-path="url(#p7d2aaef153)">
     <use xlink:href="#C0_0_9b471d068f" x="177.251538" y="218.16" style="fill: #dc585c; stroke: #dc585c"/>
    </g>
    <g clip-path="url(#p7d2aaef153)">
     <use xlink:href="#C0_0_9b471d068f" x="373.581818" y="218.16" style="fill: #4b2362; stroke: #4b2362"/>
    </g>
    <g clip-path="url(#p7d2aaef153)">
     <use xlink:href="#C0_0_9b471d068f" x="72.306194" y="218.16" style="fill: #edae7f; stroke: #edae7f"/>
    </g>
    <g clip-path="url(#p7d2aaef153)">
     <use xlink:href="#C0_0_9b471d068f" x="337.915266" y="218.16" style="fill: #652a6b; stroke: #652a6b"/>
    </g>
    <g clip-path="url(#p7d2aaef153)">
     <use xlink:href="#C0_0_9b471d068f" x="108.814575" y="218.16" style="fill: #ea906d; stroke: #ea906d"/>
    </g>
    <g clip-path="url(#p7d2aaef153)">
     <use xlink:href="#C0_0_9b471d068f" x="124.410771" y="218.16" style="fill: #e88366; stroke: #e88366"/>
    </g>
    <g clip-path="url(#p7d2aaef153)">
     <use xlink:href="#C0_0_9b471d068f" x="267.19691" y="218.16" style="fill: #9e3770; stroke: #9e3770"/>
    </g>
    <g clip-path="url(#p7d2aaef153)">
     <use xlink:href="#C0_0_9b471d068f" x="253.183001" y="218.16" style="fill: #a93a6e; stroke: #a93a6e"/>
    </g>
    <g clip-path="url(#p7d2aaef153)">
     <use xlink:href="#C0_0_9b471d068f" x="210.51761" y="218.16" style="fill: #ca4564; stroke: #ca4564"/>
    </g>
    <g clip-path="url(#p7d2aaef153)">
     <use xlink:href="#C0_0_9b471d068f" x="99.322352" y="218.16" style="fill: #eb9872; stroke: #eb9872"/>
    </g>
    <g clip-path="url(#p7d2aaef153)">
     <use xlink:href="#C0_0_9b471d068f" x="179.514264" y="218.16" style="fill: #db565d; stroke: #db565d"/>
    </g>
    <g clip-path="url(#p7d2aaef153)">
     <use xlink:href="#C0_0_9b471d068f" x="208.265448" y="218.16" style="fill: #cc4664; stroke: #cc4664"/>
    </g>
    <g clip-path="url(#p7d2aaef153)">
     <use xlink:href="#C0_0_9b471d068f" x="110.15727" y="218.16" style="fill: #ea8f6c; stroke: #ea8f6c"/>
    </g>
   </g>
   <g id="matplotlib.axis_1">
    <g id="xtick_1">
     <g id="line2d_1">
      <defs>
       <path id="mb3bd1e1c3d" d="M 0 0 
L 0 3.5 
" style="stroke: #000000; stroke-width: 0.8"/>
      </defs>
      <g>
       <use xlink:href="#mb3bd1e1c3d" x="66.712387" y="384.48" style="stroke: #000000; stroke-width: 0.8"/>
      </g>
     </g>
     <g id="text_1">
      <!-- 0 -->
      <g transform="translate(63.531137 399.078438) scale(0.1 -0.1)">
       <defs>
        <path id="DejaVuSans-30" d="M 2034 4250 
Q 1547 4250 1301 3770 
Q 1056 3291 1056 2328 
Q 1056 1369 1301 889 
Q 1547 409 2034 409 
Q 2525 409 2770 889 
Q 3016 1369 3016 2328 
Q 3016 3291 2770 3770 
Q 2525 4250 2034 4250 
z
M 2034 4750 
Q 2819 4750 3233 4129 
Q 3647 3509 3647 2328 
Q 3647 1150 3233 529 
Q 2819 -91 2034 -91 
Q 1250 -91 836 529 
Q 422 1150 422 2328 
Q 422 3509 836 4129 
Q 1250 4750 2034 4750 
z
" transform="scale(0.015625)"/>
       </defs>
       <use xlink:href="#DejaVuSans-30"/>
      </g>
     </g>
    </g>
    <g id="xtick_2">
     <g id="line2d_2">
      <g>
       <use xlink:href="#mb3bd1e1c3d" x="376.634563" y="384.48" style="stroke: #000000; stroke-width: 0.8"/>
      </g>
     </g>
     <g id="text_2">
      <!-- 1 -->
      <g transform="translate(373.453313 399.078438) scale(0.1 -0.1)">
       <defs>
        <path id="DejaVuSans-31" d="M 794 531 
L 1825 531 
L 1825 4091 
L 703 3866 
L 703 4441 
L 1819 4666 
L 2450 4666 
L 2450 531 
L 3481 531 
L 3481 0 
L 794 0 
L 794 531 
z
" transform="scale(0.015625)"/>
       </defs>
       <use xlink:href="#DejaVuSans-31"/>
      </g>
     </g>
    </g>
   </g>
   <g id="matplotlib.axis_2"/>
   <g id="patch_3">
    <path d="M 54 384.48 
L 54 51.84 
" style="fill: none; stroke: #000000; stroke-width: 0.8; stroke-linejoin: miter; stroke-linecap: square"/>
   </g>
   <g id="patch_4">
    <path d="M 388.8 384.48 
L 388.8 51.84 
" style="fill: none; stroke: #000000; stroke-width: 0.8; stroke-linejoin: miter; stroke-linecap: square"/>
   </g>
   <g id="patch_5">
    <path d="M 54 384.48 
L 388.8 384.48 
" style="fill: none; stroke: #000000; stroke-width: 0.8; stroke-linejoin: miter; stroke-linecap: square"/>
   </g>
   <g id="patch_6">
    <path d="M 54 51.84 
L 388.8 51.84 
" style="fill: none; stroke: #000000; stroke-width: 0.8; stroke-linejoin: miter; stroke-linecap: square"/>
   </g>
  </g>
 </g>
 <defs>
  <clipPath id="p7d2aaef153">
   <rect x="54" y="51.84" width="334.8" height="332.64"/>
  </clipPath>
 </defs>
</svg>
