<?xml version="1.0" encoding="utf-8" standalone="no"?>
<!DOCTYPE svg PUBLIC "-//W3C//DTD SVG 1.1//EN"
  "http://www.w3.org/Graphics/SVG/1.1/DTD/svg11.dtd">
<svg xmlns:xlink="http://www.w3.org/1999/xlink" width="432pt" height="432pt" viewBox="0 0 432 432" xmlns="http://www.w3.org/2000/svg" version="1.1">
 <metadata>
  <rdf:RDF xmlns:dc="http://purl.org/dc/elements/1.1/" xmlns:cc="http://creativecommons.org/ns#" xmlns:rdf="http://www.w3.org/1999/02/22-rdf-syntax-ns#">
   <cc:Work>
    <dc:type rdf:resource="http://purl.org/dc/dcmitype/StillImage"/>
    <dc:date>2023-05-15T17:32:51.001343</dc:date>
    <dc:format>image/svg+xml</dc:format>
    <dc:creator>
     <cc:Agent>
      <dc:title>Matplotlib v3.7.1, https://matplotlib.org/</dc:title>
     </cc:Agent>
    </dc:creator>
   </cc:Work>
  </rdf:RDF>
 </metadata>
 <defs>
  <style type="text/css">*{stroke-linejoin: round; stroke-linecap: butt}</style>
 </defs>
 <g id="figure_1">
  <g id="patch_1">
   <path d="M 0 432 
L 432 432 
L 432 0 
L 0 0 
L 0 432 
z
" style="fill: none"/>
  </g>
  <g id="axes_1">
   <g id="patch_2">
    <path d="M 54 384.48 
L 388.8 384.48 
L 388.8 51.84 
L 54 51.84 
L 54 384.48 
z
" style="fill: none"/>
   </g>
   <g id="PathCollection_1">
    <defs>
     <path id="C0_0_f0daa168e9" d="M 0 2.236068 
C 0.593012 2.236068 1.161816 2.000462 1.581139 1.581139 
C 2.000462 1.161816 2.236068 0.593012 2.236068 -0 
C 2.236068 -0.593012 2.000462 -1.161816 1.581139 -1.581139 
C 1.161816 -2.000462 0.593012 -2.236068 0 -2.236068 
C -0.593012 -2.236068 -1.161816 -2.000462 -1.581139 -1.581139 
C -2.000462 -1.161816 -2.236068 -0.593012 -2.236068 0 
C -2.236068 0.593012 -2.000462 1.161816 -1.581139 1.581139 
C -1.161816 2.000462 -0.593012 2.236068 0 2.236068 
z
"/>
    </defs>
    <g clip-path="url(#p55daef09c4)">
     <use xlink:href="#C0_0_f0daa168e9" x="358.952255" y="271.651666" style="fill: #562666; stroke: #562666"/>
    </g>
    <g clip-path="url(#p55daef09c4)">
     <use xlink:href="#C0_0_f0daa168e9" x="105.401464" y="111.29959" style="fill: #ea936f; stroke: #ea936f"/>
    </g>
    <g clip-path="url(#p55daef09c4)">
     <use xlink:href="#C0_0_f0daa168e9" x="232.753421" y="252.221182" style="fill: #b93e6a; stroke: #b93e6a"/>
    </g>
    <g clip-path="url(#p55daef09c4)">
     <use xlink:href="#C0_0_f0daa168e9" x="96.783054" y="131.593968" style="fill: #eb9973; stroke: #eb9973"/>
    </g>
    <g clip-path="url(#p55daef09c4)">
     <use xlink:href="#C0_0_f0daa168e9" x="82.738091" y="170.021523" style="fill: #eca57a; stroke: #eca57a"/>
    </g>
    <g clip-path="url(#p55daef09c4)">
     <use xlink:href="#C0_0_f0daa168e9" x="209.230346" y="180.579816" style="fill: #cb4564; stroke: #cb4564"/>
    </g>
    <g clip-path="url(#p55daef09c4)">
     <use xlink:href="#C0_0_f0daa168e9" x="119.658256" y="85.14324" style="fill: #e98768; stroke: #e98768"/>
    </g>
    <g clip-path="url(#p55daef09c4)">
     <use xlink:href="#C0_0_f0daa168e9" x="288.761009" y="366.755287" style="fill: #8d3271; stroke: #8d3271"/>
    </g>
    <g clip-path="url(#p55daef09c4)">
     <use xlink:href="#C0_0_f0daa168e9" x="333.277816" y="335.239316" style="fill: #692b6c; stroke: #692b6c"/>
    </g>
    <g clip-path="url(#p55daef09c4)">
     <use xlink:href="#C0_0_f0daa168e9" x="335.454183" y="330.857897" style="fill: #682a6c; stroke: #682a6c"/>
    </g>
    <g clip-path="url(#p55daef09c4)">
     <use xlink:href="#C0_0_f0daa168e9" x="260.17289" y="325.160765" style="fill: #a3386f; stroke: #a3386f"/>
    </g>
    <g clip-path="url(#p55daef09c4)">
     <use xlink:href="#C0_0_f0daa168e9" x="277.829642" y="356.155273" style="fill: #953470; stroke: #953470"/>
    </g>
    <g clip-path="url(#p55daef09c4)">
     <use xlink:href="#C0_0_f0daa168e9" x="228.6411" y="239.79072" style="fill: #bc3f69; stroke: #bc3f69"/>
    </g>
    <g clip-path="url(#p55daef09c4)">
     <use xlink:href="#C0_0_f0daa168e9" x="277.832744" y="356.159269" style="fill: #953470; stroke: #953470"/>
    </g>
    <g clip-path="url(#p55daef09c4)">
     <use xlink:href="#C0_0_f0daa168e9" x="313.363976" y="363.859174" style="fill: #792e6f; stroke: #792e6f"/>
    </g>
    <g clip-path="url(#p55daef09c4)">
     <use xlink:href="#C0_0_f0daa168e9" x="206.066469" y="171.243357" style="fill: #cc4663; stroke: #cc4663"/>
    </g>
    <g clip-path="url(#p55daef09c4)">
     <use xlink:href="#C0_0_f0daa168e9" x="229.455842" y="242.268012" style="fill: #bc3f69; stroke: #bc3f69"/>
    </g>
    <g clip-path="url(#p55daef09c4)">
     <use xlink:href="#C0_0_f0daa168e9" x="227.747022" y="237.065519" style="fill: #bd3f69; stroke: #bd3f69"/>
    </g>
    <g clip-path="url(#p55daef09c4)">
     <use xlink:href="#C0_0_f0daa168e9" x="281.425827" y="360.418361" style="fill: #933471; stroke: #933471"/>
    </g>
    <g clip-path="url(#p55daef09c4)">
     <use xlink:href="#C0_0_f0daa168e9" x="132.522293" y="70.989982" style="fill: #e77c63; stroke: #e77c63"/>
    </g>
    <g clip-path="url(#p55daef09c4)">
     <use xlink:href="#C0_0_f0daa168e9" x="343.188861" y="313.578596" style="fill: #62296a; stroke: #62296a"/>
    </g>
    <g clip-path="url(#p55daef09c4)">
     <use xlink:href="#C0_0_f0daa168e9" x="323.19077" y="352.454458" style="fill: #722c6e; stroke: #722c6e"/>
    </g>
    <g clip-path="url(#p55daef09c4)">
     <use xlink:href="#C0_0_f0daa168e9" x="130.490629" y="72.578986" style="fill: #e77e63; stroke: #e77e63"/>
    </g>
    <g clip-path="url(#p55daef09c4)">
     <use xlink:href="#C0_0_f0daa168e9" x="350.43451" y="295.264954" style="fill: #5c2868; stroke: #5c2868"/>
    </g>
    <g clip-path="url(#p55daef09c4)">
     <use xlink:href="#C0_0_f0daa168e9" x="69.218182" y="210.735162" style="fill: #edb081; stroke: #edb081"/>
    </g>
    <g clip-path="url(#p55daef09c4)">
     <use xlink:href="#C0_0_f0daa168e9" x="171.049389" y="88.696096" style="fill: #de5d5c; stroke: #de5d5c"/>
    </g>
    <g clip-path="url(#p55daef09c4)">
     <use xlink:href="#C0_0_f0daa168e9" x="355.95354" y="280.182702" style="fill: #582766; stroke: #582766"/>
    </g>
    <g clip-path="url(#p55daef09c4)">
     <use xlink:href="#C0_0_f0daa168e9" x="357.860004" y="274.783448" style="fill: #572766; stroke: #572766"/>
    </g>
    <g clip-path="url(#p55daef09c4)">
     <use xlink:href="#C0_0_f0daa168e9" x="359.885885" y="268.953949" style="fill: #552665; stroke: #552665"/>
    </g>
    <g clip-path="url(#p55daef09c4)">
     <use xlink:href="#C0_0_f0daa168e9" x="226.579571" y="233.497991" style="fill: #be3f69; stroke: #be3f69"/>
    </g>
    <g clip-path="url(#p55daef09c4)">
     <use xlink:href="#C0_0_f0daa168e9" x="115.710374" y="91.356026" style="fill: #e98a6a; stroke: #e98a6a"/>
    </g>
    <g clip-path="url(#p55daef09c4)">
     <use xlink:href="#C0_0_f0daa168e9" x="119.353267" y="85.593259" style="fill: #e98768; stroke: #e98768"/>
    </g>
    <g clip-path="url(#p55daef09c4)">
     <use xlink:href="#C0_0_f0daa168e9" x="234.328566" y="256.924923" style="fill: #b83e6b; stroke: #b83e6b"/>
    </g>
    <g clip-path="url(#p55daef09c4)">
     <use xlink:href="#C0_0_f0daa168e9" x="313.189501" y="364.010691" style="fill: #792e6f; stroke: #792e6f"/>
    </g>
    <g clip-path="url(#p55daef09c4)">
     <use xlink:href="#C0_0_f0daa168e9" x="325.632852" y="348.775498" style="fill: #702c6e; stroke: #702c6e"/>
    </g>
    <g clip-path="url(#p55daef09c4)">
     <use xlink:href="#C0_0_f0daa168e9" x="264.304534" y="333.803227" style="fill: #a0376f; stroke: #a0376f"/>
    </g>
    <g clip-path="url(#p55daef09c4)">
     <use xlink:href="#C0_0_f0daa168e9" x="345.774984" y="307.257643" style="fill: #602969; stroke: #602969"/>
    </g>
    <g clip-path="url(#p55daef09c4)">
     <use xlink:href="#C0_0_f0daa168e9" x="177.251538" y="99.572575" style="fill: #dc585c; stroke: #dc585c"/>
    </g>
    <g clip-path="url(#p55daef09c4)">
     <use xlink:href="#C0_0_f0daa168e9" x="373.581818" y="227.817948" style="fill: #4b2362; stroke: #4b2362"/>
    </g>
    <g clip-path="url(#p55daef09c4)">
     <use xlink:href="#C0_0_f0daa168e9" x="72.306194" y="201.273288" style="fill: #edae7f; stroke: #edae7f"/>
    </g>
    <g clip-path="url(#p55daef09c4)">
     <use xlink:href="#C0_0_f0daa168e9" x="337.915266" y="325.640121" style="fill: #652a6b; stroke: #652a6b"/>
    </g>
    <g clip-path="url(#p55daef09c4)">
     <use xlink:href="#C0_0_f0daa168e9" x="108.814575" y="104.133077" style="fill: #ea906d; stroke: #ea906d"/>
    </g>
    <g clip-path="url(#p55daef09c4)">
     <use xlink:href="#C0_0_f0daa168e9" x="124.410771" y="78.799442" style="fill: #e88366; stroke: #e88366"/>
    </g>
    <g clip-path="url(#p55daef09c4)">
     <use xlink:href="#C0_0_f0daa168e9" x="267.19691" y="339.375423" style="fill: #9e3770; stroke: #9e3770"/>
    </g>
    <g clip-path="url(#p55daef09c4)">
     <use xlink:href="#C0_0_f0daa168e9" x="253.183001" y="308.869888" style="fill: #a93a6e; stroke: #a93a6e"/>
    </g>
    <g clip-path="url(#p55daef09c4)">
     <use xlink:href="#C0_0_f0daa168e9" x="210.51761" y="184.425232" style="fill: #ca4564; stroke: #ca4564"/>
    </g>
    <g clip-path="url(#p55daef09c4)">
     <use xlink:href="#C0_0_f0daa168e9" x="99.322352" y="125.310282" style="fill: #eb9872; stroke: #eb9872"/>
    </g>
    <g clip-path="url(#p55daef09c4)">
     <use xlink:href="#C0_0_f0daa168e9" x="179.514264" y="104.017898" style="fill: #db565d; stroke: #db565d"/>
    </g>
    <g clip-path="url(#p55daef09c4)">
     <use xlink:href="#C0_0_f0daa168e9" x="208.265448" y="177.71416" style="fill: #cc4664; stroke: #cc4664"/>
    </g>
    <g clip-path="url(#p55daef09c4)">
     <use xlink:href="#C0_0_f0daa168e9" x="110.15727" y="101.461941" style="fill: #ea8f6c; stroke: #ea8f6c"/>
    </g>
   </g>
   <g id="PathCollection_2">
    <defs>
     <path id="C1_0_2a9544c952" d="M 0 2.236068 
C 0.593012 2.236068 1.161816 2.000462 1.581139 1.581139 
C 2.000462 1.161816 2.236068 0.593012 2.236068 -0 
C 2.236068 -0.593012 2.000462 -1.161816 1.581139 -1.581139 
C 1.161816 -2.000462 0.593012 -2.236068 0 -2.236068 
C -0.593012 -2.236068 -1.161816 -2.000462 -1.581139 -1.581139 
C -2.000462 -1.161816 -2.236068 -0.593012 -2.236068 0 
C -2.236068 0.593012 -2.000462 1.161816 -1.581139 1.581139 
C -1.161816 2.000462 -0.593012 2.236068 0 2.236068 
z
"/>
    </defs>
    <g clip-path="url(#p55daef09c4)">
     <use xlink:href="#C1_0_2a9544c952" x="358.952255" y="76.406031" style="fill: #2b3a76; stroke: #2b3a76"/>
    </g>
    <g clip-path="url(#p55daef09c4)">
     <use xlink:href="#C1_0_2a9544c952" x="105.401464" y="111.076963" style="fill: #84bd91; stroke: #84bd91"/>
    </g>
    <g clip-path="url(#p55daef09c4)">
     <use xlink:href="#C1_0_2a9544c952" x="232.753421" y="366.299144" style="fill: #2d808c; stroke: #2d808c"/>
    </g>
    <g clip-path="url(#p55daef09c4)">
     <use xlink:href="#C1_0_2a9544c952" x="96.783054" y="94.087131" style="fill: #8bc191; stroke: #8bc191"/>
    </g>
    <g clip-path="url(#p55daef09c4)">
     <use xlink:href="#C1_0_2a9544c952" x="82.738091" y="74.699243" style="fill: #99c791; stroke: #99c791"/>
    </g>
    <g clip-path="url(#p55daef09c4)">
     <use xlink:href="#C1_0_2a9544c952" x="209.230346" y="365.309127" style="fill: #3a8b8e; stroke: #3a8b8e"/>
    </g>
    <g clip-path="url(#p55daef09c4)">
     <use xlink:href="#C1_0_2a9544c952" x="119.658256" y="146.067287" style="fill: #76b791; stroke: #76b791"/>
    </g>
    <g clip-path="url(#p55daef09c4)">
     <use xlink:href="#C1_0_2a9544c952" x="288.761009" y="250.158765" style="fill: #1d6388; stroke: #1d6388"/>
    </g>
    <g clip-path="url(#p55daef09c4)">
     <use xlink:href="#C1_0_2a9544c952" x="333.277816" y="121.680549" style="fill: #26497e; stroke: #26497e"/>
    </g>
    <g clip-path="url(#p55daef09c4)">
     <use xlink:href="#C1_0_2a9544c952" x="335.454183" y="116.622786" style="fill: #26487e; stroke: #26487e"/>
    </g>
    <g clip-path="url(#p55daef09c4)">
     <use xlink:href="#C1_0_2a9544c952" x="260.17289" y="326.208152" style="fill: #20728b; stroke: #20728b"/>
    </g>
    <g clip-path="url(#p55daef09c4)">
     <use xlink:href="#C1_0_2a9544c952" x="277.829642" y="281.984314" style="fill: #1c6889; stroke: #1c6889"/>
    </g>
    <g clip-path="url(#p55daef09c4)">
     <use xlink:href="#C1_0_2a9544c952" x="228.6411" y="368.598925" style="fill: #2f818d; stroke: #2f818d"/>
    </g>
    <g clip-path="url(#p55daef09c4)">
     <use xlink:href="#C1_0_2a9544c952" x="277.832744" y="281.975654" style="fill: #1c6889; stroke: #1c6889"/>
    </g>
    <g clip-path="url(#p55daef09c4)">
     <use xlink:href="#C1_0_2a9544c952" x="313.363976" y="175.344316" style="fill: #215583; stroke: #215583"/>
    </g>
    <g clip-path="url(#p55daef09c4)">
     <use xlink:href="#C1_0_2a9544c952" x="206.066469" y="362.5805" style="fill: #3c8c8e; stroke: #3c8c8e"/>
    </g>
    <g clip-path="url(#p55daef09c4)">
     <use xlink:href="#C1_0_2a9544c952" x="229.455842" y="368.225744" style="fill: #2f818d; stroke: #2f818d"/>
    </g>
    <g clip-path="url(#p55daef09c4)">
     <use xlink:href="#C1_0_2a9544c952" x="227.747022" y="368.961295" style="fill: #30828d; stroke: #30828d"/>
    </g>
    <g clip-path="url(#p55daef09c4)">
     <use xlink:href="#C1_0_2a9544c952" x="281.425827" y="271.783763" style="fill: #1c6689; stroke: #1c6689"/>
    </g>
    <g clip-path="url(#p55daef09c4)">
     <use xlink:href="#C1_0_2a9544c952" x="132.522293" y="182.884536" style="fill: #6bb190; stroke: #6bb190"/>
    </g>
    <g clip-path="url(#p55daef09c4)">
     <use xlink:href="#C1_0_2a9544c952" x="343.188861" y="100.315577" style="fill: #28437b; stroke: #28437b"/>
    </g>
    <g clip-path="url(#p55daef09c4)">
     <use xlink:href="#C1_0_2a9544c952" x="323.19077" y="147.416503" style="fill: #234f81; stroke: #234f81"/>
    </g>
    <g clip-path="url(#p55daef09c4)">
     <use xlink:href="#C1_0_2a9544c952" x="130.490629" y="176.843242" style="fill: #6db290; stroke: #6db290"/>
    </g>
    <g clip-path="url(#p55daef09c4)">
     <use xlink:href="#C1_0_2a9544c952" x="350.43451" y="87.662153" style="fill: #2a3f78; stroke: #2a3f78"/>
    </g>
    <g clip-path="url(#p55daef09c4)">
     <use xlink:href="#C1_0_2a9544c952" x="69.218182" y="66.96" style="fill: #a5cd90; stroke: #a5cd90"/>
    </g>
    <g clip-path="url(#p55daef09c4)">
     <use xlink:href="#C1_0_2a9544c952" x="171.049389" y="296.998395" style="fill: #509e90; stroke: #509e90"/>
    </g>
    <g clip-path="url(#p55daef09c4)">
     <use xlink:href="#C1_0_2a9544c952" x="355.95354" y="79.901573" style="fill: #2a3b76; stroke: #2a3b76"/>
    </g>
    <g clip-path="url(#p55daef09c4)">
     <use xlink:href="#C1_0_2a9544c952" x="357.860004" y="77.619123" style="fill: #2b3b76; stroke: #2b3b76"/>
    </g>
    <g clip-path="url(#p55daef09c4)">
     <use xlink:href="#C1_0_2a9544c952" x="359.885885" y="75.424292" style="fill: #2b3975; stroke: #2b3975"/>
    </g>
    <g clip-path="url(#p55daef09c4)">
     <use xlink:href="#C1_0_2a9544c952" x="226.579571" y="369.36" style="fill: #31828d; stroke: #31828d"/>
    </g>
    <g clip-path="url(#p55daef09c4)">
     <use xlink:href="#C1_0_2a9544c952" x="115.710374" y="135.641903" style="fill: #79b891; stroke: #79b891"/>
    </g>
    <g clip-path="url(#p55daef09c4)">
     <use xlink:href="#C1_0_2a9544c952" x="119.353267" y="145.244499" style="fill: #76b791; stroke: #76b791"/>
    </g>
    <g clip-path="url(#p55daef09c4)">
     <use xlink:href="#C1_0_2a9544c952" x="234.328566" y="365.145092" style="fill: #2d7f8c; stroke: #2d7f8c"/>
    </g>
    <g clip-path="url(#p55daef09c4)">
     <use xlink:href="#C1_0_2a9544c952" x="313.189501" y="175.858971" style="fill: #215583; stroke: #215583"/>
    </g>
    <g clip-path="url(#p55daef09c4)">
     <use xlink:href="#C1_0_2a9544c952" x="325.632852" y="140.871116" style="fill: #244e80; stroke: #244e80"/>
    </g>
    <g clip-path="url(#p55daef09c4)">
     <use xlink:href="#C1_0_2a9544c952" x="264.304534" y="316.901293" style="fill: #1f6f8a; stroke: #1f6f8a"/>
    </g>
    <g clip-path="url(#p55daef09c4)">
     <use xlink:href="#C1_0_2a9544c952" x="345.774984" y="95.49194" style="fill: #29427a; stroke: #29427a"/>
    </g>
    <g clip-path="url(#p55daef09c4)">
     <use xlink:href="#C1_0_2a9544c952" x="177.251538" y="312.648688" style="fill: #4c9b90; stroke: #4c9b90"/>
    </g>
    <g clip-path="url(#p55daef09c4)">
     <use xlink:href="#C1_0_2a9544c952" x="373.581818" y="67.054713" style="fill: #2c3172; stroke: #2c3172"/>
    </g>
    <g clip-path="url(#p55daef09c4)">
     <use xlink:href="#C1_0_2a9544c952" x="72.306194" y="67.738602" style="fill: #a3cc91; stroke: #a3cc91"/>
    </g>
    <g clip-path="url(#p55daef09c4)">
     <use xlink:href="#C1_0_2a9544c952" x="337.915266" y="111.142622" style="fill: #27467c; stroke: #27467c"/>
    </g>
    <g clip-path="url(#p55daef09c4)">
     <use xlink:href="#C1_0_2a9544c952" x="108.814575" y="118.741386" style="fill: #80bb91; stroke: #80bb91"/>
    </g>
    <g clip-path="url(#p55daef09c4)">
     <use xlink:href="#C1_0_2a9544c952" x="124.410771" y="159.225902" style="fill: #72b490; stroke: #72b490"/>
    </g>
    <g clip-path="url(#p55daef09c4)">
     <use xlink:href="#C1_0_2a9544c952" x="267.19691" y="309.971044" style="fill: #1e6e8a; stroke: #1e6e8a"/>
    </g>
    <g clip-path="url(#p55daef09c4)">
     <use xlink:href="#C1_0_2a9544c952" x="253.183001" y="340.201018" style="fill: #23758b; stroke: #23758b"/>
    </g>
    <g clip-path="url(#p55daef09c4)">
     <use xlink:href="#C1_0_2a9544c952" x="210.51761" y="366.24697" style="fill: #3a8b8e; stroke: #3a8b8e"/>
    </g>
    <g clip-path="url(#p55daef09c4)">
     <use xlink:href="#C1_0_2a9544c952" x="99.322352" y="98.720599" style="fill: #89bf91; stroke: #89bf91"/>
    </g>
    <g clip-path="url(#p55daef09c4)">
     <use xlink:href="#C1_0_2a9544c952" x="179.514264" y="318.000359" style="fill: #4b9a8f; stroke: #4b9a8f"/>
    </g>
    <g clip-path="url(#p55daef09c4)">
     <use xlink:href="#C1_0_2a9544c952" x="208.265448" y="364.54052" style="fill: #3b8c8e; stroke: #3b8c8e"/>
    </g>
    <g clip-path="url(#p55daef09c4)">
     <use xlink:href="#C1_0_2a9544c952" x="110.15727" y="121.889407" style="fill: #7fbb91; stroke: #7fbb91"/>
    </g>
   </g>
   <g id="matplotlib.axis_1">
    <g id="xtick_1">
     <g id="line2d_1">
      <defs>
       <path id="m6be3613290" d="M 0 0 
L 0 3.5 
" style="stroke: #000000; stroke-width: 0.8"/>
      </defs>
      <g>
       <use xlink:href="#m6be3613290" x="66.712387" y="384.48" style="stroke: #000000; stroke-width: 0.8"/>
      </g>
     </g>
     <g id="text_1">
      <!-- 0 -->
      <g transform="translate(63.531137 399.078438) scale(0.1 -0.1)">
       <defs>
        <path id="DejaVuSans-30" d="M 2034 4250 
Q 1547 4250 1301 3770 
Q 1056 3291 1056 2328 
Q 1056 1369 1301 889 
Q 1547 409 2034 409 
Q 2525 409 2770 889 
Q 3016 1369 3016 2328 
Q 3016 3291 2770 3770 
Q 2525 4250 2034 4250 
z
M 2034 4750 
Q 2819 4750 3233 4129 
Q 3647 3509 3647 2328 
Q 3647 1150 3233 529 
Q 2819 -91 2034 -91 
Q 1250 -91 836 529 
Q 422 1150 422 2328 
Q 422 3509 836 4129 
Q 1250 4750 2034 4750 
z
" transform="scale(0.015625)"/>
       </defs>
       <use xlink:href="#DejaVuSans-30"/>
      </g>
     </g>
    </g>
    <g id="xtick_2">
     <g id="line2d_2">
      <g>
       <use xlink:href="#m6be3613290" x="376.634563" y="384.48" style="stroke: #000000; stroke-width: 0.8"/>
      </g>
     </g>
     <g id="text_2">
      <!-- 1 -->
      <g transform="translate(373.453313 399.078438) scale(0.1 -0.1)">
       <defs>
        <path id="DejaVuSans-31" d="M 794 531 
L 1825 531 
L 1825 4091 
L 703 3866 
L 703 4441 
L 1819 4666 
L 2450 4666 
L 2450 531 
L 3481 531 
L 3481 0 
L 794 0 
L 794 531 
z
" transform="scale(0.015625)"/>
       </defs>
       <use xlink:href="#DejaVuSans-31"/>
      </g>
     </g>
    </g>
    <g id="text_3">
     <!-- input -->
     <g transform="translate(208.539062 412.756563) scale(0.1 -0.1)">
      <defs>
       <path id="DejaVuSans-69" d="M 603 3500 
L 1178 3500 
L 1178 0 
L 603 0 
L 603 3500 
z
M 603 4863 
L 1178 4863 
L 1178 4134 
L 603 4134 
L 603 4863 
z
" transform="scale(0.015625)"/>
       <path id="DejaVuSans-6e" d="M 3513 2113 
L 3513 0 
L 2938 0 
L 2938 2094 
Q 2938 2591 2744 2837 
Q 2550 3084 2163 3084 
Q 1697 3084 1428 2787 
Q 1159 2491 1159 1978 
L 1159 0 
L 581 0 
L 581 3500 
L 1159 3500 
L 1159 2956 
Q 1366 3272 1645 3428 
Q 1925 3584 2291 3584 
Q 2894 3584 3203 3211 
Q 3513 2838 3513 2113 
z
" transform="scale(0.015625)"/>
       <path id="DejaVuSans-70" d="M 1159 525 
L 1159 -1331 
L 581 -1331 
L 581 3500 
L 1159 3500 
L 1159 2969 
Q 1341 3281 1617 3432 
Q 1894 3584 2278 3584 
Q 2916 3584 3314 3078 
Q 3713 2572 3713 1747 
Q 3713 922 3314 415 
Q 2916 -91 2278 -91 
Q 1894 -91 1617 61 
Q 1341 213 1159 525 
z
M 3116 1747 
Q 3116 2381 2855 2742 
Q 2594 3103 2138 3103 
Q 1681 3103 1420 2742 
Q 1159 2381 1159 1747 
Q 1159 1113 1420 752 
Q 1681 391 2138 391 
Q 2594 391 2855 752 
Q 3116 1113 3116 1747 
z
" transform="scale(0.015625)"/>
       <path id="DejaVuSans-75" d="M 544 1381 
L 544 3500 
L 1119 3500 
L 1119 1403 
Q 1119 906 1312 657 
Q 1506 409 1894 409 
Q 2359 409 2629 706 
Q 2900 1003 2900 1516 
L 2900 3500 
L 3475 3500 
L 3475 0 
L 2900 0 
L 2900 538 
Q 2691 219 2414 64 
Q 2138 -91 1772 -91 
Q 1169 -91 856 284 
Q 544 659 544 1381 
z
M 1991 3584 
L 1991 3584 
z
" transform="scale(0.015625)"/>
       <path id="DejaVuSans-74" d="M 1172 4494 
L 1172 3500 
L 2356 3500 
L 2356 3053 
L 1172 3053 
L 1172 1153 
Q 1172 725 1289 603 
Q 1406 481 1766 481 
L 2356 481 
L 2356 0 
L 1766 0 
Q 1100 0 847 248 
Q 594 497 594 1153 
L 594 3053 
L 172 3053 
L 172 3500 
L 594 3500 
L 594 4494 
L 1172 4494 
z
" transform="scale(0.015625)"/>
      </defs>
      <use xlink:href="#DejaVuSans-69"/>
      <use xlink:href="#DejaVuSans-6e" x="27.783203"/>
      <use xlink:href="#DejaVuSans-70" x="91.162109"/>
      <use xlink:href="#DejaVuSans-75" x="154.638672"/>
      <use xlink:href="#DejaVuSans-74" x="218.017578"/>
     </g>
    </g>
   </g>
   <g id="matplotlib.axis_2">
    <g id="ytick_1">
     <g id="line2d_3">
      <defs>
       <path id="me70fde09f8" d="M 0 0 
L -3.5 0 
" style="stroke: #000000; stroke-width: 0.8"/>
      </defs>
      <g>
       <use xlink:href="#me70fde09f8" x="54" y="370.109628" style="stroke: #000000; stroke-width: 0.8"/>
      </g>
     </g>
     <g id="text_4">
      <!-- 0 -->
      <g transform="translate(40.6375 373.908847) scale(0.1 -0.1)">
       <use xlink:href="#DejaVuSans-30"/>
      </g>
     </g>
    </g>
    <g id="ytick_2">
     <g id="line2d_4">
      <g>
       <use xlink:href="#me70fde09f8" x="54" y="66.764328" style="stroke: #000000; stroke-width: 0.8"/>
      </g>
     </g>
     <g id="text_5">
      <!-- 1 -->
      <g transform="translate(40.6375 70.563547) scale(0.1 -0.1)">
       <use xlink:href="#DejaVuSans-31"/>
      </g>
     </g>
    </g>
    <g id="text_6">
     <!-- sin(2π ✕ input) and cos(2π ✕ input) -->
     <g transform="translate(34.557812 306.964687) rotate(-90) scale(0.1 -0.1)">
      <defs>
       <path id="DejaVuSans-73" d="M 2834 3397 
L 2834 2853 
Q 2591 2978 2328 3040 
Q 2066 3103 1784 3103 
Q 1356 3103 1142 2972 
Q 928 2841 928 2578 
Q 928 2378 1081 2264 
Q 1234 2150 1697 2047 
L 1894 2003 
Q 2506 1872 2764 1633 
Q 3022 1394 3022 966 
Q 3022 478 2636 193 
Q 2250 -91 1575 -91 
Q 1294 -91 989 -36 
Q 684 19 347 128 
L 347 722 
Q 666 556 975 473 
Q 1284 391 1588 391 
Q 1994 391 2212 530 
Q 2431 669 2431 922 
Q 2431 1156 2273 1281 
Q 2116 1406 1581 1522 
L 1381 1569 
Q 847 1681 609 1914 
Q 372 2147 372 2553 
Q 372 3047 722 3315 
Q 1072 3584 1716 3584 
Q 2034 3584 2315 3537 
Q 2597 3491 2834 3397 
z
" transform="scale(0.015625)"/>
       <path id="DejaVuSans-28" d="M 1984 4856 
Q 1566 4138 1362 3434 
Q 1159 2731 1159 2009 
Q 1159 1288 1364 580 
Q 1569 -128 1984 -844 
L 1484 -844 
Q 1016 -109 783 600 
Q 550 1309 550 2009 
Q 550 2706 781 3412 
Q 1013 4119 1484 4856 
L 1984 4856 
z
" transform="scale(0.015625)"/>
       <path id="DejaVuSans-32" d="M 1228 531 
L 3431 531 
L 3431 0 
L 469 0 
L 469 531 
Q 828 903 1448 1529 
Q 2069 2156 2228 2338 
Q 2531 2678 2651 2914 
Q 2772 3150 2772 3378 
Q 2772 3750 2511 3984 
Q 2250 4219 1831 4219 
Q 1534 4219 1204 4116 
Q 875 4013 500 3803 
L 500 4441 
Q 881 4594 1212 4672 
Q 1544 4750 1819 4750 
Q 2544 4750 2975 4387 
Q 3406 4025 3406 3419 
Q 3406 3131 3298 2873 
Q 3191 2616 2906 2266 
Q 2828 2175 2409 1742 
Q 1991 1309 1228 531 
z
" transform="scale(0.015625)"/>
       <path id="DejaVuSans-3c0" d="M 231 3500 
L 3584 3500 
L 3584 2925 
L 3144 2925 
L 3144 775 
Q 3144 550 3220 451 
Q 3297 353 3469 353 
Q 3516 353 3584 361 
Q 3653 369 3675 372 
L 3675 -44 
Q 3566 -84 3450 -103 
Q 3334 -122 3219 -122 
Q 2844 -122 2700 83 
Q 2556 288 2556 838 
L 2556 2925 
L 1266 2925 
L 1266 0 
L 678 0 
L 678 2925 
L 231 2925 
L 231 3500 
z
" transform="scale(0.015625)"/>
       <path id="DejaVuSans-20" transform="scale(0.015625)"/>
       <path id="DejaVuSans-2715" d="M 3122 2331 
L 4550 903 
L 4106 463 
L 2681 1891 
L 1253 463 
L 809 903 
L 2238 2331 
L 809 3759 
L 1253 4200 
L 2681 2775 
L 4109 4203 
L 4553 3763 
L 3122 2331 
z
" transform="scale(0.015625)"/>
       <path id="DejaVuSans-29" d="M 513 4856 
L 1013 4856 
Q 1481 4119 1714 3412 
Q 1947 2706 1947 2009 
Q 1947 1309 1714 600 
Q 1481 -109 1013 -844 
L 513 -844 
Q 928 -128 1133 580 
Q 1338 1288 1338 2009 
Q 1338 2731 1133 3434 
Q 928 4138 513 4856 
z
" transform="scale(0.015625)"/>
       <path id="DejaVuSans-61" d="M 2194 1759 
Q 1497 1759 1228 1600 
Q 959 1441 959 1056 
Q 959 750 1161 570 
Q 1363 391 1709 391 
Q 2188 391 2477 730 
Q 2766 1069 2766 1631 
L 2766 1759 
L 2194 1759 
z
M 3341 1997 
L 3341 0 
L 2766 0 
L 2766 531 
Q 2569 213 2275 61 
Q 1981 -91 1556 -91 
Q 1019 -91 701 211 
Q 384 513 384 1019 
Q 384 1609 779 1909 
Q 1175 2209 1959 2209 
L 2766 2209 
L 2766 2266 
Q 2766 2663 2505 2880 
Q 2244 3097 1772 3097 
Q 1472 3097 1187 3025 
Q 903 2953 641 2809 
L 641 3341 
Q 956 3463 1253 3523 
Q 1550 3584 1831 3584 
Q 2591 3584 2966 3190 
Q 3341 2797 3341 1997 
z
" transform="scale(0.015625)"/>
       <path id="DejaVuSans-64" d="M 2906 2969 
L 2906 4863 
L 3481 4863 
L 3481 0 
L 2906 0 
L 2906 525 
Q 2725 213 2448 61 
Q 2172 -91 1784 -91 
Q 1150 -91 751 415 
Q 353 922 353 1747 
Q 353 2572 751 3078 
Q 1150 3584 1784 3584 
Q 2172 3584 2448 3432 
Q 2725 3281 2906 2969 
z
M 947 1747 
Q 947 1113 1208 752 
Q 1469 391 1925 391 
Q 2381 391 2643 752 
Q 2906 1113 2906 1747 
Q 2906 2381 2643 2742 
Q 2381 3103 1925 3103 
Q 1469 3103 1208 2742 
Q 947 2381 947 1747 
z
" transform="scale(0.015625)"/>
       <path id="DejaVuSans-63" d="M 3122 3366 
L 3122 2828 
Q 2878 2963 2633 3030 
Q 2388 3097 2138 3097 
Q 1578 3097 1268 2742 
Q 959 2388 959 1747 
Q 959 1106 1268 751 
Q 1578 397 2138 397 
Q 2388 397 2633 464 
Q 2878 531 3122 666 
L 3122 134 
Q 2881 22 2623 -34 
Q 2366 -91 2075 -91 
Q 1284 -91 818 406 
Q 353 903 353 1747 
Q 353 2603 823 3093 
Q 1294 3584 2113 3584 
Q 2378 3584 2631 3529 
Q 2884 3475 3122 3366 
z
" transform="scale(0.015625)"/>
       <path id="DejaVuSans-6f" d="M 1959 3097 
Q 1497 3097 1228 2736 
Q 959 2375 959 1747 
Q 959 1119 1226 758 
Q 1494 397 1959 397 
Q 2419 397 2687 759 
Q 2956 1122 2956 1747 
Q 2956 2369 2687 2733 
Q 2419 3097 1959 3097 
z
M 1959 3584 
Q 2709 3584 3137 3096 
Q 3566 2609 3566 1747 
Q 3566 888 3137 398 
Q 2709 -91 1959 -91 
Q 1206 -91 779 398 
Q 353 888 353 1747 
Q 353 2609 779 3096 
Q 1206 3584 1959 3584 
z
" transform="scale(0.015625)"/>
      </defs>
      <use xlink:href="#DejaVuSans-73"/>
      <use xlink:href="#DejaVuSans-69" x="52.099609"/>
      <use xlink:href="#DejaVuSans-6e" x="79.882812"/>
      <use xlink:href="#DejaVuSans-28" x="143.261719"/>
      <use xlink:href="#DejaVuSans-32" x="182.275391"/>
      <use xlink:href="#DejaVuSans-3c0" x="245.898438"/>
      <use xlink:href="#DejaVuSans-20" x="306.103516"/>
      <use xlink:href="#DejaVuSans-2715" x="337.890625"/>
      <use xlink:href="#DejaVuSans-20" x="421.679688"/>
      <use xlink:href="#DejaVuSans-69" x="453.466797"/>
      <use xlink:href="#DejaVuSans-6e" x="481.25"/>
      <use xlink:href="#DejaVuSans-70" x="544.628906"/>
      <use xlink:href="#DejaVuSans-75" x="608.105469"/>
      <use xlink:href="#DejaVuSans-74" x="671.484375"/>
      <use xlink:href="#DejaVuSans-29" x="710.693359"/>
      <use xlink:href="#DejaVuSans-20" x="749.707031"/>
      <use xlink:href="#DejaVuSans-61" x="781.494141"/>
      <use xlink:href="#DejaVuSans-6e" x="842.773438"/>
      <use xlink:href="#DejaVuSans-64" x="906.152344"/>
      <use xlink:href="#DejaVuSans-20" x="969.628906"/>
      <use xlink:href="#DejaVuSans-63" x="1001.416016"/>
      <use xlink:href="#DejaVuSans-6f" x="1056.396484"/>
      <use xlink:href="#DejaVuSans-73" x="1117.578125"/>
      <use xlink:href="#DejaVuSans-28" x="1169.677734"/>
      <use xlink:href="#DejaVuSans-32" x="1208.691406"/>
      <use xlink:href="#DejaVuSans-3c0" x="1272.314453"/>
      <use xlink:href="#DejaVuSans-20" x="1332.519531"/>
      <use xlink:href="#DejaVuSans-2715" x="1364.306641"/>
      <use xlink:href="#DejaVuSans-20" x="1448.095703"/>
      <use xlink:href="#DejaVuSans-69" x="1479.882812"/>
      <use xlink:href="#DejaVuSans-6e" x="1507.666016"/>
      <use xlink:href="#DejaVuSans-70" x="1571.044922"/>
      <use xlink:href="#DejaVuSans-75" x="1634.521484"/>
      <use xlink:href="#DejaVuSans-74" x="1697.900391"/>
      <use xlink:href="#DejaVuSans-29" x="1737.109375"/>
     </g>
    </g>
   </g>
   <g id="patch_3">
    <path d="M 54 384.48 
L 54 51.84 
" style="fill: none; stroke: #000000; stroke-width: 0.8; stroke-linejoin: miter; stroke-linecap: square"/>
   </g>
   <g id="patch_4">
    <path d="M 388.8 384.48 
L 388.8 51.84 
" style="fill: none; stroke: #000000; stroke-width: 0.8; stroke-linejoin: miter; stroke-linecap: square"/>
   </g>
   <g id="patch_5">
    <path d="M 54 384.48 
L 388.8 384.48 
" style="fill: none; stroke: #000000; stroke-width: 0.8; stroke-linejoin: miter; stroke-linecap: square"/>
   </g>
   <g id="patch_6">
    <path d="M 54 51.84 
L 388.8 51.84 
" style="fill: none; stroke: #000000; stroke-width: 0.8; stroke-linejoin: miter; stroke-linecap: square"/>
   </g>
  </g>
 </g>
 <defs>
  <clipPath id="p55daef09c4">
   <rect x="54" y="51.84" width="334.8" height="332.64"/>
  </clipPath>
 </defs>
</svg>
