<?xml version="1.0" encoding="utf-8" standalone="no"?>
<!DOCTYPE svg PUBLIC "-//W3C//DTD SVG 1.1//EN"
  "http://www.w3.org/Graphics/SVG/1.1/DTD/svg11.dtd">
<svg xmlns:xlink="http://www.w3.org/1999/xlink" width="460.8pt" height="345.6pt" viewBox="0 0 460.8 345.6" xmlns="http://www.w3.org/2000/svg" version="1.1">
 <metadata>
  <rdf:RDF xmlns:dc="http://purl.org/dc/elements/1.1/" xmlns:cc="http://creativecommons.org/ns#" xmlns:rdf="http://www.w3.org/1999/02/22-rdf-syntax-ns#">
   <cc:Work>
    <dc:type rdf:resource="http://purl.org/dc/dcmitype/StillImage"/>
    <dc:date>2024-04-01T16:16:54.984850</dc:date>
    <dc:format>image/svg+xml</dc:format>
    <dc:creator>
     <cc:Agent>
      <dc:title>Matplotlib v3.8.3, https://matplotlib.org/</dc:title>
     </cc:Agent>
    </dc:creator>
   </cc:Work>
  </rdf:RDF>
 </metadata>
 <defs>
  <style type="text/css">*{stroke-linejoin: round; stroke-linecap: butt}</style>
 </defs>
 <g id="figure_1">
  <g id="patch_1">
   <path d="M 0 345.6 
L 460.8 345.6 
L 460.8 0 
L 0 0 
L 0 345.6 
z
" style="fill: none"/>
  </g>
  <g id="axes_1">
   <g id="patch_2">
    <path d="M 57.6 276.48 
L 414.72 276.48 
L 414.72 41.472 
L 57.6 41.472 
L 57.6 276.48 
z
" style="fill: none"/>
   </g>
   <g id="PolyCollection_1">
    <path d="M 73.832727 265.797818 
L 73.832727 265.797818 
L 74.157707 265.797818 
L 74.482686 265.797818 
L 74.807666 265.797818 
L 75.132645 265.797818 
L 75.457625 265.797818 
L 75.782604 265.797818 
L 76.107584 265.797818 
L 76.432563 265.797818 
L 76.757543 265.797818 
L 77.082523 265.797818 
L 77.407502 265.797818 
L 77.732482 265.797818 
L 78.057461 265.797818 
L 78.382441 265.797818 
L 78.70742 265.797818 
L 79.0324 265.797818 
L 79.357379 265.797818 
L 79.682359 265.797818 
L 80.007338 265.797818 
L 80.332318 265.797818 
L 80.657297 265.797818 
L 80.982277 265.797818 
L 81.307256 265.797818 
L 81.632236 265.797818 
L 81.957215 265.797818 
L 82.282195 265.797818 
L 82.607174 265.797818 
L 82.932154 265.797818 
L 83.257133 265.797818 
L 83.582113 265.797818 
L 83.907093 265.797818 
L 84.232072 265.797818 
L 84.557052 265.797818 
L 84.882031 265.797818 
L 85.207011 265.797818 
L 85.53199 265.797818 
L 85.85697 265.797818 
L 86.181949 265.797818 
L 86.506929 265.797818 
L 86.831908 265.797818 
L 87.156888 265.797818 
L 87.481867 265.797818 
L 87.806847 265.797818 
L 88.131826 265.797818 
L 88.456806 265.797818 
L 88.781785 265.797818 
L 89.106765 265.797818 
L 89.431744 265.797818 
L 89.756724 265.797818 
L 90.081704 265.797818 
L 90.406683 265.797818 
L 90.731663 265.797818 
L 91.056642 265.797818 
L 91.381622 265.797818 
L 91.706601 265.797818 
L 92.031581 265.797818 
L 92.35656 265.797818 
L 92.68154 265.797818 
L 93.006519 265.797818 
L 93.331499 265.797818 
L 93.656478 265.797818 
L 93.981458 265.797818 
L 94.306437 265.797818 
L 94.631417 265.797818 
L 94.956396 265.797818 
L 95.281376 265.797818 
L 95.606355 265.797818 
L 95.931335 265.797818 
L 96.256314 265.797818 
L 96.581294 265.797818 
L 96.906274 265.797818 
L 97.231253 265.797818 
L 97.556233 265.797818 
L 97.881212 265.797818 
L 98.206192 265.797818 
L 98.531171 265.797818 
L 98.856151 265.797818 
L 99.18113 265.797818 
L 99.50611 265.797818 
L 99.831089 265.797818 
L 100.156069 265.797818 
L 100.481048 265.797818 
L 100.806028 265.797818 
L 101.131007 265.797818 
L 101.455987 265.797818 
L 101.780966 265.797818 
L 102.105946 265.797818 
L 102.430925 265.797818 
L 102.755905 265.797818 
L 103.080885 265.797818 
L 103.405864 265.797818 
L 103.730844 265.797818 
L 104.055823 265.797818 
L 104.380803 265.797818 
L 104.705782 265.797818 
L 105.030762 265.797818 
L 105.355741 265.797818 
L 105.680721 265.797818 
L 106.0057 265.797818 
L 106.33068 265.797818 
L 106.655659 265.797818 
L 106.980639 265.797818 
L 107.305618 265.797818 
L 107.630598 265.797818 
L 107.955577 265.797818 
L 108.280557 265.797818 
L 108.605536 265.797818 
L 108.930516 265.797818 
L 109.255495 265.797818 
L 109.580475 265.797818 
L 109.905455 265.797818 
L 110.230434 265.797818 
L 110.555414 265.797818 
L 110.880393 265.797818 
L 111.205373 265.797818 
L 111.530352 265.797818 
L 111.855332 265.797818 
L 112.180311 265.797818 
L 112.505291 265.797818 
L 112.83027 265.797818 
L 113.15525 265.797818 
L 113.480229 265.797818 
L 113.805209 265.797818 
L 114.130188 265.797818 
L 114.455168 265.797818 
L 114.780147 265.797818 
L 115.105127 265.797818 
L 115.430106 265.797818 
L 115.755086 265.797818 
L 116.080066 265.797818 
L 116.405045 265.797818 
L 116.730025 265.797818 
L 117.055004 265.797818 
L 117.379984 265.797818 
L 117.704963 265.797818 
L 118.029943 265.797818 
L 118.354922 265.797818 
L 118.679902 265.797818 
L 119.004881 265.797818 
L 119.329861 265.797818 
L 119.65484 265.797818 
L 119.97982 265.797818 
L 120.304799 265.797818 
L 120.629779 265.797818 
L 120.954758 265.797818 
L 121.279738 265.797818 
L 121.604717 265.797818 
L 121.929697 265.797818 
L 122.254676 265.797818 
L 122.579656 265.797818 
L 122.904636 265.797818 
L 123.229615 265.797818 
L 123.554595 265.797818 
L 123.879574 265.797818 
L 124.204554 265.797818 
L 124.529533 265.797818 
L 124.854513 265.797818 
L 125.179492 265.797818 
L 125.504472 265.797818 
L 125.829451 265.797818 
L 126.154431 265.797818 
L 126.47941 265.797818 
L 126.80439 265.797818 
L 127.129369 265.797818 
L 127.454349 265.797818 
L 127.779328 265.797818 
L 128.104308 265.797818 
L 128.429287 265.797818 
L 128.754267 265.797818 
L 129.079247 265.797818 
L 129.404226 265.797818 
L 129.729206 265.797818 
L 130.054185 265.797818 
L 130.379165 265.797818 
L 130.704144 265.797818 
L 131.029124 265.797818 
L 131.354103 265.797818 
L 131.679083 265.797818 
L 132.004062 265.797818 
L 132.329042 265.797818 
L 132.654021 265.797818 
L 132.979001 265.797818 
L 133.30398 265.797818 
L 133.62896 265.797818 
L 133.953939 265.797818 
L 134.278919 265.797818 
L 134.603898 265.797818 
L 134.928878 265.797818 
L 135.253857 265.797818 
L 135.578837 265.797818 
L 135.903817 265.797818 
L 136.228796 265.797818 
L 136.553776 265.797818 
L 136.878755 265.797818 
L 137.203735 265.797818 
L 137.528714 265.797818 
L 137.853694 265.797818 
L 138.178673 265.797818 
L 138.503653 265.797818 
L 138.828632 265.797818 
L 139.153612 265.797818 
L 139.478591 265.797818 
L 139.803571 265.797818 
L 140.12855 265.797818 
L 140.45353 265.797818 
L 140.778509 265.797818 
L 141.103489 265.797818 
L 141.428468 265.797818 
L 141.753448 265.797818 
L 142.078428 265.797818 
L 142.403407 265.797818 
L 142.728387 265.797818 
L 143.053366 265.797818 
L 143.378346 265.797818 
L 143.703325 265.797818 
L 144.028305 265.797818 
L 144.353284 265.797818 
L 144.678264 265.797818 
L 145.003243 265.797818 
L 145.328223 265.797818 
L 145.653202 265.797818 
L 145.978182 265.797818 
L 146.303161 265.797818 
L 146.628141 265.797818 
L 146.95312 265.797818 
L 147.2781 265.797818 
L 147.603079 265.797818 
L 147.928059 265.797818 
L 148.253038 265.797818 
L 148.578018 265.797818 
L 148.902998 265.797818 
L 149.227977 265.797818 
L 149.552957 265.797818 
L 149.877936 265.797818 
L 150.202916 265.797818 
L 150.527895 265.797818 
L 150.852875 265.797818 
L 151.177854 265.797818 
L 151.502834 265.797818 
L 151.827813 265.797818 
L 152.152793 265.797818 
L 152.477772 265.797818 
L 152.802752 265.797818 
L 153.127731 265.797818 
L 153.452711 265.797818 
L 153.77769 265.797818 
L 154.10267 265.797818 
L 154.427649 265.797818 
L 154.752629 265.797818 
L 155.077609 265.797818 
L 155.402588 265.797818 
L 155.727568 265.797818 
L 156.052547 265.797818 
L 156.377527 265.797818 
L 156.702506 265.797818 
L 157.027486 265.797818 
L 157.352465 265.797818 
L 157.677445 265.797818 
L 158.002424 265.797818 
L 158.327404 265.797818 
L 158.652383 265.797818 
L 158.977363 265.797818 
L 159.302342 265.797818 
L 159.627322 265.797818 
L 159.952301 265.797818 
L 160.277281 265.797818 
L 160.60226 265.797818 
L 160.92724 265.797818 
L 161.252219 265.797818 
L 161.577199 265.797818 
L 161.902179 265.797818 
L 162.227158 265.797818 
L 162.552138 265.797818 
L 162.877117 265.797817 
L 163.202097 265.797817 
L 163.527076 265.797817 
L 163.852056 265.797817 
L 164.177035 265.797817 
L 164.502015 265.797817 
L 164.826994 265.797817 
L 165.151974 265.797817 
L 165.476953 265.797817 
L 165.801933 265.797817 
L 166.126912 265.797816 
L 166.451892 265.797816 
L 166.776871 265.797816 
L 167.101851 265.797816 
L 167.42683 265.797815 
L 167.75181 265.797815 
L 168.07679 265.797815 
L 168.401769 265.797815 
L 168.726749 265.797814 
L 169.051728 265.797814 
L 169.376708 265.797813 
L 169.701687 265.797813 
L 170.026667 265.797813 
L 170.351646 265.797812 
L 170.676626 265.797811 
L 171.001605 265.797811 
L 171.326585 265.79781 
L 171.651564 265.797809 
L 171.976544 265.797808 
L 172.301523 265.797808 
L 172.626503 265.797807 
L 172.951482 265.797805 
L 173.276462 265.797804 
L 173.601441 265.797803 
L 173.926421 265.797802 
L 174.2514 265.7978 
L 174.57638 265.797798 
L 174.90136 265.797796 
L 175.226339 265.797794 
L 175.551319 265.797792 
L 175.876298 265.79779 
L 176.201278 265.797787 
L 176.526257 265.797785 
L 176.851237 265.797781 
L 177.176216 265.797778 
L 177.501196 265.797775 
L 177.826175 265.797771 
L 178.151155 265.797766 
L 178.476134 265.797762 
L 178.801114 265.797757 
L 179.126093 265.797751 
L 179.451073 265.797745 
L 179.776052 265.797739 
L 180.101032 265.797732 
L 180.426011 265.797724 
L 180.750991 265.797716 
L 181.075971 265.797707 
L 181.40095 265.797698 
L 181.72593 265.797687 
L 182.050909 265.797676 
L 182.375889 265.797664 
L 182.700868 265.79765 
L 183.025848 265.797636 
L 183.350827 265.79762 
L 183.675807 265.797604 
L 184.000786 265.797585 
L 184.325766 265.797566 
L 184.650745 265.797545 
L 184.975725 265.797522 
L 185.300704 265.797497 
L 185.625684 265.79747 
L 185.950663 265.797441 
L 186.275643 265.797409 
L 186.600622 265.797376 
L 186.925602 265.797339 
L 187.250581 265.7973 
L 187.575561 265.797257 
L 187.900541 265.797211 
L 188.22552 265.797162 
L 188.5505 265.797109 
L 188.875479 265.797051 
L 189.200459 265.79699 
L 189.525438 265.796923 
L 189.850418 265.796851 
L 190.175397 265.796774 
L 190.500377 265.796691 
L 190.825356 265.796601 
L 191.150336 265.796505 
L 191.475315 265.796401 
L 191.800295 265.79629 
L 192.125274 265.79617 
L 192.450254 265.796042 
L 192.775233 265.795904 
L 193.100213 265.795755 
L 193.425192 265.795596 
L 193.750172 265.795424 
L 194.075152 265.795241 
L 194.400131 265.795044 
L 194.725111 265.794832 
L 195.05009 265.794605 
L 195.37507 265.794362 
L 195.700049 265.794101 
L 196.025029 265.793821 
L 196.350008 265.793522 
L 196.674988 265.793201 
L 196.999967 265.792857 
L 197.324947 265.792489 
L 197.649926 265.792095 
L 197.974906 265.791674 
L 198.299885 265.791223 
L 198.624865 265.79074 
L 198.949844 265.790224 
L 199.274824 265.789673 
L 199.599803 265.789083 
L 199.924783 265.788453 
L 200.249762 265.78778 
L 200.574742 265.787062 
L 200.899722 265.786294 
L 201.224701 265.785475 
L 201.549681 265.784601 
L 201.87466 265.783669 
L 202.19964 265.782674 
L 202.524619 265.781613 
L 202.849599 265.780482 
L 203.174578 265.779277 
L 203.499558 265.777992 
L 203.824537 265.776624 
L 204.149517 265.775166 
L 204.474496 265.773615 
L 204.799476 265.771963 
L 205.124455 265.770205 
L 205.449435 265.768335 
L 205.774414 265.766345 
L 206.099394 265.76423 
L 206.424373 265.76198 
L 206.749353 265.75959 
L 207.074333 265.75705 
L 207.399312 265.754351 
L 207.724292 265.751485 
L 208.049271 265.748442 
L 208.374251 265.745212 
L 208.69923 265.741784 
L 209.02421 265.738147 
L 209.349189 265.734289 
L 209.674169 265.730198 
L 209.999148 265.725861 
L 210.324128 265.721264 
L 210.649107 265.716393 
L 210.974087 265.711233 
L 211.299066 265.705768 
L 211.624046 265.699981 
L 211.949025 265.693857 
L 212.274005 265.687375 
L 212.598984 265.680517 
L 212.923964 265.673263 
L 213.248943 265.665593 
L 213.573923 265.657484 
L 213.898903 265.648914 
L 214.223882 265.639859 
L 214.548862 265.630293 
L 214.873841 265.62019 
L 215.198821 265.609524 
L 215.5238 265.598265 
L 215.84878 265.586384 
L 216.173759 265.573849 
L 216.498739 265.560628 
L 216.823718 265.546688 
L 217.148698 265.531992 
L 217.473677 265.516504 
L 217.798657 265.500185 
L 218.123636 265.482995 
L 218.448616 265.464893 
L 218.773595 265.445834 
L 219.098575 265.425774 
L 219.423554 265.404665 
L 219.748534 265.382459 
L 220.073514 265.359104 
L 220.398493 265.334548 
L 220.723473 265.308735 
L 221.048452 265.281607 
L 221.373432 265.253106 
L 221.698411 265.22317 
L 222.023391 265.191735 
L 222.34837 265.158734 
L 222.67335 265.124098 
L 222.998329 265.087756 
L 223.323309 265.049634 
L 223.648288 265.009655 
L 223.973268 264.967739 
L 224.298247 264.923805 
L 224.623227 264.877767 
L 224.948206 264.829537 
L 225.273186 264.779024 
L 225.598165 264.726133 
L 225.923145 264.670769 
L 226.248124 264.612829 
L 226.573104 264.552211 
L 226.898084 264.488807 
L 227.223063 264.422507 
L 227.548043 264.353197 
L 227.873022 264.280758 
L 228.198002 264.205071 
L 228.522981 264.126011 
L 228.847961 264.043448 
L 229.17294 263.957251 
L 229.49792 263.867284 
L 229.822899 263.773407 
L 230.147879 263.675476 
L 230.472858 263.573342 
L 230.797838 263.466856 
L 231.122817 263.355859 
L 231.447797 263.240193 
L 231.772776 263.119692 
L 232.097756 262.99419 
L 232.422735 262.863512 
L 232.747715 262.727483 
L 233.072695 262.585922 
L 233.397674 262.438642 
L 233.722654 262.285454 
L 234.047633 262.126165 
L 234.372613 261.960575 
L 234.697592 261.788483 
L 235.022572 261.609681 
L 235.347551 261.423958 
L 235.672531 261.231099 
L 235.99751 261.030884 
L 236.32249 260.823088 
L 236.647469 260.607484 
L 236.972449 260.383839 
L 237.297428 260.151917 
L 237.622408 259.911478 
L 237.947387 259.662276 
L 238.272367 259.404063 
L 238.597346 259.136587 
L 238.922326 258.859592 
L 239.247305 258.572818 
L 239.572285 258.276002 
L 239.897265 257.968877 
L 240.222244 257.651174 
L 240.547224 257.322618 
L 240.872203 256.982934 
L 241.197183 256.631842 
L 241.522162 256.26906 
L 241.847142 255.894305 
L 242.172121 255.507288 
L 242.497101 255.10772 
L 242.82208 254.695311 
L 243.14706 254.269768 
L 243.472039 253.830795 
L 243.797019 253.378096 
L 244.121998 252.911376 
L 244.446978 252.430334 
L 244.771957 251.934674 
L 245.096937 251.424095 
L 245.421916 250.898299 
L 245.746896 250.356986 
L 246.071876 249.799859 
L 246.396855 249.22662 
L 246.721835 248.636972 
L 247.046814 248.03062 
L 247.371794 247.407272 
L 247.696773 246.766635 
L 248.021753 246.108423 
L 248.346732 245.432349 
L 248.671712 244.738131 
L 248.996691 244.02549 
L 249.321671 243.294152 
L 249.64665 242.543847 
L 249.97163 241.774309 
L 250.296609 240.98528 
L 250.621589 240.176504 
L 250.946568 239.347733 
L 251.271548 238.498727 
L 251.596527 237.629252 
L 251.921507 236.739079 
L 252.246486 235.827991 
L 252.571466 234.895778 
L 252.896446 233.942237 
L 253.221425 232.967178 
L 253.546405 231.970418 
L 253.871384 230.951784 
L 254.196364 229.911117 
L 254.521343 228.848267 
L 254.846323 227.763096 
L 255.171302 226.655478 
L 255.496282 225.525302 
L 255.821261 224.372466 
L 256.146241 223.196887 
L 256.47122 221.998491 
L 256.7962 220.777223 
L 257.121179 219.533041 
L 257.446159 218.265918 
L 257.771138 216.975846 
L 258.096118 215.662829 
L 258.421097 214.326893 
L 258.746077 212.968077 
L 259.071057 211.586442 
L 259.396036 210.182063 
L 259.721016 208.755036 
L 260.045995 207.305476 
L 260.370975 205.833517 
L 260.695954 204.339313 
L 261.020934 202.823039 
L 261.345913 201.284887 
L 261.670893 199.725074 
L 261.995872 198.143836 
L 262.320852 196.54143 
L 262.645831 194.918136 
L 262.970811 193.274254 
L 263.29579 191.610107 
L 263.62077 189.926042 
L 263.945749 188.222426 
L 264.270729 186.499648 
L 264.595708 184.758122 
L 264.920688 182.998285 
L 265.245667 181.220594 
L 265.570647 179.425531 
L 265.895627 177.613601 
L 266.220606 175.785332 
L 266.545586 173.941274 
L 266.870565 172.082 
L 267.195545 170.208107 
L 267.520524 168.320213 
L 267.845504 166.418959 
L 268.170483 164.50501 
L 268.495463 162.579051 
L 268.820442 160.64179 
L 269.145422 158.693955 
L 269.470401 156.736298 
L 269.795381 154.76959 
L 270.12036 152.794622 
L 270.44534 150.812208 
L 270.770319 148.823179 
L 271.095299 146.828387 
L 271.420278 144.828702 
L 271.745258 142.825013 
L 272.070238 140.818225 
L 272.395217 138.809262 
L 272.720197 136.799065 
L 273.045176 134.788588 
L 273.370156 132.778803 
L 273.695135 130.770695 
L 274.020115 128.765265 
L 274.345094 126.763523 
L 274.670074 124.766496 
L 274.995053 122.775218 
L 275.320033 120.790736 
L 275.645012 118.814107 
L 275.969992 116.846395 
L 276.294971 114.888674 
L 276.619951 112.942024 
L 276.94493 111.00753 
L 277.26991 109.086284 
L 277.594889 107.17938 
L 277.919869 105.287917 
L 278.244848 103.412995 
L 278.569828 101.555715 
L 278.894808 99.717178 
L 279.219787 97.898483 
L 279.544767 96.100729 
L 279.869746 94.32501 
L 280.194726 92.572415 
L 280.519705 90.844029 
L 280.844685 89.14093 
L 281.169664 87.464188 
L 281.494644 85.814863 
L 281.819623 84.194007 
L 282.144603 82.602661 
L 282.469582 81.041853 
L 282.794562 79.512596 
L 283.119541 78.015892 
L 283.444521 76.552725 
L 283.7695 75.124064 
L 284.09448 73.73086 
L 284.419459 72.374045 
L 284.744439 71.054531 
L 285.069419 69.773211 
L 285.394398 68.530954 
L 285.719378 67.328608 
L 286.044357 66.166997 
L 286.369337 65.046921 
L 286.694316 63.969151 
L 287.019296 62.934438 
L 287.344275 61.943499 
L 287.669255 60.997028 
L 287.994234 60.095688 
L 288.319214 59.240111 
L 288.644193 58.430902 
L 288.969173 57.668632 
L 289.294152 56.95384 
L 289.619132 56.287036 
L 289.944111 55.668694 
L 290.269091 55.099255 
L 290.59407 54.579125 
L 290.91905 54.108678 
L 291.244029 53.68825 
L 291.569009 53.318144 
L 291.893989 52.998626 
L 292.218968 52.729926 
L 292.543948 52.512237 
L 292.868927 52.345717 
L 293.193907 52.230485 
L 293.518886 52.166624 
L 293.843866 52.154182 
L 294.168845 52.193166 
L 294.493825 52.283549 
L 294.818804 52.425265 
L 295.143784 52.618212 
L 295.468763 52.862252 
L 295.793743 53.157207 
L 296.118722 53.502866 
L 296.443702 53.89898 
L 296.768681 54.345264 
L 297.093661 54.841398 
L 297.41864 55.387026 
L 297.74362 55.981759 
L 298.0686 56.625171 
L 298.393579 57.316804 
L 298.718559 58.056166 
L 299.043538 58.842732 
L 299.368518 59.675947 
L 299.693497 60.55522 
L 300.018477 61.479935 
L 300.343456 62.449442 
L 300.668436 63.463062 
L 300.993415 64.52009 
L 301.318395 65.61979 
L 301.643374 66.761402 
L 301.968354 67.944139 
L 302.293333 69.167188 
L 302.618313 70.429714 
L 302.943292 71.730857 
L 303.268272 73.069736 
L 303.593251 74.445448 
L 303.918231 75.857069 
L 304.24321 77.30366 
L 304.56819 78.784258 
L 304.89317 80.297888 
L 305.218149 81.843555 
L 305.543129 83.420253 
L 305.868108 85.026959 
L 306.193088 86.662638 
L 306.518067 88.326246 
L 306.843047 90.016725 
L 307.168026 91.73301 
L 307.493006 93.474025 
L 307.817985 95.238691 
L 308.142965 97.02592 
L 308.467944 98.834619 
L 308.792924 100.663692 
L 309.117903 102.51204 
L 309.442883 104.378563 
L 309.767862 106.26216 
L 310.092842 108.16173 
L 310.417821 110.076173 
L 310.742801 112.004393 
L 311.067781 113.945297 
L 311.39276 115.897797 
L 311.71774 117.860808 
L 312.042719 119.833256 
L 312.367699 121.814071 
L 312.692678 123.802192 
L 313.017658 125.796567 
L 313.342637 127.796157 
L 313.667617 129.799929 
L 313.992596 131.806867 
L 314.317576 133.815964 
L 314.642555 135.826228 
L 314.967535 137.836681 
L 315.292514 139.84636 
L 315.617494 141.854317 
L 315.942473 143.85962 
L 316.267453 145.861354 
L 316.592432 147.858624 
L 316.917412 149.850549 
L 317.242391 151.836268 
L 317.567371 153.814942 
L 317.892351 155.785747 
L 318.21733 157.747881 
L 318.54231 159.700564 
L 318.867289 161.643033 
L 319.192269 163.574551 
L 319.517248 165.494399 
L 319.842228 167.401879 
L 320.167207 169.296319 
L 320.492187 171.177065 
L 320.817166 173.043489 
L 321.142146 174.894983 
L 321.467125 176.730962 
L 321.792105 178.550865 
L 322.117084 180.354154 
L 322.442064 182.140312 
L 322.767043 183.908847 
L 323.092023 185.659289 
L 323.417002 187.391191 
L 323.741982 189.104129 
L 324.066962 190.797702 
L 324.391941 192.471531 
L 324.716921 194.12526 
L 325.0419 195.758555 
L 325.36688 197.371105 
L 325.691859 198.962619 
L 326.016839 200.53283 
L 326.341818 202.081491 
L 326.666798 203.608377 
L 326.991777 205.113283 
L 327.316757 206.596026 
L 327.641736 208.056442 
L 327.966716 209.494387 
L 328.291695 210.909738 
L 328.616675 212.302389 
L 328.941654 213.672255 
L 329.266634 215.019268 
L 329.591613 216.343379 
L 329.916593 217.644555 
L 330.241572 218.922783 
L 330.566552 220.178063 
L 330.891532 221.410414 
L 331.216511 222.619871 
L 331.541491 223.806482 
L 331.86647 224.970313 
L 332.19145 226.111442 
L 332.516429 227.229962 
L 332.841409 228.32598 
L 333.166388 229.399614 
L 333.491368 230.450997 
L 333.816347 231.480272 
L 334.141327 232.487595 
L 334.466306 233.473133 
L 334.791286 234.437063 
L 335.116265 235.379571 
L 335.441245 236.300855 
L 335.766224 237.201121 
L 336.091204 238.080584 
L 336.416183 238.939465 
L 336.741163 239.777998 
L 337.066143 240.596418 
L 337.391122 241.394971 
L 337.716102 242.173908 
L 338.041081 242.933486 
L 338.366061 243.673968 
L 338.69104 244.395622 
L 339.01602 245.09872 
L 339.340999 245.783538 
L 339.665979 246.450358 
L 339.990958 247.099463 
L 340.315938 247.73114 
L 340.640917 248.34568 
L 340.965897 248.943374 
L 341.290876 249.524516 
L 341.615856 250.089402 
L 341.940835 250.638329 
L 342.265815 251.171596 
L 342.590794 251.689501 
L 342.915774 252.192343 
L 343.240753 252.68042 
L 343.565733 253.154033 
L 343.890713 253.613479 
L 344.215692 254.059057 
L 344.540672 254.491061 
L 344.865651 254.909789 
L 345.190631 255.315534 
L 345.51561 255.708587 
L 345.84059 256.08924 
L 346.165569 256.45778 
L 346.490549 256.814492 
L 346.815528 257.159661 
L 347.140508 257.493567 
L 347.465487 257.816488 
L 347.790467 258.128697 
L 348.115446 258.430468 
L 348.440426 258.722068 
L 348.765405 259.003762 
L 349.090385 259.275811 
L 349.415364 259.538475 
L 349.740344 259.792005 
L 350.065324 260.036654 
L 350.390303 260.272667 
L 350.715283 260.500287 
L 351.040262 260.719753 
L 351.365242 260.931298 
L 351.690221 261.135153 
L 352.015201 261.331544 
L 352.34018 261.520692 
L 352.66516 261.702817 
L 352.990139 261.878129 
L 353.315119 262.04684 
L 353.640098 262.209153 
L 353.965078 262.365268 
L 354.290057 262.515383 
L 354.615037 262.659688 
L 354.940016 262.798371 
L 355.264996 262.931616 
L 355.589975 263.0596 
L 355.914955 263.1825 
L 356.239934 263.300484 
L 356.564914 263.41372 
L 356.889894 263.52237 
L 357.214873 263.62659 
L 357.539853 263.726536 
L 357.864832 263.822357 
L 358.189812 263.914198 
L 358.514791 264.002202 
L 358.839771 264.086507 
L 359.16475 264.167245 
L 359.48973 264.244549 
L 359.814709 264.318544 
L 360.139689 264.389353 
L 360.464668 264.457095 
L 360.789648 264.521886 
L 361.114627 264.583839 
L 361.439607 264.643061 
L 361.764586 264.699659 
L 362.089566 264.753734 
L 362.414545 264.805386 
L 362.739525 264.854709 
L 363.064505 264.901796 
L 363.389484 264.946738 
L 363.714464 264.98962 
L 364.039443 265.030526 
L 364.364423 265.069537 
L 364.689402 265.106731 
L 365.014382 265.142183 
L 365.339361 265.175966 
L 365.664341 265.208151 
L 365.98932 265.238804 
L 366.3143 265.267992 
L 366.639279 265.295776 
L 366.964259 265.322218 
L 367.289238 265.347376 
L 367.614218 265.371305 
L 367.939197 265.394061 
L 368.264177 265.415694 
L 368.589156 265.436256 
L 368.914136 265.455793 
L 369.239115 265.474352 
L 369.564095 265.491978 
L 369.889075 265.508714 
L 370.214054 265.524599 
L 370.539034 265.539673 
L 370.864013 265.553975 
L 371.188993 265.56754 
L 371.513972 265.580402 
L 371.838952 265.592595 
L 372.163931 265.604152 
L 372.488911 265.615101 
L 372.81389 265.625473 
L 373.13887 265.635295 
L 373.463849 265.644595 
L 373.788829 265.653397 
L 374.113808 265.661726 
L 374.438788 265.669605 
L 374.763767 265.677058 
L 375.088747 265.684105 
L 375.413726 265.690766 
L 375.738706 265.697061 
L 376.063686 265.703009 
L 376.388665 265.708627 
L 376.713645 265.713933 
L 377.038624 265.718942 
L 377.363604 265.72367 
L 377.688583 265.728131 
L 378.013563 265.732339 
L 378.338542 265.736308 
L 378.663522 265.740051 
L 378.988501 265.743579 
L 379.313481 265.746903 
L 379.63846 265.750036 
L 379.96344 265.752986 
L 380.288419 265.755764 
L 380.613399 265.75838 
L 380.938378 265.760842 
L 381.263358 265.763158 
L 381.588337 265.765338 
L 381.913317 265.767387 
L 382.238296 265.769314 
L 382.563276 265.771126 
L 382.888256 265.772828 
L 383.213235 265.774428 
L 383.538215 265.77593 
L 383.863194 265.777341 
L 384.188174 265.778665 
L 384.513153 265.779908 
L 384.838133 265.781075 
L 385.163112 265.782169 
L 385.488092 265.783195 
L 385.813071 265.784157 
L 386.138051 265.785059 
L 386.46303 265.785905 
L 386.78801 265.786697 
L 387.112989 265.787439 
L 387.437969 265.788133 
L 387.762948 265.788784 
L 388.087928 265.789392 
L 388.412907 265.789962 
L 388.737887 265.790495 
L 389.062867 265.790993 
L 389.387846 265.791459 
L 389.712826 265.791895 
L 390.037805 265.792302 
L 390.362785 265.792682 
L 390.687764 265.793037 
L 391.012744 265.793369 
L 391.337723 265.793679 
L 391.662703 265.793968 
L 391.987682 265.794238 
L 392.312662 265.794489 
L 392.637641 265.794724 
L 392.962621 265.794943 
L 393.2876 265.795147 
L 393.61258 265.795337 
L 393.937559 265.795514 
L 394.262539 265.795679 
L 394.587518 265.795833 
L 394.912498 265.795976 
L 395.237477 265.796109 
L 395.562457 265.796233 
L 395.887437 265.796349 
L 396.212416 265.796456 
L 396.537396 265.796556 
L 396.862375 265.796648 
L 397.187355 265.796734 
L 397.512334 265.796814 
L 397.837314 265.796889 
L 398.162293 265.796958 
L 398.487273 265.797022 
L 398.487273 265.797818 
L 398.487273 265.797818 
L 398.162293 265.797818 
L 397.837314 265.797818 
L 397.512334 265.797818 
L 397.187355 265.797818 
L 396.862375 265.797818 
L 396.537396 265.797818 
L 396.212416 265.797818 
L 395.887437 265.797818 
L 395.562457 265.797818 
L 395.237477 265.797818 
L 394.912498 265.797818 
L 394.587518 265.797818 
L 394.262539 265.797818 
L 393.937559 265.797818 
L 393.61258 265.797818 
L 393.2876 265.797818 
L 392.962621 265.797818 
L 392.637641 265.797818 
L 392.312662 265.797818 
L 391.987682 265.797818 
L 391.662703 265.797818 
L 391.337723 265.797818 
L 391.012744 265.797818 
L 390.687764 265.797818 
L 390.362785 265.797818 
L 390.037805 265.797818 
L 389.712826 265.797818 
L 389.387846 265.797818 
L 389.062867 265.797818 
L 388.737887 265.797818 
L 388.412907 265.797818 
L 388.087928 265.797818 
L 387.762948 265.797818 
L 387.437969 265.797818 
L 387.112989 265.797818 
L 386.78801 265.797818 
L 386.46303 265.797818 
L 386.138051 265.797818 
L 385.813071 265.797818 
L 385.488092 265.797818 
L 385.163112 265.797818 
L 384.838133 265.797818 
L 384.513153 265.797818 
L 384.188174 265.797818 
L 383.863194 265.797818 
L 383.538215 265.797818 
L 383.213235 265.797818 
L 382.888256 265.797818 
L 382.563276 265.797818 
L 382.238296 265.797818 
L 381.913317 265.797818 
L 381.588337 265.797818 
L 381.263358 265.797818 
L 380.938378 265.797818 
L 380.613399 265.797818 
L 380.288419 265.797818 
L 379.96344 265.797818 
L 379.63846 265.797818 
L 379.313481 265.797818 
L 378.988501 265.797818 
L 378.663522 265.797818 
L 378.338542 265.797818 
L 378.013563 265.797818 
L 377.688583 265.797818 
L 377.363604 265.797818 
L 377.038624 265.797818 
L 376.713645 265.797818 
L 376.388665 265.797818 
L 376.063686 265.797818 
L 375.738706 265.797818 
L 375.413726 265.797818 
L 375.088747 265.797818 
L 374.763767 265.797818 
L 374.438788 265.797818 
L 374.113808 265.797818 
L 373.788829 265.797818 
L 373.463849 265.797818 
L 373.13887 265.797818 
L 372.81389 265.797818 
L 372.488911 265.797818 
L 372.163931 265.797818 
L 371.838952 265.797818 
L 371.513972 265.797818 
L 371.188993 265.797818 
L 370.864013 265.797818 
L 370.539034 265.797818 
L 370.214054 265.797818 
L 369.889075 265.797818 
L 369.564095 265.797818 
L 369.239115 265.797818 
L 368.914136 265.797818 
L 368.589156 265.797818 
L 368.264177 265.797818 
L 367.939197 265.797818 
L 367.614218 265.797818 
L 367.289238 265.797818 
L 366.964259 265.797818 
L 366.639279 265.797818 
L 366.3143 265.797818 
L 365.98932 265.797818 
L 365.664341 265.797818 
L 365.339361 265.797818 
L 365.014382 265.797818 
L 364.689402 265.797818 
L 364.364423 265.797818 
L 364.039443 265.797818 
L 363.714464 265.797818 
L 363.389484 265.797818 
L 363.064505 265.797818 
L 362.739525 265.797818 
L 362.414545 265.797818 
L 362.089566 265.797818 
L 361.764586 265.797818 
L 361.439607 265.797818 
L 361.114627 265.797818 
L 360.789648 265.797818 
L 360.464668 265.797818 
L 360.139689 265.797818 
L 359.814709 265.797818 
L 359.48973 265.797818 
L 359.16475 265.797818 
L 358.839771 265.797818 
L 358.514791 265.797818 
L 358.189812 265.797818 
L 357.864832 265.797818 
L 357.539853 265.797818 
L 357.214873 265.797818 
L 356.889894 265.797818 
L 356.564914 265.797818 
L 356.239934 265.797818 
L 355.914955 265.797818 
L 355.589975 265.797818 
L 355.264996 265.797818 
L 354.940016 265.797818 
L 354.615037 265.797818 
L 354.290057 265.797818 
L 353.965078 265.797818 
L 353.640098 265.797818 
L 353.315119 265.797818 
L 352.990139 265.797818 
L 352.66516 265.797818 
L 352.34018 265.797818 
L 352.015201 265.797818 
L 351.690221 265.797818 
L 351.365242 265.797818 
L 351.040262 265.797818 
L 350.715283 265.797818 
L 350.390303 265.797818 
L 350.065324 265.797818 
L 349.740344 265.797818 
L 349.415364 265.797818 
L 349.090385 265.797818 
L 348.765405 265.797818 
L 348.440426 265.797818 
L 348.115446 265.797818 
L 347.790467 265.797818 
L 347.465487 265.797818 
L 347.140508 265.797818 
L 346.815528 265.797818 
L 346.490549 265.797818 
L 346.165569 265.797818 
L 345.84059 265.797818 
L 345.51561 265.797818 
L 345.190631 265.797818 
L 344.865651 265.797818 
L 344.540672 265.797818 
L 344.215692 265.797818 
L 343.890713 265.797818 
L 343.565733 265.797818 
L 343.240753 265.797818 
L 342.915774 265.797818 
L 342.590794 265.797818 
L 342.265815 265.797818 
L 341.940835 265.797818 
L 341.615856 265.797818 
L 341.290876 265.797818 
L 340.965897 265.797818 
L 340.640917 265.797818 
L 340.315938 265.797818 
L 339.990958 265.797818 
L 339.665979 265.797818 
L 339.340999 265.797818 
L 339.01602 265.797818 
L 338.69104 265.797818 
L 338.366061 265.797818 
L 338.041081 265.797818 
L 337.716102 265.797818 
L 337.391122 265.797818 
L 337.066143 265.797818 
L 336.741163 265.797818 
L 336.416183 265.797818 
L 336.091204 265.797818 
L 335.766224 265.797818 
L 335.441245 265.797818 
L 335.116265 265.797818 
L 334.791286 265.797818 
L 334.466306 265.797818 
L 334.141327 265.797818 
L 333.816347 265.797818 
L 333.491368 265.797818 
L 333.166388 265.797818 
L 332.841409 265.797818 
L 332.516429 265.797818 
L 332.19145 265.797818 
L 331.86647 265.797818 
L 331.541491 265.797818 
L 331.216511 265.797818 
L 330.891532 265.797818 
L 330.566552 265.797818 
L 330.241572 265.797818 
L 329.916593 265.797818 
L 329.591613 265.797818 
L 329.266634 265.797818 
L 328.941654 265.797818 
L 328.616675 265.797818 
L 328.291695 265.797818 
L 327.966716 265.797818 
L 327.641736 265.797818 
L 327.316757 265.797818 
L 326.991777 265.797818 
L 326.666798 265.797818 
L 326.341818 265.797818 
L 326.016839 265.797818 
L 325.691859 265.797818 
L 325.36688 265.797818 
L 325.0419 265.797818 
L 324.716921 265.797818 
L 324.391941 265.797818 
L 324.066962 265.797818 
L 323.741982 265.797818 
L 323.417002 265.797818 
L 323.092023 265.797818 
L 322.767043 265.797818 
L 322.442064 265.797818 
L 322.117084 265.797818 
L 321.792105 265.797818 
L 321.467125 265.797818 
L 321.142146 265.797818 
L 320.817166 265.797818 
L 320.492187 265.797818 
L 320.167207 265.797818 
L 319.842228 265.797818 
L 319.517248 265.797818 
L 319.192269 265.797818 
L 318.867289 265.797818 
L 318.54231 265.797818 
L 318.21733 265.797818 
L 317.892351 265.797818 
L 317.567371 265.797818 
L 317.242391 265.797818 
L 316.917412 265.797818 
L 316.592432 265.797818 
L 316.267453 265.797818 
L 315.942473 265.797818 
L 315.617494 265.797818 
L 315.292514 265.797818 
L 314.967535 265.797818 
L 314.642555 265.797818 
L 314.317576 265.797818 
L 313.992596 265.797818 
L 313.667617 265.797818 
L 313.342637 265.797818 
L 313.017658 265.797818 
L 312.692678 265.797818 
L 312.367699 265.797818 
L 312.042719 265.797818 
L 311.71774 265.797818 
L 311.39276 265.797818 
L 311.067781 265.797818 
L 310.742801 265.797818 
L 310.417821 265.797818 
L 310.092842 265.797818 
L 309.767862 265.797818 
L 309.442883 265.797818 
L 309.117903 265.797818 
L 308.792924 265.797818 
L 308.467944 265.797818 
L 308.142965 265.797818 
L 307.817985 265.797818 
L 307.493006 265.797818 
L 307.168026 265.797818 
L 306.843047 265.797818 
L 306.518067 265.797818 
L 306.193088 265.797818 
L 305.868108 265.797818 
L 305.543129 265.797818 
L 305.218149 265.797818 
L 304.89317 265.797818 
L 304.56819 265.797818 
L 304.24321 265.797818 
L 303.918231 265.797818 
L 303.593251 265.797818 
L 303.268272 265.797818 
L 302.943292 265.797818 
L 302.618313 265.797818 
L 302.293333 265.797818 
L 301.968354 265.797818 
L 301.643374 265.797818 
L 301.318395 265.797818 
L 300.993415 265.797818 
L 300.668436 265.797818 
L 300.343456 265.797818 
L 300.018477 265.797818 
L 299.693497 265.797818 
L 299.368518 265.797818 
L 299.043538 265.797818 
L 298.718559 265.797818 
L 298.393579 265.797818 
L 298.0686 265.797818 
L 297.74362 265.797818 
L 297.41864 265.797818 
L 297.093661 265.797818 
L 296.768681 265.797818 
L 296.443702 265.797818 
L 296.118722 265.797818 
L 295.793743 265.797818 
L 295.468763 265.797818 
L 295.143784 265.797818 
L 294.818804 265.797818 
L 294.493825 265.797818 
L 294.168845 265.797818 
L 293.843866 265.797818 
L 293.518886 265.797818 
L 293.193907 265.797818 
L 292.868927 265.797818 
L 292.543948 265.797818 
L 292.218968 265.797818 
L 291.893989 265.797818 
L 291.569009 265.797818 
L 291.244029 265.797818 
L 290.91905 265.797818 
L 290.59407 265.797818 
L 290.269091 265.797818 
L 289.944111 265.797818 
L 289.619132 265.797818 
L 289.294152 265.797818 
L 288.969173 265.797818 
L 288.644193 265.797818 
L 288.319214 265.797818 
L 287.994234 265.797818 
L 287.669255 265.797818 
L 287.344275 265.797818 
L 287.019296 265.797818 
L 286.694316 265.797818 
L 286.369337 265.797818 
L 286.044357 265.797818 
L 285.719378 265.797818 
L 285.394398 265.797818 
L 285.069419 265.797818 
L 284.744439 265.797818 
L 284.419459 265.797818 
L 284.09448 265.797818 
L 283.7695 265.797818 
L 283.444521 265.797818 
L 283.119541 265.797818 
L 282.794562 265.797818 
L 282.469582 265.797818 
L 282.144603 265.797818 
L 281.819623 265.797818 
L 281.494644 265.797818 
L 281.169664 265.797818 
L 280.844685 265.797818 
L 280.519705 265.797818 
L 280.194726 265.797818 
L 279.869746 265.797818 
L 279.544767 265.797818 
L 279.219787 265.797818 
L 278.894808 265.797818 
L 278.569828 265.797818 
L 278.244848 265.797818 
L 277.919869 265.797818 
L 277.594889 265.797818 
L 277.26991 265.797818 
L 276.94493 265.797818 
L 276.619951 265.797818 
L 276.294971 265.797818 
L 275.969992 265.797818 
L 275.645012 265.797818 
L 275.320033 265.797818 
L 274.995053 265.797818 
L 274.670074 265.797818 
L 274.345094 265.797818 
L 274.020115 265.797818 
L 273.695135 265.797818 
L 273.370156 265.797818 
L 273.045176 265.797818 
L 272.720197 265.797818 
L 272.395217 265.797818 
L 272.070238 265.797818 
L 271.745258 265.797818 
L 271.420278 265.797818 
L 271.095299 265.797818 
L 270.770319 265.797818 
L 270.44534 265.797818 
L 270.12036 265.797818 
L 269.795381 265.797818 
L 269.470401 265.797818 
L 269.145422 265.797818 
L 268.820442 265.797818 
L 268.495463 265.797818 
L 268.170483 265.797818 
L 267.845504 265.797818 
L 267.520524 265.797818 
L 267.195545 265.797818 
L 266.870565 265.797818 
L 266.545586 265.797818 
L 266.220606 265.797818 
L 265.895627 265.797818 
L 265.570647 265.797818 
L 265.245667 265.797818 
L 264.920688 265.797818 
L 264.595708 265.797818 
L 264.270729 265.797818 
L 263.945749 265.797818 
L 263.62077 265.797818 
L 263.29579 265.797818 
L 262.970811 265.797818 
L 262.645831 265.797818 
L 262.320852 265.797818 
L 261.995872 265.797818 
L 261.670893 265.797818 
L 261.345913 265.797818 
L 261.020934 265.797818 
L 260.695954 265.797818 
L 260.370975 265.797818 
L 260.045995 265.797818 
L 259.721016 265.797818 
L 259.396036 265.797818 
L 259.071057 265.797818 
L 258.746077 265.797818 
L 258.421097 265.797818 
L 258.096118 265.797818 
L 257.771138 265.797818 
L 257.446159 265.797818 
L 257.121179 265.797818 
L 256.7962 265.797818 
L 256.47122 265.797818 
L 256.146241 265.797818 
L 255.821261 265.797818 
L 255.496282 265.797818 
L 255.171302 265.797818 
L 254.846323 265.797818 
L 254.521343 265.797818 
L 254.196364 265.797818 
L 253.871384 265.797818 
L 253.546405 265.797818 
L 253.221425 265.797818 
L 252.896446 265.797818 
L 252.571466 265.797818 
L 252.246486 265.797818 
L 251.921507 265.797818 
L 251.596527 265.797818 
L 251.271548 265.797818 
L 250.946568 265.797818 
L 250.621589 265.797818 
L 250.296609 265.797818 
L 249.97163 265.797818 
L 249.64665 265.797818 
L 249.321671 265.797818 
L 248.996691 265.797818 
L 248.671712 265.797818 
L 248.346732 265.797818 
L 248.021753 265.797818 
L 247.696773 265.797818 
L 247.371794 265.797818 
L 247.046814 265.797818 
L 246.721835 265.797818 
L 246.396855 265.797818 
L 246.071876 265.797818 
L 245.746896 265.797818 
L 245.421916 265.797818 
L 245.096937 265.797818 
L 244.771957 265.797818 
L 244.446978 265.797818 
L 244.121998 265.797818 
L 243.797019 265.797818 
L 243.472039 265.797818 
L 243.14706 265.797818 
L 242.82208 265.797818 
L 242.497101 265.797818 
L 242.172121 265.797818 
L 241.847142 265.797818 
L 241.522162 265.797818 
L 241.197183 265.797818 
L 240.872203 265.797818 
L 240.547224 265.797818 
L 240.222244 265.797818 
L 239.897265 265.797818 
L 239.572285 265.797818 
L 239.247305 265.797818 
L 238.922326 265.797818 
L 238.597346 265.797818 
L 238.272367 265.797818 
L 237.947387 265.797818 
L 237.622408 265.797818 
L 237.297428 265.797818 
L 236.972449 265.797818 
L 236.647469 265.797818 
L 236.32249 265.797818 
L 235.99751 265.797818 
L 235.672531 265.797818 
L 235.347551 265.797818 
L 235.022572 265.797818 
L 234.697592 265.797818 
L 234.372613 265.797818 
L 234.047633 265.797818 
L 233.722654 265.797818 
L 233.397674 265.797818 
L 233.072695 265.797818 
L 232.747715 265.797818 
L 232.422735 265.797818 
L 232.097756 265.797818 
L 231.772776 265.797818 
L 231.447797 265.797818 
L 231.122817 265.797818 
L 230.797838 265.797818 
L 230.472858 265.797818 
L 230.147879 265.797818 
L 229.822899 265.797818 
L 229.49792 265.797818 
L 229.17294 265.797818 
L 228.847961 265.797818 
L 228.522981 265.797818 
L 228.198002 265.797818 
L 227.873022 265.797818 
L 227.548043 265.797818 
L 227.223063 265.797818 
L 226.898084 265.797818 
L 226.573104 265.797818 
L 226.248124 265.797818 
L 225.923145 265.797818 
L 225.598165 265.797818 
L 225.273186 265.797818 
L 224.948206 265.797818 
L 224.623227 265.797818 
L 224.298247 265.797818 
L 223.973268 265.797818 
L 223.648288 265.797818 
L 223.323309 265.797818 
L 222.998329 265.797818 
L 222.67335 265.797818 
L 222.34837 265.797818 
L 222.023391 265.797818 
L 221.698411 265.797818 
L 221.373432 265.797818 
L 221.048452 265.797818 
L 220.723473 265.797818 
L 220.398493 265.797818 
L 220.073514 265.797818 
L 219.748534 265.797818 
L 219.423554 265.797818 
L 219.098575 265.797818 
L 218.773595 265.797818 
L 218.448616 265.797818 
L 218.123636 265.797818 
L 217.798657 265.797818 
L 217.473677 265.797818 
L 217.148698 265.797818 
L 216.823718 265.797818 
L 216.498739 265.797818 
L 216.173759 265.797818 
L 215.84878 265.797818 
L 215.5238 265.797818 
L 215.198821 265.797818 
L 214.873841 265.797818 
L 214.548862 265.797818 
L 214.223882 265.797818 
L 213.898903 265.797818 
L 213.573923 265.797818 
L 213.248943 265.797818 
L 212.923964 265.797818 
L 212.598984 265.797818 
L 212.274005 265.797818 
L 211.949025 265.797818 
L 211.624046 265.797818 
L 211.299066 265.797818 
L 210.974087 265.797818 
L 210.649107 265.797818 
L 210.324128 265.797818 
L 209.999148 265.797818 
L 209.674169 265.797818 
L 209.349189 265.797818 
L 209.02421 265.797818 
L 208.69923 265.797818 
L 208.374251 265.797818 
L 208.049271 265.797818 
L 207.724292 265.797818 
L 207.399312 265.797818 
L 207.074333 265.797818 
L 206.749353 265.797818 
L 206.424373 265.797818 
L 206.099394 265.797818 
L 205.774414 265.797818 
L 205.449435 265.797818 
L 205.124455 265.797818 
L 204.799476 265.797818 
L 204.474496 265.797818 
L 204.149517 265.797818 
L 203.824537 265.797818 
L 203.499558 265.797818 
L 203.174578 265.797818 
L 202.849599 265.797818 
L 202.524619 265.797818 
L 202.19964 265.797818 
L 201.87466 265.797818 
L 201.549681 265.797818 
L 201.224701 265.797818 
L 200.899722 265.797818 
L 200.574742 265.797818 
L 200.249762 265.797818 
L 199.924783 265.797818 
L 199.599803 265.797818 
L 199.274824 265.797818 
L 198.949844 265.797818 
L 198.624865 265.797818 
L 198.299885 265.797818 
L 197.974906 265.797818 
L 197.649926 265.797818 
L 197.324947 265.797818 
L 196.999967 265.797818 
L 196.674988 265.797818 
L 196.350008 265.797818 
L 196.025029 265.797818 
L 195.700049 265.797818 
L 195.37507 265.797818 
L 195.05009 265.797818 
L 194.725111 265.797818 
L 194.400131 265.797818 
L 194.075152 265.797818 
L 193.750172 265.797818 
L 193.425192 265.797818 
L 193.100213 265.797818 
L 192.775233 265.797818 
L 192.450254 265.797818 
L 192.125274 265.797818 
L 191.800295 265.797818 
L 191.475315 265.797818 
L 191.150336 265.797818 
L 190.825356 265.797818 
L 190.500377 265.797818 
L 190.175397 265.797818 
L 189.850418 265.797818 
L 189.525438 265.797818 
L 189.200459 265.797818 
L 188.875479 265.797818 
L 188.5505 265.797818 
L 188.22552 265.797818 
L 187.900541 265.797818 
L 187.575561 265.797818 
L 187.250581 265.797818 
L 186.925602 265.797818 
L 186.600622 265.797818 
L 186.275643 265.797818 
L 185.950663 265.797818 
L 185.625684 265.797818 
L 185.300704 265.797818 
L 184.975725 265.797818 
L 184.650745 265.797818 
L 184.325766 265.797818 
L 184.000786 265.797818 
L 183.675807 265.797818 
L 183.350827 265.797818 
L 183.025848 265.797818 
L 182.700868 265.797818 
L 182.375889 265.797818 
L 182.050909 265.797818 
L 181.72593 265.797818 
L 181.40095 265.797818 
L 181.075971 265.797818 
L 180.750991 265.797818 
L 180.426011 265.797818 
L 180.101032 265.797818 
L 179.776052 265.797818 
L 179.451073 265.797818 
L 179.126093 265.797818 
L 178.801114 265.797818 
L 178.476134 265.797818 
L 178.151155 265.797818 
L 177.826175 265.797818 
L 177.501196 265.797818 
L 177.176216 265.797818 
L 176.851237 265.797818 
L 176.526257 265.797818 
L 176.201278 265.797818 
L 175.876298 265.797818 
L 175.551319 265.797818 
L 175.226339 265.797818 
L 174.90136 265.797818 
L 174.57638 265.797818 
L 174.2514 265.797818 
L 173.926421 265.797818 
L 173.601441 265.797818 
L 173.276462 265.797818 
L 172.951482 265.797818 
L 172.626503 265.797818 
L 172.301523 265.797818 
L 171.976544 265.797818 
L 171.651564 265.797818 
L 171.326585 265.797818 
L 171.001605 265.797818 
L 170.676626 265.797818 
L 170.351646 265.797818 
L 170.026667 265.797818 
L 169.701687 265.797818 
L 169.376708 265.797818 
L 169.051728 265.797818 
L 168.726749 265.797818 
L 168.401769 265.797818 
L 168.07679 265.797818 
L 167.75181 265.797818 
L 167.42683 265.797818 
L 167.101851 265.797818 
L 166.776871 265.797818 
L 166.451892 265.797818 
L 166.126912 265.797818 
L 165.801933 265.797818 
L 165.476953 265.797818 
L 165.151974 265.797818 
L 164.826994 265.797818 
L 164.502015 265.797818 
L 164.177035 265.797818 
L 163.852056 265.797818 
L 163.527076 265.797818 
L 163.202097 265.797818 
L 162.877117 265.797818 
L 162.552138 265.797818 
L 162.227158 265.797818 
L 161.902179 265.797818 
L 161.577199 265.797818 
L 161.252219 265.797818 
L 160.92724 265.797818 
L 160.60226 265.797818 
L 160.277281 265.797818 
L 159.952301 265.797818 
L 159.627322 265.797818 
L 159.302342 265.797818 
L 158.977363 265.797818 
L 158.652383 265.797818 
L 158.327404 265.797818 
L 158.002424 265.797818 
L 157.677445 265.797818 
L 157.352465 265.797818 
L 157.027486 265.797818 
L 156.702506 265.797818 
L 156.377527 265.797818 
L 156.052547 265.797818 
L 155.727568 265.797818 
L 155.402588 265.797818 
L 155.077609 265.797818 
L 154.752629 265.797818 
L 154.427649 265.797818 
L 154.10267 265.797818 
L 153.77769 265.797818 
L 153.452711 265.797818 
L 153.127731 265.797818 
L 152.802752 265.797818 
L 152.477772 265.797818 
L 152.152793 265.797818 
L 151.827813 265.797818 
L 151.502834 265.797818 
L 151.177854 265.797818 
L 150.852875 265.797818 
L 150.527895 265.797818 
L 150.202916 265.797818 
L 149.877936 265.797818 
L 149.552957 265.797818 
L 149.227977 265.797818 
L 148.902998 265.797818 
L 148.578018 265.797818 
L 148.253038 265.797818 
L 147.928059 265.797818 
L 147.603079 265.797818 
L 147.2781 265.797818 
L 146.95312 265.797818 
L 146.628141 265.797818 
L 146.303161 265.797818 
L 145.978182 265.797818 
L 145.653202 265.797818 
L 145.328223 265.797818 
L 145.003243 265.797818 
L 144.678264 265.797818 
L 144.353284 265.797818 
L 144.028305 265.797818 
L 143.703325 265.797818 
L 143.378346 265.797818 
L 143.053366 265.797818 
L 142.728387 265.797818 
L 142.403407 265.797818 
L 142.078428 265.797818 
L 141.753448 265.797818 
L 141.428468 265.797818 
L 141.103489 265.797818 
L 140.778509 265.797818 
L 140.45353 265.797818 
L 140.12855 265.797818 
L 139.803571 265.797818 
L 139.478591 265.797818 
L 139.153612 265.797818 
L 138.828632 265.797818 
L 138.503653 265.797818 
L 138.178673 265.797818 
L 137.853694 265.797818 
L 137.528714 265.797818 
L 137.203735 265.797818 
L 136.878755 265.797818 
L 136.553776 265.797818 
L 136.228796 265.797818 
L 135.903817 265.797818 
L 135.578837 265.797818 
L 135.253857 265.797818 
L 134.928878 265.797818 
L 134.603898 265.797818 
L 134.278919 265.797818 
L 133.953939 265.797818 
L 133.62896 265.797818 
L 133.30398 265.797818 
L 132.979001 265.797818 
L 132.654021 265.797818 
L 132.329042 265.797818 
L 132.004062 265.797818 
L 131.679083 265.797818 
L 131.354103 265.797818 
L 131.029124 265.797818 
L 130.704144 265.797818 
L 130.379165 265.797818 
L 130.054185 265.797818 
L 129.729206 265.797818 
L 129.404226 265.797818 
L 129.079247 265.797818 
L 128.754267 265.797818 
L 128.429287 265.797818 
L 128.104308 265.797818 
L 127.779328 265.797818 
L 127.454349 265.797818 
L 127.129369 265.797818 
L 126.80439 265.797818 
L 126.47941 265.797818 
L 126.154431 265.797818 
L 125.829451 265.797818 
L 125.504472 265.797818 
L 125.179492 265.797818 
L 124.854513 265.797818 
L 124.529533 265.797818 
L 124.204554 265.797818 
L 123.879574 265.797818 
L 123.554595 265.797818 
L 123.229615 265.797818 
L 122.904636 265.797818 
L 122.579656 265.797818 
L 122.254676 265.797818 
L 121.929697 265.797818 
L 121.604717 265.797818 
L 121.279738 265.797818 
L 120.954758 265.797818 
L 120.629779 265.797818 
L 120.304799 265.797818 
L 119.97982 265.797818 
L 119.65484 265.797818 
L 119.329861 265.797818 
L 119.004881 265.797818 
L 118.679902 265.797818 
L 118.354922 265.797818 
L 118.029943 265.797818 
L 117.704963 265.797818 
L 117.379984 265.797818 
L 117.055004 265.797818 
L 116.730025 265.797818 
L 116.405045 265.797818 
L 116.080066 265.797818 
L 115.755086 265.797818 
L 115.430106 265.797818 
L 115.105127 265.797818 
L 114.780147 265.797818 
L 114.455168 265.797818 
L 114.130188 265.797818 
L 113.805209 265.797818 
L 113.480229 265.797818 
L 113.15525 265.797818 
L 112.83027 265.797818 
L 112.505291 265.797818 
L 112.180311 265.797818 
L 111.855332 265.797818 
L 111.530352 265.797818 
L 111.205373 265.797818 
L 110.880393 265.797818 
L 110.555414 265.797818 
L 110.230434 265.797818 
L 109.905455 265.797818 
L 109.580475 265.797818 
L 109.255495 265.797818 
L 108.930516 265.797818 
L 108.605536 265.797818 
L 108.280557 265.797818 
L 107.955577 265.797818 
L 107.630598 265.797818 
L 107.305618 265.797818 
L 106.980639 265.797818 
L 106.655659 265.797818 
L 106.33068 265.797818 
L 106.0057 265.797818 
L 105.680721 265.797818 
L 105.355741 265.797818 
L 105.030762 265.797818 
L 104.705782 265.797818 
L 104.380803 265.797818 
L 104.055823 265.797818 
L 103.730844 265.797818 
L 103.405864 265.797818 
L 103.080885 265.797818 
L 102.755905 265.797818 
L 102.430925 265.797818 
L 102.105946 265.797818 
L 101.780966 265.797818 
L 101.455987 265.797818 
L 101.131007 265.797818 
L 100.806028 265.797818 
L 100.481048 265.797818 
L 100.156069 265.797818 
L 99.831089 265.797818 
L 99.50611 265.797818 
L 99.18113 265.797818 
L 98.856151 265.797818 
L 98.531171 265.797818 
L 98.206192 265.797818 
L 97.881212 265.797818 
L 97.556233 265.797818 
L 97.231253 265.797818 
L 96.906274 265.797818 
L 96.581294 265.797818 
L 96.256314 265.797818 
L 95.931335 265.797818 
L 95.606355 265.797818 
L 95.281376 265.797818 
L 94.956396 265.797818 
L 94.631417 265.797818 
L 94.306437 265.797818 
L 93.981458 265.797818 
L 93.656478 265.797818 
L 93.331499 265.797818 
L 93.006519 265.797818 
L 92.68154 265.797818 
L 92.35656 265.797818 
L 92.031581 265.797818 
L 91.706601 265.797818 
L 91.381622 265.797818 
L 91.056642 265.797818 
L 90.731663 265.797818 
L 90.406683 265.797818 
L 90.081704 265.797818 
L 89.756724 265.797818 
L 89.431744 265.797818 
L 89.106765 265.797818 
L 88.781785 265.797818 
L 88.456806 265.797818 
L 88.131826 265.797818 
L 87.806847 265.797818 
L 87.481867 265.797818 
L 87.156888 265.797818 
L 86.831908 265.797818 
L 86.506929 265.797818 
L 86.181949 265.797818 
L 85.85697 265.797818 
L 85.53199 265.797818 
L 85.207011 265.797818 
L 84.882031 265.797818 
L 84.557052 265.797818 
L 84.232072 265.797818 
L 83.907093 265.797818 
L 83.582113 265.797818 
L 83.257133 265.797818 
L 82.932154 265.797818 
L 82.607174 265.797818 
L 82.282195 265.797818 
L 81.957215 265.797818 
L 81.632236 265.797818 
L 81.307256 265.797818 
L 80.982277 265.797818 
L 80.657297 265.797818 
L 80.332318 265.797818 
L 80.007338 265.797818 
L 79.682359 265.797818 
L 79.357379 265.797818 
L 79.0324 265.797818 
L 78.70742 265.797818 
L 78.382441 265.797818 
L 78.057461 265.797818 
L 77.732482 265.797818 
L 77.407502 265.797818 
L 77.082523 265.797818 
L 76.757543 265.797818 
L 76.432563 265.797818 
L 76.107584 265.797818 
L 75.782604 265.797818 
L 75.457625 265.797818 
L 75.132645 265.797818 
L 74.807666 265.797818 
L 74.482686 265.797818 
L 74.157707 265.797818 
L 73.832727 265.797818 
z
" clip-path="url(#p824234fb02)" style="fill: url(#h5d5b8fb474); stroke: #000000"/>
   </g>
   <g id="matplotlib.axis_1">
    <g id="xtick_1">
     <g id="line2d_1">
      <defs>
       <path id="m3bb8683593" d="M 0 0 
L 0 3.5 
" style="stroke: #000000; stroke-width: 0.8"/>
      </defs>
      <g>
       <use xlink:href="#m3bb8683593" x="84.305455" y="276.48" style="stroke: #000000; stroke-width: 0.8"/>
      </g>
     </g>
     <g id="text_1">
      <!-- 0 -->
      <g transform="translate(81.124205 291.078437) scale(0.1 -0.1)">
       <defs>
        <path id="DejaVuSans-30" d="M 2034 4250 
Q 1547 4250 1301 3770 
Q 1056 3291 1056 2328 
Q 1056 1369 1301 889 
Q 1547 409 2034 409 
Q 2525 409 2770 889 
Q 3016 1369 3016 2328 
Q 3016 3291 2770 3770 
Q 2525 4250 2034 4250 
z
M 2034 4750 
Q 2819 4750 3233 4129 
Q 3647 3509 3647 2328 
Q 3647 1150 3233 529 
Q 2819 -91 2034 -91 
Q 1250 -91 836 529 
Q 422 1150 422 2328 
Q 422 3509 836 4129 
Q 1250 4750 2034 4750 
z
" transform="scale(0.015625)"/>
       </defs>
       <use xlink:href="#DejaVuSans-30"/>
      </g>
     </g>
    </g>
    <g id="xtick_2">
     <g id="line2d_2">
      <g>
       <use xlink:href="#m3bb8683593" x="189.032727" y="276.48" style="stroke: #000000; stroke-width: 0.8"/>
      </g>
     </g>
     <g id="text_2">
      <!-- 50 -->
      <g transform="translate(182.670227 291.078437) scale(0.1 -0.1)">
       <defs>
        <path id="DejaVuSans-35" d="M 691 4666 
L 3169 4666 
L 3169 4134 
L 1269 4134 
L 1269 2991 
Q 1406 3038 1543 3061 
Q 1681 3084 1819 3084 
Q 2600 3084 3056 2656 
Q 3513 2228 3513 1497 
Q 3513 744 3044 326 
Q 2575 -91 1722 -91 
Q 1428 -91 1123 -41 
Q 819 9 494 109 
L 494 744 
Q 775 591 1075 516 
Q 1375 441 1709 441 
Q 2250 441 2565 725 
Q 2881 1009 2881 1497 
Q 2881 1984 2565 2268 
Q 2250 2553 1709 2553 
Q 1456 2553 1204 2497 
Q 953 2441 691 2322 
L 691 4666 
z
" transform="scale(0.015625)"/>
       </defs>
       <use xlink:href="#DejaVuSans-35"/>
       <use xlink:href="#DejaVuSans-30" x="63.623047"/>
      </g>
     </g>
    </g>
    <g id="xtick_3">
     <g id="line2d_3">
      <g>
       <use xlink:href="#m3bb8683593" x="293.76" y="276.48" style="stroke: #000000; stroke-width: 0.8"/>
      </g>
     </g>
     <g id="text_3">
      <!-- 100 -->
      <g transform="translate(284.21625 291.078437) scale(0.1 -0.1)">
       <defs>
        <path id="DejaVuSans-31" d="M 794 531 
L 1825 531 
L 1825 4091 
L 703 3866 
L 703 4441 
L 1819 4666 
L 2450 4666 
L 2450 531 
L 3481 531 
L 3481 0 
L 794 0 
L 794 531 
z
" transform="scale(0.015625)"/>
       </defs>
       <use xlink:href="#DejaVuSans-31"/>
       <use xlink:href="#DejaVuSans-30" x="63.623047"/>
       <use xlink:href="#DejaVuSans-30" x="127.246094"/>
      </g>
     </g>
    </g>
    <g id="xtick_4">
     <g id="line2d_4">
      <g>
       <use xlink:href="#m3bb8683593" x="398.487273" y="276.48" style="stroke: #000000; stroke-width: 0.8"/>
      </g>
     </g>
     <g id="text_4">
      <!-- 150 -->
      <g transform="translate(388.943523 291.078437) scale(0.1 -0.1)">
       <use xlink:href="#DejaVuSans-31"/>
       <use xlink:href="#DejaVuSans-35" x="63.623047"/>
       <use xlink:href="#DejaVuSans-30" x="127.246094"/>
      </g>
     </g>
    </g>
    <g id="text_5">
     <!-- Position (cm) -->
     <g transform="translate(203.585781 304.756562) scale(0.1 -0.1)">
      <defs>
       <path id="DejaVuSans-50" d="M 1259 4147 
L 1259 2394 
L 2053 2394 
Q 2494 2394 2734 2622 
Q 2975 2850 2975 3272 
Q 2975 3691 2734 3919 
Q 2494 4147 2053 4147 
L 1259 4147 
z
M 628 4666 
L 2053 4666 
Q 2838 4666 3239 4311 
Q 3641 3956 3641 3272 
Q 3641 2581 3239 2228 
Q 2838 1875 2053 1875 
L 1259 1875 
L 1259 0 
L 628 0 
L 628 4666 
z
" transform="scale(0.015625)"/>
       <path id="DejaVuSans-6f" d="M 1959 3097 
Q 1497 3097 1228 2736 
Q 959 2375 959 1747 
Q 959 1119 1226 758 
Q 1494 397 1959 397 
Q 2419 397 2687 759 
Q 2956 1122 2956 1747 
Q 2956 2369 2687 2733 
Q 2419 3097 1959 3097 
z
M 1959 3584 
Q 2709 3584 3137 3096 
Q 3566 2609 3566 1747 
Q 3566 888 3137 398 
Q 2709 -91 1959 -91 
Q 1206 -91 779 398 
Q 353 888 353 1747 
Q 353 2609 779 3096 
Q 1206 3584 1959 3584 
z
" transform="scale(0.015625)"/>
       <path id="DejaVuSans-73" d="M 2834 3397 
L 2834 2853 
Q 2591 2978 2328 3040 
Q 2066 3103 1784 3103 
Q 1356 3103 1142 2972 
Q 928 2841 928 2578 
Q 928 2378 1081 2264 
Q 1234 2150 1697 2047 
L 1894 2003 
Q 2506 1872 2764 1633 
Q 3022 1394 3022 966 
Q 3022 478 2636 193 
Q 2250 -91 1575 -91 
Q 1294 -91 989 -36 
Q 684 19 347 128 
L 347 722 
Q 666 556 975 473 
Q 1284 391 1588 391 
Q 1994 391 2212 530 
Q 2431 669 2431 922 
Q 2431 1156 2273 1281 
Q 2116 1406 1581 1522 
L 1381 1569 
Q 847 1681 609 1914 
Q 372 2147 372 2553 
Q 372 3047 722 3315 
Q 1072 3584 1716 3584 
Q 2034 3584 2315 3537 
Q 2597 3491 2834 3397 
z
" transform="scale(0.015625)"/>
       <path id="DejaVuSans-69" d="M 603 3500 
L 1178 3500 
L 1178 0 
L 603 0 
L 603 3500 
z
M 603 4863 
L 1178 4863 
L 1178 4134 
L 603 4134 
L 603 4863 
z
" transform="scale(0.015625)"/>
       <path id="DejaVuSans-74" d="M 1172 4494 
L 1172 3500 
L 2356 3500 
L 2356 3053 
L 1172 3053 
L 1172 1153 
Q 1172 725 1289 603 
Q 1406 481 1766 481 
L 2356 481 
L 2356 0 
L 1766 0 
Q 1100 0 847 248 
Q 594 497 594 1153 
L 594 3053 
L 172 3053 
L 172 3500 
L 594 3500 
L 594 4494 
L 1172 4494 
z
" transform="scale(0.015625)"/>
       <path id="DejaVuSans-6e" d="M 3513 2113 
L 3513 0 
L 2938 0 
L 2938 2094 
Q 2938 2591 2744 2837 
Q 2550 3084 2163 3084 
Q 1697 3084 1428 2787 
Q 1159 2491 1159 1978 
L 1159 0 
L 581 0 
L 581 3500 
L 1159 3500 
L 1159 2956 
Q 1366 3272 1645 3428 
Q 1925 3584 2291 3584 
Q 2894 3584 3203 3211 
Q 3513 2838 3513 2113 
z
" transform="scale(0.015625)"/>
       <path id="DejaVuSans-20" transform="scale(0.015625)"/>
       <path id="DejaVuSans-28" d="M 1984 4856 
Q 1566 4138 1362 3434 
Q 1159 2731 1159 2009 
Q 1159 1288 1364 580 
Q 1569 -128 1984 -844 
L 1484 -844 
Q 1016 -109 783 600 
Q 550 1309 550 2009 
Q 550 2706 781 3412 
Q 1013 4119 1484 4856 
L 1984 4856 
z
" transform="scale(0.015625)"/>
       <path id="DejaVuSans-63" d="M 3122 3366 
L 3122 2828 
Q 2878 2963 2633 3030 
Q 2388 3097 2138 3097 
Q 1578 3097 1268 2742 
Q 959 2388 959 1747 
Q 959 1106 1268 751 
Q 1578 397 2138 397 
Q 2388 397 2633 464 
Q 2878 531 3122 666 
L 3122 134 
Q 2881 22 2623 -34 
Q 2366 -91 2075 -91 
Q 1284 -91 818 406 
Q 353 903 353 1747 
Q 353 2603 823 3093 
Q 1294 3584 2113 3584 
Q 2378 3584 2631 3529 
Q 2884 3475 3122 3366 
z
" transform="scale(0.015625)"/>
       <path id="DejaVuSans-6d" d="M 3328 2828 
Q 3544 3216 3844 3400 
Q 4144 3584 4550 3584 
Q 5097 3584 5394 3201 
Q 5691 2819 5691 2113 
L 5691 0 
L 5113 0 
L 5113 2094 
Q 5113 2597 4934 2840 
Q 4756 3084 4391 3084 
Q 3944 3084 3684 2787 
Q 3425 2491 3425 1978 
L 3425 0 
L 2847 0 
L 2847 2094 
Q 2847 2600 2669 2842 
Q 2491 3084 2119 3084 
Q 1678 3084 1418 2786 
Q 1159 2488 1159 1978 
L 1159 0 
L 581 0 
L 581 3500 
L 1159 3500 
L 1159 2956 
Q 1356 3278 1631 3431 
Q 1906 3584 2284 3584 
Q 2666 3584 2933 3390 
Q 3200 3197 3328 2828 
z
" transform="scale(0.015625)"/>
       <path id="DejaVuSans-29" d="M 513 4856 
L 1013 4856 
Q 1481 4119 1714 3412 
Q 1947 2706 1947 2009 
Q 1947 1309 1714 600 
Q 1481 -109 1013 -844 
L 513 -844 
Q 928 -128 1133 580 
Q 1338 1288 1338 2009 
Q 1338 2731 1133 3434 
Q 928 4138 513 4856 
z
" transform="scale(0.015625)"/>
      </defs>
      <use xlink:href="#DejaVuSans-50"/>
      <use xlink:href="#DejaVuSans-6f" x="56.677734"/>
      <use xlink:href="#DejaVuSans-73" x="117.859375"/>
      <use xlink:href="#DejaVuSans-69" x="169.958984"/>
      <use xlink:href="#DejaVuSans-74" x="197.742188"/>
      <use xlink:href="#DejaVuSans-69" x="236.951172"/>
      <use xlink:href="#DejaVuSans-6f" x="264.734375"/>
      <use xlink:href="#DejaVuSans-6e" x="325.916016"/>
      <use xlink:href="#DejaVuSans-20" x="389.294922"/>
      <use xlink:href="#DejaVuSans-28" x="421.082031"/>
      <use xlink:href="#DejaVuSans-63" x="460.095703"/>
      <use xlink:href="#DejaVuSans-6d" x="515.076172"/>
      <use xlink:href="#DejaVuSans-29" x="612.488281"/>
     </g>
     <!--  = 100,  = 10 -->
     <g transform="translate(195.989688 315.954375) scale(0.1 -0.1)">
      <defs>
       <path id="DejaVuSans-3bc" d="M 544 -1331 
L 544 3500 
L 1119 3500 
L 1119 1325 
Q 1119 872 1334 640 
Q 1550 409 1972 409 
Q 2434 409 2667 671 
Q 2900 934 2900 1459 
L 2900 3500 
L 3475 3500 
L 3475 806 
Q 3475 619 3529 530 
Q 3584 441 3700 441 
Q 3728 441 3778 458 
Q 3828 475 3916 513 
L 3916 50 
Q 3788 -22 3673 -56 
Q 3559 -91 3450 -91 
Q 3234 -91 3106 31 
Q 2978 153 2931 403 
Q 2775 156 2548 32 
Q 2322 -91 2016 -91 
Q 1697 -91 1473 31 
Q 1250 153 1119 397 
L 1119 -1331 
L 544 -1331 
z
" transform="scale(0.015625)"/>
       <path id="DejaVuSans-3d" d="M 678 2906 
L 4684 2906 
L 4684 2381 
L 678 2381 
L 678 2906 
z
M 678 1631 
L 4684 1631 
L 4684 1100 
L 678 1100 
L 678 1631 
z
" transform="scale(0.015625)"/>
       <path id="DejaVuSans-2c" d="M 750 794 
L 1409 794 
L 1409 256 
L 897 -744 
L 494 -744 
L 750 256 
L 750 794 
z
" transform="scale(0.015625)"/>
       <path id="DejaVuSans-3c3" d="M 1959 3044 
Q 1484 3044 1228 2700 
Q 959 2341 959 1747 
Q 959 1119 1226 758 
Q 1494 397 1959 397 
Q 2419 397 2687 759 
Q 2956 1122 2956 1747 
Q 2956 2319 2688 2700 
Q 2441 3044 1959 3044 
z
M 1959 3500 
L 3869 3500 
L 3869 2925 
L 3225 2925 
Q 3566 2438 3566 1747 
Q 3566 888 3138 400 
Q 2709 -91 1959 -91 
Q 1206 -91 781 400 
Q 353 888 353 1747 
Q 353 2613 781 3097 
Q 1134 3500 1959 3500 
z
" transform="scale(0.015625)"/>
      </defs>
      <use xlink:href="#DejaVuSans-3bc"/>
      <use xlink:href="#DejaVuSans-20" x="63.623047"/>
      <use xlink:href="#DejaVuSans-3d" x="95.410156"/>
      <use xlink:href="#DejaVuSans-20" x="179.199219"/>
      <use xlink:href="#DejaVuSans-31" x="210.986328"/>
      <use xlink:href="#DejaVuSans-30" x="274.609375"/>
      <use xlink:href="#DejaVuSans-30" x="338.232422"/>
      <use xlink:href="#DejaVuSans-2c" x="401.855469"/>
      <use xlink:href="#DejaVuSans-20" x="433.642578"/>
      <use xlink:href="#DejaVuSans-3c3" x="465.429688"/>
      <use xlink:href="#DejaVuSans-20" x="528.808594"/>
      <use xlink:href="#DejaVuSans-3d" x="560.595703"/>
      <use xlink:href="#DejaVuSans-20" x="644.384766"/>
      <use xlink:href="#DejaVuSans-31" x="676.171875"/>
      <use xlink:href="#DejaVuSans-30" x="739.794922"/>
     </g>
    </g>
   </g>
   <g id="matplotlib.axis_2">
    <g id="text_6">
     <!-- Probability Density -->
     <g transform="translate(51.520312 206.002562) rotate(-90) scale(0.1 -0.1)">
      <defs>
       <path id="DejaVuSans-72" d="M 2631 2963 
Q 2534 3019 2420 3045 
Q 2306 3072 2169 3072 
Q 1681 3072 1420 2755 
Q 1159 2438 1159 1844 
L 1159 0 
L 581 0 
L 581 3500 
L 1159 3500 
L 1159 2956 
Q 1341 3275 1631 3429 
Q 1922 3584 2338 3584 
Q 2397 3584 2469 3576 
Q 2541 3569 2628 3553 
L 2631 2963 
z
" transform="scale(0.015625)"/>
       <path id="DejaVuSans-62" d="M 3116 1747 
Q 3116 2381 2855 2742 
Q 2594 3103 2138 3103 
Q 1681 3103 1420 2742 
Q 1159 2381 1159 1747 
Q 1159 1113 1420 752 
Q 1681 391 2138 391 
Q 2594 391 2855 752 
Q 3116 1113 3116 1747 
z
M 1159 2969 
Q 1341 3281 1617 3432 
Q 1894 3584 2278 3584 
Q 2916 3584 3314 3078 
Q 3713 2572 3713 1747 
Q 3713 922 3314 415 
Q 2916 -91 2278 -91 
Q 1894 -91 1617 61 
Q 1341 213 1159 525 
L 1159 0 
L 581 0 
L 581 4863 
L 1159 4863 
L 1159 2969 
z
" transform="scale(0.015625)"/>
       <path id="DejaVuSans-61" d="M 2194 1759 
Q 1497 1759 1228 1600 
Q 959 1441 959 1056 
Q 959 750 1161 570 
Q 1363 391 1709 391 
Q 2188 391 2477 730 
Q 2766 1069 2766 1631 
L 2766 1759 
L 2194 1759 
z
M 3341 1997 
L 3341 0 
L 2766 0 
L 2766 531 
Q 2569 213 2275 61 
Q 1981 -91 1556 -91 
Q 1019 -91 701 211 
Q 384 513 384 1019 
Q 384 1609 779 1909 
Q 1175 2209 1959 2209 
L 2766 2209 
L 2766 2266 
Q 2766 2663 2505 2880 
Q 2244 3097 1772 3097 
Q 1472 3097 1187 3025 
Q 903 2953 641 2809 
L 641 3341 
Q 956 3463 1253 3523 
Q 1550 3584 1831 3584 
Q 2591 3584 2966 3190 
Q 3341 2797 3341 1997 
z
" transform="scale(0.015625)"/>
       <path id="DejaVuSans-6c" d="M 603 4863 
L 1178 4863 
L 1178 0 
L 603 0 
L 603 4863 
z
" transform="scale(0.015625)"/>
       <path id="DejaVuSans-79" d="M 2059 -325 
Q 1816 -950 1584 -1140 
Q 1353 -1331 966 -1331 
L 506 -1331 
L 506 -850 
L 844 -850 
Q 1081 -850 1212 -737 
Q 1344 -625 1503 -206 
L 1606 56 
L 191 3500 
L 800 3500 
L 1894 763 
L 2988 3500 
L 3597 3500 
L 2059 -325 
z
" transform="scale(0.015625)"/>
       <path id="DejaVuSans-44" d="M 1259 4147 
L 1259 519 
L 2022 519 
Q 2988 519 3436 956 
Q 3884 1394 3884 2338 
Q 3884 3275 3436 3711 
Q 2988 4147 2022 4147 
L 1259 4147 
z
M 628 4666 
L 1925 4666 
Q 3281 4666 3915 4102 
Q 4550 3538 4550 2338 
Q 4550 1131 3912 565 
Q 3275 0 1925 0 
L 628 0 
L 628 4666 
z
" transform="scale(0.015625)"/>
       <path id="DejaVuSans-65" d="M 3597 1894 
L 3597 1613 
L 953 1613 
Q 991 1019 1311 708 
Q 1631 397 2203 397 
Q 2534 397 2845 478 
Q 3156 559 3463 722 
L 3463 178 
Q 3153 47 2828 -22 
Q 2503 -91 2169 -91 
Q 1331 -91 842 396 
Q 353 884 353 1716 
Q 353 2575 817 3079 
Q 1281 3584 2069 3584 
Q 2775 3584 3186 3129 
Q 3597 2675 3597 1894 
z
M 3022 2063 
Q 3016 2534 2758 2815 
Q 2500 3097 2075 3097 
Q 1594 3097 1305 2825 
Q 1016 2553 972 2059 
L 3022 2063 
z
" transform="scale(0.015625)"/>
      </defs>
      <use xlink:href="#DejaVuSans-50"/>
      <use xlink:href="#DejaVuSans-72" x="58.552734"/>
      <use xlink:href="#DejaVuSans-6f" x="97.416016"/>
      <use xlink:href="#DejaVuSans-62" x="158.597656"/>
      <use xlink:href="#DejaVuSans-61" x="222.074219"/>
      <use xlink:href="#DejaVuSans-62" x="283.353516"/>
      <use xlink:href="#DejaVuSans-69" x="346.830078"/>
      <use xlink:href="#DejaVuSans-6c" x="374.613281"/>
      <use xlink:href="#DejaVuSans-69" x="402.396484"/>
      <use xlink:href="#DejaVuSans-74" x="430.179688"/>
      <use xlink:href="#DejaVuSans-79" x="469.388672"/>
      <use xlink:href="#DejaVuSans-20" x="528.568359"/>
      <use xlink:href="#DejaVuSans-44" x="560.355469"/>
      <use xlink:href="#DejaVuSans-65" x="637.357422"/>
      <use xlink:href="#DejaVuSans-6e" x="698.880859"/>
      <use xlink:href="#DejaVuSans-73" x="762.259766"/>
      <use xlink:href="#DejaVuSans-69" x="814.359375"/>
      <use xlink:href="#DejaVuSans-74" x="842.142578"/>
      <use xlink:href="#DejaVuSans-79" x="881.351562"/>
     </g>
    </g>
   </g>
   <g id="line2d_5">
    <path d="M 73.832727 265.797818 
L 212.274005 265.687375 
L 218.773595 265.445834 
L 222.998329 265.087756 
L 226.248124 264.612829 
L 229.17294 263.957251 
L 231.447797 263.240193 
L 233.722654 262.285454 
L 235.672531 261.231099 
L 237.622408 259.911478 
L 239.247305 258.572818 
L 240.872203 256.982934 
L 242.497101 255.10772 
L 244.121998 252.911376 
L 245.746896 250.356986 
L 247.371794 247.407272 
L 248.996691 244.02549 
L 250.621589 240.176504 
L 252.246486 235.827991 
L 254.196364 229.911117 
L 256.146241 223.196887 
L 258.096118 215.662829 
L 260.045995 207.305476 
L 262.320852 196.54143 
L 264.920688 182.998285 
L 267.845504 166.418959 
L 271.745258 142.825013 
L 277.919869 105.287917 
L 280.519705 90.844029 
L 282.794562 79.512596 
L 284.744439 71.054531 
L 286.369337 65.046921 
L 287.669255 60.997028 
L 288.969173 57.668632 
L 289.944111 55.668694 
L 290.91905 54.108678 
L 291.893989 52.998626 
L 292.543948 52.512237 
L 293.193907 52.230485 
L 293.843866 52.154182 
L 294.493825 52.283549 
L 295.143784 52.618212 
L 295.793743 53.157207 
L 296.768681 54.345264 
L 297.74362 55.981759 
L 298.718559 58.056166 
L 300.018477 61.479935 
L 301.318395 65.61979 
L 302.943292 71.730857 
L 304.56819 78.784258 
L 306.518067 88.326246 
L 308.792924 100.663692 
L 311.71774 117.860808 
L 322.117084 180.354154 
L 324.716921 194.12526 
L 326.991777 205.113283 
L 329.266634 215.019268 
L 331.216511 222.619871 
L 333.166388 229.399614 
L 335.116265 235.379571 
L 337.066143 240.596418 
L 339.01602 245.09872 
L 340.640917 248.34568 
L 342.265815 251.171596 
L 343.890713 253.613479 
L 345.51561 255.708587 
L 347.140508 257.493567 
L 349.090385 259.275811 
L 351.040262 260.719753 
L 352.990139 261.878129 
L 354.940016 262.798371 
L 357.214873 263.62659 
L 359.814709 264.318544 
L 362.739525 264.854709 
L 366.3143 265.267992 
L 370.864013 265.553975 
L 377.688583 265.728131 
L 391.012744 265.793369 
L 398.487273 265.797022 
L 398.487273 265.797022 
" clip-path="url(#p824234fb02)" style="fill: none; stroke: #000000; stroke-width: 2; stroke-linecap: square"/>
   </g>
   <g id="line2d_6">
    <path d="M 57.6 265.797818 
L 414.72 265.797818 
" clip-path="url(#p824234fb02)" style="fill: none; stroke: #000000; stroke-linecap: square"/>
   </g>
   <g id="line2d_7">
    <path d="M 84.305455 276.48 
L 84.305455 41.472 
" clip-path="url(#p824234fb02)" style="fill: none; stroke: #000000; stroke-linecap: square"/>
   </g>
  </g>
 </g>
 <defs>
  <clipPath id="p824234fb02">
   <rect x="57.6" y="41.472" width="357.12" height="235.008"/>
  </clipPath>
 </defs>
 <defs>
  <pattern id="h5d5b8fb474" patternUnits="userSpaceOnUse" x="0" y="0" width="72" height="72">
   <rect x="0" y="0" width="73" height="73" fill="none"/>
   <path d="M -36 36 
L 36 -36 
M -33.6 38.4 
L 38.4 -33.6 
M -31.2 40.8 
L 40.8 -31.2 
M -28.8 43.2 
L 43.2 -28.8 
M -26.4 45.6 
L 45.6 -26.4 
M -24 48 
L 48 -24 
M -21.6 50.4 
L 50.4 -21.6 
M -19.2 52.8 
L 52.8 -19.2 
M -16.8 55.2 
L 55.2 -16.8 
M -14.4 57.6 
L 57.6 -14.4 
M -12 60 
L 60 -12 
M -9.6 62.4 
L 62.4 -9.6 
M -7.2 64.8 
L 64.8 -7.2 
M -4.8 67.2 
L 67.2 -4.8 
M -2.4 69.6 
L 69.6 -2.4 
M 0 72 
L 72 0 
M 2.4 74.4 
L 74.4 2.4 
M 4.8 76.8 
L 76.8 4.8 
M 7.2 79.2 
L 79.2 7.2 
M 9.6 81.6 
L 81.6 9.6 
M 12 84 
L 84 12 
M 14.4 86.4 
L 86.4 14.4 
M 16.8 88.8 
L 88.8 16.8 
M 19.2 91.2 
L 91.2 19.2 
M 21.6 93.6 
L 93.6 21.6 
M 24 96 
L 96 24 
M 26.4 98.4 
L 98.4 26.4 
M 28.8 100.8 
L 100.8 28.8 
M 31.2 103.2 
L 103.2 31.2 
M 33.6 105.6 
L 105.6 33.6 
M 36 108 
L 108 36 
" style="fill: #000000; stroke: #000000; stroke-width: 1.0; stroke-linecap: butt; stroke-linejoin: miter"/>
  </pattern>
 </defs>
</svg>
