<?xml version="1.0" encoding="utf-8" standalone="no"?>
<!DOCTYPE svg PUBLIC "-//W3C//DTD SVG 1.1//EN"
  "http://www.w3.org/Graphics/SVG/1.1/DTD/svg11.dtd">
<svg xmlns:xlink="http://www.w3.org/1999/xlink" width="460.8pt" height="345.6pt" viewBox="0 0 460.8 345.6" xmlns="http://www.w3.org/2000/svg" version="1.1">
 <metadata>
  <rdf:RDF xmlns:dc="http://purl.org/dc/elements/1.1/" xmlns:cc="http://creativecommons.org/ns#" xmlns:rdf="http://www.w3.org/1999/02/22-rdf-syntax-ns#">
   <cc:Work>
    <dc:type rdf:resource="http://purl.org/dc/dcmitype/StillImage"/>
    <dc:date>2023-01-24T17:36:37.624346</dc:date>
    <dc:format>image/svg+xml</dc:format>
    <dc:creator>
     <cc:Agent>
      <dc:title>Matplotlib v3.6.3, https://matplotlib.org/</dc:title>
     </cc:Agent>
    </dc:creator>
   </cc:Work>
  </rdf:RDF>
 </metadata>
 <defs>
  <style type="text/css">*{stroke-linejoin: round; stroke-linecap: butt}</style>
 </defs>
 <g id="figure_1">
  <g id="patch_1">
   <path d="M 0 345.6 
L 460.8 345.6 
L 460.8 0 
L 0 0 
L 0 345.6 
z
" style="fill: none"/>
  </g>
  <g id="axes_1">
   <g id="line2d_1">
    <path d="M 73.832727 53.568 
L 76.107584 53.685211 
L 78.382441 54.036616 
L 80.657297 54.621535 
L 82.932154 55.438833 
L 85.207011 56.486927 
L 87.481867 57.763786 
L 90.081704 59.499979 
L 92.68154 61.527325 
L 95.281376 63.840693 
L 97.881212 66.434228 
L 100.806028 69.67864 
L 103.730844 73.258917 
L 106.980639 77.616934 
L 110.230434 82.358181 
L 113.805209 87.993765 
L 117.379984 94.043377 
L 121.279738 101.081091 
L 125.504472 109.175867 
L 130.054185 118.380028 
L 135.253857 129.427468 
L 141.103489 142.39555 
L 148.578018 159.541568 
L 171.001605 211.400247 
L 176.851237 224.178625 
L 182.050909 235.008449 
L 186.600622 243.986154 
L 190.825356 251.842126 
L 194.725111 258.636434 
L 198.299885 264.444768 
L 201.87466 269.822892 
L 205.124455 274.317079 
L 208.374251 278.416657 
L 211.299066 281.755454 
L 214.223882 284.75077 
L 216.823718 287.117137 
L 219.423554 289.198525 
L 222.023391 290.989666 
L 224.623227 292.486027 
L 226.898084 293.550534 
L 229.17294 294.384375 
L 231.447797 294.985935 
L 233.722654 295.354048 
L 235.99751 295.488 
L 238.272367 295.387531 
L 240.547224 295.052837 
L 242.82208 294.484566 
L 245.096937 293.683819 
L 247.371794 292.652148 
L 249.64665 291.391553 
L 252.246486 289.673711 
L 254.846323 287.664419 
L 257.446159 285.368763 
L 260.045995 282.792554 
L 262.970811 279.567116 
L 265.895627 276.005207 
L 269.145422 271.666816 
L 272.395217 266.944297 
L 275.969992 261.328189 
L 279.544767 255.296783 
L 283.444521 248.277381 
L 287.669255 240.200499 
L 292.218968 231.013216 
L 297.41864 219.981865 
L 303.268272 207.02761 
L 310.742801 189.892413 
L 333.816347 136.571153 
L 339.665979 123.839598 
L 344.865651 113.062578 
L 349.415364 104.139276 
L 353.640098 96.340293 
L 357.539853 89.603782 
L 361.114627 83.852521 
L 364.689402 78.535103 
L 367.939197 74.099012 
L 371.188993 70.060063 
L 374.113808 66.777799 
L 377.038624 63.840693 
L 379.63846 61.527325 
L 382.238296 59.499979 
L 384.838133 57.763786 
L 387.112989 56.486927 
L 389.387846 55.438833 
L 391.662703 54.621535 
L 393.937559 54.036616 
L 396.212416 53.685211 
L 398.487273 53.568 
L 398.487273 53.568 
" clip-path="url(#pc58fbc9e11)" style="fill: none; stroke: #000000; stroke-width: 1.5; stroke-linecap: square"/>
   </g>
   <g id="line2d_2">
    <path d="M 73.832727 53.568 
L 74.482686 53.721084 
L 75.132645 54.179949 
L 75.782604 54.943433 
L 76.432563 56.009603 
L 77.407502 58.170285 
L 78.382441 60.993461 
L 79.357379 64.463056 
L 80.657297 70.060063 
L 81.957215 76.714098 
L 83.582113 86.414555 
L 85.207011 97.507399 
L 87.156888 112.408564 
L 89.431744 131.55312 
L 92.68154 161.052544 
L 99.18113 220.685982 
L 101.455987 239.560317 
L 103.405864 254.157769 
L 105.030762 264.951867 
L 106.655659 274.317079 
L 107.955577 280.68018 
L 109.255495 285.969218 
L 110.230434 289.198525 
L 111.205373 291.774948 
L 112.180311 293.683819 
L 112.83027 294.580011 
L 113.480229 295.172335 
L 114.130188 295.459292 
L 114.780147 295.440154 
L 115.430106 295.114971 
L 116.080066 294.484566 
L 116.730025 293.550534 
L 117.704963 291.585566 
L 118.679902 288.954123 
L 119.65484 285.671189 
L 120.954758 280.313338 
L 122.254676 273.885136 
L 123.879574 264.444768 
L 125.504472 253.583526 
L 127.454349 238.917563 
L 129.729206 219.981865 
L 132.654021 193.657268 
L 140.12855 125.225084 
L 142.403407 106.636088 
L 144.353284 92.35404 
L 145.978182 81.867334 
L 147.603079 72.84487 
L 148.902998 66.777799 
L 150.202916 61.800967 
L 151.177854 58.814535 
L 152.152793 56.486927 
L 153.127731 54.831397 
L 153.77769 54.105901 
L 154.427649 53.685211 
L 155.077609 53.570392 
L 155.727568 53.761736 
L 156.377527 54.258758 
L 157.027486 55.060199 
L 157.677445 56.164031 
L 158.652383 58.380444 
L 159.627322 61.258153 
L 160.60226 64.780774 
L 161.902179 70.445619 
L 163.202097 77.16359 
L 164.826994 86.937501 
L 166.451892 98.095534 
L 168.401769 113.062578 
L 170.676626 132.265108 
L 173.926421 161.808846 
L 180.426011 221.388273 
L 182.700868 240.200499 
L 184.650745 254.728863 
L 186.275643 265.45539 
L 187.900541 274.745074 
L 189.200459 281.042823 
L 190.500377 286.262839 
L 191.475315 289.438391 
L 192.450254 291.959693 
L 193.425192 293.812391 
L 194.075152 294.670708 
L 194.725111 295.224927 
L 195.37507 295.473646 
L 196.025029 295.416234 
L 196.674988 295.052837 
L 197.324947 294.384375 
L 197.974906 293.41254 
L 198.949844 291.391553 
L 199.924783 288.705195 
L 200.899722 285.368763 
L 202.19964 279.942312 
L 203.499558 273.449264 
L 205.124455 263.934112 
L 206.749353 253.006156 
L 208.69923 238.272263 
L 210.974087 219.275949 
L 214.223882 189.892413 
L 221.048452 127.317873 
L 223.323309 108.536981 
L 225.273186 94.043377 
L 226.898084 83.350795 
L 228.522981 74.099012 
L 229.822899 67.834033 
L 231.122817 62.648605 
L 232.097756 59.499979 
L 233.072695 57.006274 
L 234.047633 55.181691 
L 234.697592 54.342324 
L 235.347551 53.807165 
L 235.99751 53.57757 
L 236.647469 53.654118 
L 237.297428 54.036616 
L 237.947387 54.724096 
L 238.597346 55.714818 
L 239.572285 57.763786 
L 240.547224 60.477561 
L 241.522162 63.840693 
L 242.82208 69.301364 
L 244.121998 75.826739 
L 245.746896 85.379142 
L 247.371794 96.340293 
L 249.321671 111.107933 
L 251.596527 130.134272 
L 254.846323 159.541568 
L 261.670893 222.088711 
L 263.945749 240.838082 
L 265.895627 255.296783 
L 267.520524 265.955315 
L 269.145422 275.169105 
L 270.44534 281.401252 
L 271.745258 286.55204 
L 272.720197 289.673711 
L 273.695135 292.139792 
L 274.670074 293.936244 
L 275.320033 294.756652 
L 275.969992 295.272744 
L 276.619951 295.483215 
L 277.26991 295.387531 
L 277.919869 294.985935 
L 278.569828 294.279444 
L 279.219787 293.269844 
L 280.194726 291.192917 
L 281.169664 288.451751 
L 282.144603 285.061953 
L 283.444521 279.567116 
L 284.744439 273.009478 
L 286.369337 263.419919 
L 287.994234 252.425682 
L 289.944111 237.62444 
L 292.218968 218.568264 
L 295.468763 189.137499 
L 302.293333 126.618372 
L 304.56819 107.900706 
L 306.518067 93.477051 
L 308.142965 82.852675 
L 309.767862 73.67697 
L 311.067781 67.477716 
L 312.367699 62.361619 
L 313.342637 59.266935 
L 314.317576 56.828501 
L 315.292514 55.060199 
L 315.942473 54.258758 
L 316.592432 53.761736 
L 317.242391 53.570392 
L 317.892351 53.685211 
L 318.54231 54.105901 
L 319.192269 54.831397 
L 319.842228 55.859864 
L 320.817166 57.96473 
L 321.792105 60.73326 
L 322.767043 64.149691 
L 324.066962 69.67864 
L 325.36688 76.268475 
L 326.991777 85.895096 
L 328.616675 96.922311 
L 330.566552 111.757007 
L 332.841409 130.842832 
L 336.091204 160.296775 
L 342.590794 219.981865 
L 345.190631 241.473043 
L 347.140508 255.861509 
L 348.765405 266.451624 
L 350.390303 275.589155 
L 351.690221 281.755454 
L 352.990139 286.83681 
L 353.965078 289.904476 
L 354.940016 292.315239 
L 355.914955 294.055373 
L 356.564914 294.83784 
L 357.214873 295.315785 
L 357.864832 295.488 
L 358.514791 295.354048 
L 359.16475 294.914269 
L 359.814709 294.169775 
L 360.464668 293.122451 
L 361.439607 290.989666 
L 362.414545 288.193799 
L 363.389484 284.75077 
L 364.689402 279.187764 
L 365.98932 272.565796 
L 367.614218 262.902209 
L 369.239115 251.842126 
L 371.188993 236.974122 
L 373.463849 217.858837 
L 376.713645 188.382007 
L 383.213235 128.722448 
L 385.813071 107.267066 
L 387.762948 92.913932 
L 389.387846 82.358181 
L 391.012744 73.258917 
L 392.312662 67.125633 
L 393.61258 62.079069 
L 394.587518 59.038451 
L 395.562457 56.655382 
L 396.537396 54.943433 
L 397.187355 54.179949 
L 397.837314 53.721084 
L 398.487273 53.568 
L 398.487273 53.568 
" clip-path="url(#pc58fbc9e11)" style="fill: none; stroke-dasharray: 5.55,2.4; stroke-dashoffset: 0; stroke: #000000; stroke-width: 1.5"/>
   </g>
  </g>
 </g>
 <defs>
  <clipPath id="pc58fbc9e11">
   <rect x="57.6" y="41.472" width="357.12" height="266.112"/>
  </clipPath>
 </defs>
</svg>
