<?xml version="1.0" encoding="utf-8" standalone="no"?>
<!DOCTYPE svg PUBLIC "-//W3C//DTD SVG 1.1//EN"
  "http://www.w3.org/Graphics/SVG/1.1/DTD/svg11.dtd">
<svg xmlns:xlink="http://www.w3.org/1999/xlink" width="720pt" height="720pt" viewBox="0 0 720 720" xmlns="http://www.w3.org/2000/svg" version="1.1">
 <metadata>
  <rdf:RDF xmlns:dc="http://purl.org/dc/elements/1.1/" xmlns:cc="http://creativecommons.org/ns#" xmlns:rdf="http://www.w3.org/1999/02/22-rdf-syntax-ns#">
   <cc:Work>
    <dc:type rdf:resource="http://purl.org/dc/dcmitype/StillImage"/>
    <dc:date>2023-01-25T10:52:11.233506</dc:date>
    <dc:format>image/svg+xml</dc:format>
    <dc:creator>
     <cc:Agent>
      <dc:title>Matplotlib v3.6.3, https://matplotlib.org/</dc:title>
     </cc:Agent>
    </dc:creator>
   </cc:Work>
  </rdf:RDF>
 </metadata>
 <defs>
  <style type="text/css">*{stroke-linejoin: round; stroke-linecap: butt}</style>
 </defs>
 <g id="figure_1">
  <g id="patch_1">
   <path d="M 0 720 
L 720 720 
L 720 0 
L 0 0 
L 0 720 
z
" style="fill: none"/>
  </g>
  <g id="axes_1">
   <g id="patch_2">
    <path d="M 90 640.8 
L 648 640.8 
L 648 86.4 
L 90 86.4 
L 90 640.8 
z
" style="fill: none"/>
   </g>
   <g id="matplotlib.axis_1">
    <g id="xtick_1">
     <g id="line2d_1">
      <path d="M 90 640.8 
L 90 86.4 
" clip-path="url(#pebdf999493)" style="fill: none; stroke: #cccccc; stroke-width: 0.8; stroke-linecap: round"/>
     </g>
     <g id="text_1">
      <!-- 0 -->
      <g style="fill: #262626" transform="translate(86.81875 655.398438) scale(0.1 -0.1)">
       <defs>
        <path id="DejaVuSans-30" d="M 2034 4250 
Q 1547 4250 1301 3770 
Q 1056 3291 1056 2328 
Q 1056 1369 1301 889 
Q 1547 409 2034 409 
Q 2525 409 2770 889 
Q 3016 1369 3016 2328 
Q 3016 3291 2770 3770 
Q 2525 4250 2034 4250 
z
M 2034 4750 
Q 2819 4750 3233 4129 
Q 3647 3509 3647 2328 
Q 3647 1150 3233 529 
Q 2819 -91 2034 -91 
Q 1250 -91 836 529 
Q 422 1150 422 2328 
Q 422 3509 836 4129 
Q 1250 4750 2034 4750 
z
" transform="scale(0.015625)"/>
       </defs>
       <use xlink:href="#DejaVuSans-30"/>
      </g>
     </g>
    </g>
    <g id="xtick_2">
     <g id="line2d_2">
      <path d="M 201.6 640.8 
L 201.6 86.4 
" clip-path="url(#pebdf999493)" style="fill: none; stroke: #cccccc; stroke-width: 0.8; stroke-linecap: round"/>
     </g>
     <g id="text_2">
      <!-- 50 -->
      <g style="fill: #262626" transform="translate(195.2375 655.398438) scale(0.1 -0.1)">
       <defs>
        <path id="DejaVuSans-35" d="M 691 4666 
L 3169 4666 
L 3169 4134 
L 1269 4134 
L 1269 2991 
Q 1406 3038 1543 3061 
Q 1681 3084 1819 3084 
Q 2600 3084 3056 2656 
Q 3513 2228 3513 1497 
Q 3513 744 3044 326 
Q 2575 -91 1722 -91 
Q 1428 -91 1123 -41 
Q 819 9 494 109 
L 494 744 
Q 775 591 1075 516 
Q 1375 441 1709 441 
Q 2250 441 2565 725 
Q 2881 1009 2881 1497 
Q 2881 1984 2565 2268 
Q 2250 2553 1709 2553 
Q 1456 2553 1204 2497 
Q 953 2441 691 2322 
L 691 4666 
z
" transform="scale(0.015625)"/>
       </defs>
       <use xlink:href="#DejaVuSans-35"/>
       <use xlink:href="#DejaVuSans-30" x="63.623047"/>
      </g>
     </g>
    </g>
    <g id="xtick_3">
     <g id="line2d_3">
      <path d="M 313.2 640.8 
L 313.2 86.4 
" clip-path="url(#pebdf999493)" style="fill: none; stroke: #cccccc; stroke-width: 0.8; stroke-linecap: round"/>
     </g>
     <g id="text_3">
      <!-- 100 -->
      <g style="fill: #262626" transform="translate(303.65625 655.398438) scale(0.1 -0.1)">
       <defs>
        <path id="DejaVuSans-31" d="M 794 531 
L 1825 531 
L 1825 4091 
L 703 3866 
L 703 4441 
L 1819 4666 
L 2450 4666 
L 2450 531 
L 3481 531 
L 3481 0 
L 794 0 
L 794 531 
z
" transform="scale(0.015625)"/>
       </defs>
       <use xlink:href="#DejaVuSans-31"/>
       <use xlink:href="#DejaVuSans-30" x="63.623047"/>
       <use xlink:href="#DejaVuSans-30" x="127.246094"/>
      </g>
     </g>
    </g>
    <g id="xtick_4">
     <g id="line2d_4">
      <path d="M 424.8 640.8 
L 424.8 86.4 
" clip-path="url(#pebdf999493)" style="fill: none; stroke: #cccccc; stroke-width: 0.8; stroke-linecap: round"/>
     </g>
     <g id="text_4">
      <!-- 150 -->
      <g style="fill: #262626" transform="translate(415.25625 655.398438) scale(0.1 -0.1)">
       <use xlink:href="#DejaVuSans-31"/>
       <use xlink:href="#DejaVuSans-35" x="63.623047"/>
       <use xlink:href="#DejaVuSans-30" x="127.246094"/>
      </g>
     </g>
    </g>
    <g id="xtick_5">
     <g id="line2d_5">
      <path d="M 536.4 640.8 
L 536.4 86.4 
" clip-path="url(#pebdf999493)" style="fill: none; stroke: #cccccc; stroke-width: 0.8; stroke-linecap: round"/>
     </g>
     <g id="text_5">
      <!-- 200 -->
      <g style="fill: #262626" transform="translate(526.85625 655.398438) scale(0.1 -0.1)">
       <defs>
        <path id="DejaVuSans-32" d="M 1228 531 
L 3431 531 
L 3431 0 
L 469 0 
L 469 531 
Q 828 903 1448 1529 
Q 2069 2156 2228 2338 
Q 2531 2678 2651 2914 
Q 2772 3150 2772 3378 
Q 2772 3750 2511 3984 
Q 2250 4219 1831 4219 
Q 1534 4219 1204 4116 
Q 875 4013 500 3803 
L 500 4441 
Q 881 4594 1212 4672 
Q 1544 4750 1819 4750 
Q 2544 4750 2975 4387 
Q 3406 4025 3406 3419 
Q 3406 3131 3298 2873 
Q 3191 2616 2906 2266 
Q 2828 2175 2409 1742 
Q 1991 1309 1228 531 
z
" transform="scale(0.015625)"/>
       </defs>
       <use xlink:href="#DejaVuSans-32"/>
       <use xlink:href="#DejaVuSans-30" x="63.623047"/>
       <use xlink:href="#DejaVuSans-30" x="127.246094"/>
      </g>
     </g>
    </g>
    <g id="xtick_6">
     <g id="line2d_6">
      <path d="M 648 640.8 
L 648 86.4 
" clip-path="url(#pebdf999493)" style="fill: none; stroke: #cccccc; stroke-width: 0.8; stroke-linecap: round"/>
     </g>
     <g id="text_6">
      <!-- 250 -->
      <g style="fill: #262626" transform="translate(638.45625 655.398438) scale(0.1 -0.1)">
       <use xlink:href="#DejaVuSans-32"/>
       <use xlink:href="#DejaVuSans-35" x="63.623047"/>
       <use xlink:href="#DejaVuSans-30" x="127.246094"/>
      </g>
     </g>
    </g>
    <g id="text_7">
     <!-- Position -->
     <g style="fill: #262626" transform="translate(349.535937 669.076563) scale(0.1 -0.1)">
      <defs>
       <path id="DejaVuSans-50" d="M 1259 4147 
L 1259 2394 
L 2053 2394 
Q 2494 2394 2734 2622 
Q 2975 2850 2975 3272 
Q 2975 3691 2734 3919 
Q 2494 4147 2053 4147 
L 1259 4147 
z
M 628 4666 
L 2053 4666 
Q 2838 4666 3239 4311 
Q 3641 3956 3641 3272 
Q 3641 2581 3239 2228 
Q 2838 1875 2053 1875 
L 1259 1875 
L 1259 0 
L 628 0 
L 628 4666 
z
" transform="scale(0.015625)"/>
       <path id="DejaVuSans-6f" d="M 1959 3097 
Q 1497 3097 1228 2736 
Q 959 2375 959 1747 
Q 959 1119 1226 758 
Q 1494 397 1959 397 
Q 2419 397 2687 759 
Q 2956 1122 2956 1747 
Q 2956 2369 2687 2733 
Q 2419 3097 1959 3097 
z
M 1959 3584 
Q 2709 3584 3137 3096 
Q 3566 2609 3566 1747 
Q 3566 888 3137 398 
Q 2709 -91 1959 -91 
Q 1206 -91 779 398 
Q 353 888 353 1747 
Q 353 2609 779 3096 
Q 1206 3584 1959 3584 
z
" transform="scale(0.015625)"/>
       <path id="DejaVuSans-73" d="M 2834 3397 
L 2834 2853 
Q 2591 2978 2328 3040 
Q 2066 3103 1784 3103 
Q 1356 3103 1142 2972 
Q 928 2841 928 2578 
Q 928 2378 1081 2264 
Q 1234 2150 1697 2047 
L 1894 2003 
Q 2506 1872 2764 1633 
Q 3022 1394 3022 966 
Q 3022 478 2636 193 
Q 2250 -91 1575 -91 
Q 1294 -91 989 -36 
Q 684 19 347 128 
L 347 722 
Q 666 556 975 473 
Q 1284 391 1588 391 
Q 1994 391 2212 530 
Q 2431 669 2431 922 
Q 2431 1156 2273 1281 
Q 2116 1406 1581 1522 
L 1381 1569 
Q 847 1681 609 1914 
Q 372 2147 372 2553 
Q 372 3047 722 3315 
Q 1072 3584 1716 3584 
Q 2034 3584 2315 3537 
Q 2597 3491 2834 3397 
z
" transform="scale(0.015625)"/>
       <path id="DejaVuSans-69" d="M 603 3500 
L 1178 3500 
L 1178 0 
L 603 0 
L 603 3500 
z
M 603 4863 
L 1178 4863 
L 1178 4134 
L 603 4134 
L 603 4863 
z
" transform="scale(0.015625)"/>
       <path id="DejaVuSans-74" d="M 1172 4494 
L 1172 3500 
L 2356 3500 
L 2356 3053 
L 1172 3053 
L 1172 1153 
Q 1172 725 1289 603 
Q 1406 481 1766 481 
L 2356 481 
L 2356 0 
L 1766 0 
Q 1100 0 847 248 
Q 594 497 594 1153 
L 594 3053 
L 172 3053 
L 172 3500 
L 594 3500 
L 594 4494 
L 1172 4494 
z
" transform="scale(0.015625)"/>
       <path id="DejaVuSans-6e" d="M 3513 2113 
L 3513 0 
L 2938 0 
L 2938 2094 
Q 2938 2591 2744 2837 
Q 2550 3084 2163 3084 
Q 1697 3084 1428 2787 
Q 1159 2491 1159 1978 
L 1159 0 
L 581 0 
L 581 3500 
L 1159 3500 
L 1159 2956 
Q 1366 3272 1645 3428 
Q 1925 3584 2291 3584 
Q 2894 3584 3203 3211 
Q 3513 2838 3513 2113 
z
" transform="scale(0.015625)"/>
      </defs>
      <use xlink:href="#DejaVuSans-50"/>
      <use xlink:href="#DejaVuSans-6f" x="56.677734"/>
      <use xlink:href="#DejaVuSans-73" x="117.859375"/>
      <use xlink:href="#DejaVuSans-69" x="169.958984"/>
      <use xlink:href="#DejaVuSans-74" x="197.742188"/>
      <use xlink:href="#DejaVuSans-69" x="236.951172"/>
      <use xlink:href="#DejaVuSans-6f" x="264.734375"/>
      <use xlink:href="#DejaVuSans-6e" x="325.916016"/>
     </g>
    </g>
   </g>
   <g id="matplotlib.axis_2">
    <g id="ytick_1">
     <g id="line2d_7">
      <path d="M 90 640.8 
L 648 640.8 
" clip-path="url(#pebdf999493)" style="fill: none; stroke: #cccccc; stroke-width: 0.8; stroke-linecap: round"/>
     </g>
     <g id="text_8">
      <!-- 0.0 -->
      <g style="fill: #262626" transform="translate(67.096875 644.599219) scale(0.1 -0.1)">
       <defs>
        <path id="DejaVuSans-2e" d="M 684 794 
L 1344 794 
L 1344 0 
L 684 0 
L 684 794 
z
" transform="scale(0.015625)"/>
       </defs>
       <use xlink:href="#DejaVuSans-30"/>
       <use xlink:href="#DejaVuSans-2e" x="63.623047"/>
       <use xlink:href="#DejaVuSans-30" x="95.410156"/>
      </g>
     </g>
    </g>
    <g id="ytick_2">
     <g id="line2d_8">
      <path d="M 90 529.92 
L 648 529.92 
" clip-path="url(#pebdf999493)" style="fill: none; stroke: #cccccc; stroke-width: 0.8; stroke-linecap: round"/>
     </g>
     <g id="text_9">
      <!-- 0.2 -->
      <g style="fill: #262626" transform="translate(67.096875 533.719219) scale(0.1 -0.1)">
       <use xlink:href="#DejaVuSans-30"/>
       <use xlink:href="#DejaVuSans-2e" x="63.623047"/>
       <use xlink:href="#DejaVuSans-32" x="95.410156"/>
      </g>
     </g>
    </g>
    <g id="ytick_3">
     <g id="line2d_9">
      <path d="M 90 419.04 
L 648 419.04 
" clip-path="url(#pebdf999493)" style="fill: none; stroke: #cccccc; stroke-width: 0.8; stroke-linecap: round"/>
     </g>
     <g id="text_10">
      <!-- 0.4 -->
      <g style="fill: #262626" transform="translate(67.096875 422.839219) scale(0.1 -0.1)">
       <defs>
        <path id="DejaVuSans-34" d="M 2419 4116 
L 825 1625 
L 2419 1625 
L 2419 4116 
z
M 2253 4666 
L 3047 4666 
L 3047 1625 
L 3713 1625 
L 3713 1100 
L 3047 1100 
L 3047 0 
L 2419 0 
L 2419 1100 
L 313 1100 
L 313 1709 
L 2253 4666 
z
" transform="scale(0.015625)"/>
       </defs>
       <use xlink:href="#DejaVuSans-30"/>
       <use xlink:href="#DejaVuSans-2e" x="63.623047"/>
       <use xlink:href="#DejaVuSans-34" x="95.410156"/>
      </g>
     </g>
    </g>
    <g id="ytick_4">
     <g id="line2d_10">
      <path d="M 90 308.16 
L 648 308.16 
" clip-path="url(#pebdf999493)" style="fill: none; stroke: #cccccc; stroke-width: 0.8; stroke-linecap: round"/>
     </g>
     <g id="text_11">
      <!-- 0.6 -->
      <g style="fill: #262626" transform="translate(67.096875 311.959219) scale(0.1 -0.1)">
       <defs>
        <path id="DejaVuSans-36" d="M 2113 2584 
Q 1688 2584 1439 2293 
Q 1191 2003 1191 1497 
Q 1191 994 1439 701 
Q 1688 409 2113 409 
Q 2538 409 2786 701 
Q 3034 994 3034 1497 
Q 3034 2003 2786 2293 
Q 2538 2584 2113 2584 
z
M 3366 4563 
L 3366 3988 
Q 3128 4100 2886 4159 
Q 2644 4219 2406 4219 
Q 1781 4219 1451 3797 
Q 1122 3375 1075 2522 
Q 1259 2794 1537 2939 
Q 1816 3084 2150 3084 
Q 2853 3084 3261 2657 
Q 3669 2231 3669 1497 
Q 3669 778 3244 343 
Q 2819 -91 2113 -91 
Q 1303 -91 875 529 
Q 447 1150 447 2328 
Q 447 3434 972 4092 
Q 1497 4750 2381 4750 
Q 2619 4750 2861 4703 
Q 3103 4656 3366 4563 
z
" transform="scale(0.015625)"/>
       </defs>
       <use xlink:href="#DejaVuSans-30"/>
       <use xlink:href="#DejaVuSans-2e" x="63.623047"/>
       <use xlink:href="#DejaVuSans-36" x="95.410156"/>
      </g>
     </g>
    </g>
    <g id="ytick_5">
     <g id="line2d_11">
      <path d="M 90 197.28 
L 648 197.28 
" clip-path="url(#pebdf999493)" style="fill: none; stroke: #cccccc; stroke-width: 0.8; stroke-linecap: round"/>
     </g>
     <g id="text_12">
      <!-- 0.8 -->
      <g style="fill: #262626" transform="translate(67.096875 201.079219) scale(0.1 -0.1)">
       <defs>
        <path id="DejaVuSans-38" d="M 2034 2216 
Q 1584 2216 1326 1975 
Q 1069 1734 1069 1313 
Q 1069 891 1326 650 
Q 1584 409 2034 409 
Q 2484 409 2743 651 
Q 3003 894 3003 1313 
Q 3003 1734 2745 1975 
Q 2488 2216 2034 2216 
z
M 1403 2484 
Q 997 2584 770 2862 
Q 544 3141 544 3541 
Q 544 4100 942 4425 
Q 1341 4750 2034 4750 
Q 2731 4750 3128 4425 
Q 3525 4100 3525 3541 
Q 3525 3141 3298 2862 
Q 3072 2584 2669 2484 
Q 3125 2378 3379 2068 
Q 3634 1759 3634 1313 
Q 3634 634 3220 271 
Q 2806 -91 2034 -91 
Q 1263 -91 848 271 
Q 434 634 434 1313 
Q 434 1759 690 2068 
Q 947 2378 1403 2484 
z
M 1172 3481 
Q 1172 3119 1398 2916 
Q 1625 2713 2034 2713 
Q 2441 2713 2670 2916 
Q 2900 3119 2900 3481 
Q 2900 3844 2670 4047 
Q 2441 4250 2034 4250 
Q 1625 4250 1398 4047 
Q 1172 3844 1172 3481 
z
" transform="scale(0.015625)"/>
       </defs>
       <use xlink:href="#DejaVuSans-30"/>
       <use xlink:href="#DejaVuSans-2e" x="63.623047"/>
       <use xlink:href="#DejaVuSans-38" x="95.410156"/>
      </g>
     </g>
    </g>
    <g id="ytick_6">
     <g id="line2d_12">
      <path d="M 90 86.4 
L 648 86.4 
" clip-path="url(#pebdf999493)" style="fill: none; stroke: #cccccc; stroke-width: 0.8; stroke-linecap: round"/>
     </g>
     <g id="text_13">
      <!-- 1.0 -->
      <g style="fill: #262626" transform="translate(67.096875 90.199219) scale(0.1 -0.1)">
       <use xlink:href="#DejaVuSans-31"/>
       <use xlink:href="#DejaVuSans-2e" x="63.623047"/>
       <use xlink:href="#DejaVuSans-30" x="95.410156"/>
      </g>
     </g>
    </g>
    <g id="text_14">
     <!-- Cosine distance from position 1 -->
     <g style="fill: #262626" transform="translate(61.017187 442.551562) rotate(-90) scale(0.1 -0.1)">
      <defs>
       <path id="DejaVuSans-43" d="M 4122 4306 
L 4122 3641 
Q 3803 3938 3442 4084 
Q 3081 4231 2675 4231 
Q 1875 4231 1450 3742 
Q 1025 3253 1025 2328 
Q 1025 1406 1450 917 
Q 1875 428 2675 428 
Q 3081 428 3442 575 
Q 3803 722 4122 1019 
L 4122 359 
Q 3791 134 3420 21 
Q 3050 -91 2638 -91 
Q 1578 -91 968 557 
Q 359 1206 359 2328 
Q 359 3453 968 4101 
Q 1578 4750 2638 4750 
Q 3056 4750 3426 4639 
Q 3797 4528 4122 4306 
z
" transform="scale(0.015625)"/>
       <path id="DejaVuSans-65" d="M 3597 1894 
L 3597 1613 
L 953 1613 
Q 991 1019 1311 708 
Q 1631 397 2203 397 
Q 2534 397 2845 478 
Q 3156 559 3463 722 
L 3463 178 
Q 3153 47 2828 -22 
Q 2503 -91 2169 -91 
Q 1331 -91 842 396 
Q 353 884 353 1716 
Q 353 2575 817 3079 
Q 1281 3584 2069 3584 
Q 2775 3584 3186 3129 
Q 3597 2675 3597 1894 
z
M 3022 2063 
Q 3016 2534 2758 2815 
Q 2500 3097 2075 3097 
Q 1594 3097 1305 2825 
Q 1016 2553 972 2059 
L 3022 2063 
z
" transform="scale(0.015625)"/>
       <path id="DejaVuSans-20" transform="scale(0.015625)"/>
       <path id="DejaVuSans-64" d="M 2906 2969 
L 2906 4863 
L 3481 4863 
L 3481 0 
L 2906 0 
L 2906 525 
Q 2725 213 2448 61 
Q 2172 -91 1784 -91 
Q 1150 -91 751 415 
Q 353 922 353 1747 
Q 353 2572 751 3078 
Q 1150 3584 1784 3584 
Q 2172 3584 2448 3432 
Q 2725 3281 2906 2969 
z
M 947 1747 
Q 947 1113 1208 752 
Q 1469 391 1925 391 
Q 2381 391 2643 752 
Q 2906 1113 2906 1747 
Q 2906 2381 2643 2742 
Q 2381 3103 1925 3103 
Q 1469 3103 1208 2742 
Q 947 2381 947 1747 
z
" transform="scale(0.015625)"/>
       <path id="DejaVuSans-61" d="M 2194 1759 
Q 1497 1759 1228 1600 
Q 959 1441 959 1056 
Q 959 750 1161 570 
Q 1363 391 1709 391 
Q 2188 391 2477 730 
Q 2766 1069 2766 1631 
L 2766 1759 
L 2194 1759 
z
M 3341 1997 
L 3341 0 
L 2766 0 
L 2766 531 
Q 2569 213 2275 61 
Q 1981 -91 1556 -91 
Q 1019 -91 701 211 
Q 384 513 384 1019 
Q 384 1609 779 1909 
Q 1175 2209 1959 2209 
L 2766 2209 
L 2766 2266 
Q 2766 2663 2505 2880 
Q 2244 3097 1772 3097 
Q 1472 3097 1187 3025 
Q 903 2953 641 2809 
L 641 3341 
Q 956 3463 1253 3523 
Q 1550 3584 1831 3584 
Q 2591 3584 2966 3190 
Q 3341 2797 3341 1997 
z
" transform="scale(0.015625)"/>
       <path id="DejaVuSans-63" d="M 3122 3366 
L 3122 2828 
Q 2878 2963 2633 3030 
Q 2388 3097 2138 3097 
Q 1578 3097 1268 2742 
Q 959 2388 959 1747 
Q 959 1106 1268 751 
Q 1578 397 2138 397 
Q 2388 397 2633 464 
Q 2878 531 3122 666 
L 3122 134 
Q 2881 22 2623 -34 
Q 2366 -91 2075 -91 
Q 1284 -91 818 406 
Q 353 903 353 1747 
Q 353 2603 823 3093 
Q 1294 3584 2113 3584 
Q 2378 3584 2631 3529 
Q 2884 3475 3122 3366 
z
" transform="scale(0.015625)"/>
       <path id="DejaVuSans-66" d="M 2375 4863 
L 2375 4384 
L 1825 4384 
Q 1516 4384 1395 4259 
Q 1275 4134 1275 3809 
L 1275 3500 
L 2222 3500 
L 2222 3053 
L 1275 3053 
L 1275 0 
L 697 0 
L 697 3053 
L 147 3053 
L 147 3500 
L 697 3500 
L 697 3744 
Q 697 4328 969 4595 
Q 1241 4863 1831 4863 
L 2375 4863 
z
" transform="scale(0.015625)"/>
       <path id="DejaVuSans-72" d="M 2631 2963 
Q 2534 3019 2420 3045 
Q 2306 3072 2169 3072 
Q 1681 3072 1420 2755 
Q 1159 2438 1159 1844 
L 1159 0 
L 581 0 
L 581 3500 
L 1159 3500 
L 1159 2956 
Q 1341 3275 1631 3429 
Q 1922 3584 2338 3584 
Q 2397 3584 2469 3576 
Q 2541 3569 2628 3553 
L 2631 2963 
z
" transform="scale(0.015625)"/>
       <path id="DejaVuSans-6d" d="M 3328 2828 
Q 3544 3216 3844 3400 
Q 4144 3584 4550 3584 
Q 5097 3584 5394 3201 
Q 5691 2819 5691 2113 
L 5691 0 
L 5113 0 
L 5113 2094 
Q 5113 2597 4934 2840 
Q 4756 3084 4391 3084 
Q 3944 3084 3684 2787 
Q 3425 2491 3425 1978 
L 3425 0 
L 2847 0 
L 2847 2094 
Q 2847 2600 2669 2842 
Q 2491 3084 2119 3084 
Q 1678 3084 1418 2786 
Q 1159 2488 1159 1978 
L 1159 0 
L 581 0 
L 581 3500 
L 1159 3500 
L 1159 2956 
Q 1356 3278 1631 3431 
Q 1906 3584 2284 3584 
Q 2666 3584 2933 3390 
Q 3200 3197 3328 2828 
z
" transform="scale(0.015625)"/>
       <path id="DejaVuSans-70" d="M 1159 525 
L 1159 -1331 
L 581 -1331 
L 581 3500 
L 1159 3500 
L 1159 2969 
Q 1341 3281 1617 3432 
Q 1894 3584 2278 3584 
Q 2916 3584 3314 3078 
Q 3713 2572 3713 1747 
Q 3713 922 3314 415 
Q 2916 -91 2278 -91 
Q 1894 -91 1617 61 
Q 1341 213 1159 525 
z
M 3116 1747 
Q 3116 2381 2855 2742 
Q 2594 3103 2138 3103 
Q 1681 3103 1420 2742 
Q 1159 2381 1159 1747 
Q 1159 1113 1420 752 
Q 1681 391 2138 391 
Q 2594 391 2855 752 
Q 3116 1113 3116 1747 
z
" transform="scale(0.015625)"/>
      </defs>
      <use xlink:href="#DejaVuSans-43"/>
      <use xlink:href="#DejaVuSans-6f" x="69.824219"/>
      <use xlink:href="#DejaVuSans-73" x="131.005859"/>
      <use xlink:href="#DejaVuSans-69" x="183.105469"/>
      <use xlink:href="#DejaVuSans-6e" x="210.888672"/>
      <use xlink:href="#DejaVuSans-65" x="274.267578"/>
      <use xlink:href="#DejaVuSans-20" x="335.791016"/>
      <use xlink:href="#DejaVuSans-64" x="367.578125"/>
      <use xlink:href="#DejaVuSans-69" x="431.054688"/>
      <use xlink:href="#DejaVuSans-73" x="458.837891"/>
      <use xlink:href="#DejaVuSans-74" x="510.9375"/>
      <use xlink:href="#DejaVuSans-61" x="550.146484"/>
      <use xlink:href="#DejaVuSans-6e" x="611.425781"/>
      <use xlink:href="#DejaVuSans-63" x="674.804688"/>
      <use xlink:href="#DejaVuSans-65" x="729.785156"/>
      <use xlink:href="#DejaVuSans-20" x="791.308594"/>
      <use xlink:href="#DejaVuSans-66" x="823.095703"/>
      <use xlink:href="#DejaVuSans-72" x="858.300781"/>
      <use xlink:href="#DejaVuSans-6f" x="897.164062"/>
      <use xlink:href="#DejaVuSans-6d" x="958.345703"/>
      <use xlink:href="#DejaVuSans-20" x="1055.757812"/>
      <use xlink:href="#DejaVuSans-70" x="1087.544922"/>
      <use xlink:href="#DejaVuSans-6f" x="1151.021484"/>
      <use xlink:href="#DejaVuSans-73" x="1212.203125"/>
      <use xlink:href="#DejaVuSans-69" x="1264.302734"/>
      <use xlink:href="#DejaVuSans-74" x="1292.085938"/>
      <use xlink:href="#DejaVuSans-69" x="1331.294922"/>
      <use xlink:href="#DejaVuSans-6f" x="1359.078125"/>
      <use xlink:href="#DejaVuSans-6e" x="1420.259766"/>
      <use xlink:href="#DejaVuSans-20" x="1483.638672"/>
      <use xlink:href="#DejaVuSans-31" x="1515.425781"/>
     </g>
    </g>
   </g>
   <g id="PathCollection_1">
    <defs>
     <path id="md2442948ae" d="M 0 1.581139 
C 0.419323 1.581139 0.821528 1.41454 1.118034 1.118034 
C 1.41454 0.821528 1.581139 0.419323 1.581139 0 
C 1.581139 -0.419323 1.41454 -0.821528 1.118034 -1.118034 
C 0.821528 -1.41454 0.419323 -1.581139 0 -1.581139 
C -0.419323 -1.581139 -0.821528 -1.41454 -1.118034 -1.118034 
C -1.41454 -0.821528 -1.581139 -0.419323 -1.581139 0 
C -1.581139 0.419323 -1.41454 0.821528 -1.118034 1.118034 
C -0.821528 1.41454 -0.419323 1.581139 0 1.581139 
z
" style="stroke: #000000"/>
    </defs>
    <g clip-path="url(#pebdf999493)">
     <use xlink:href="#md2442948ae" x="90" y="626.114711" style="stroke: #000000"/>
     <use xlink:href="#md2442948ae" x="92.232" y="640.8" style="stroke: #000000"/>
     <use xlink:href="#md2442948ae" x="94.464" y="626.114711" style="stroke: #000000"/>
     <use xlink:href="#md2442948ae" x="96.696" y="589.02369" style="stroke: #000000"/>
     <use xlink:href="#md2442948ae" x="98.928" y="546.049348" style="stroke: #000000"/>
     <use xlink:href="#md2442948ae" x="101.16" y="513.2335" style="stroke: #000000"/>
     <use xlink:href="#md2442948ae" x="103.392" y="497.359747" style="stroke: #000000"/>
     <use xlink:href="#md2442948ae" x="105.624" y="494.08835" style="stroke: #000000"/>
     <use xlink:href="#md2442948ae" x="107.856" y="493.400783" style="stroke: #000000"/>
     <use xlink:href="#md2442948ae" x="110.088" y="487.623927" style="stroke: #000000"/>
     <use xlink:href="#md2442948ae" x="112.32" y="476.088357" style="stroke: #000000"/>
     <use xlink:href="#md2442948ae" x="114.552" y="463.732528" style="stroke: #000000"/>
     <use xlink:href="#md2442948ae" x="116.784" y="455.806289" style="stroke: #000000"/>
     <use xlink:href="#md2442948ae" x="119.016" y="453.410541" style="stroke: #000000"/>
     <use xlink:href="#md2442948ae" x="121.248" y="453.21505" style="stroke: #000000"/>
     <use xlink:href="#md2442948ae" x="123.48" y="450.889497" style="stroke: #000000"/>
     <use xlink:href="#md2442948ae" x="125.712" y="444.866419" style="stroke: #000000"/>
     <use xlink:href="#md2442948ae" x="127.944" y="437.25738" style="stroke: #000000"/>
     <use xlink:href="#md2442948ae" x="130.176" y="431.52631" style="stroke: #000000"/>
     <use xlink:href="#md2442948ae" x="132.408" y="429.295987" style="stroke: #000000"/>
     <use xlink:href="#md2442948ae" x="134.64" y="429.11962" style="stroke: #000000"/>
     <use xlink:href="#md2442948ae" x="136.872" y="428.056443" style="stroke: #000000"/>
     <use xlink:href="#md2442948ae" x="139.104" y="424.390793" style="stroke: #000000"/>
     <use xlink:href="#md2442948ae" x="141.336" y="419.012095" style="stroke: #000000"/>
     <use xlink:href="#md2442948ae" x="143.568" y="414.375445" style="stroke: #000000"/>
     <use xlink:href="#md2442948ae" x="145.8" y="412.174598" style="stroke: #000000"/>
     <use xlink:href="#md2442948ae" x="148.032" y="411.889547" style="stroke: #000000"/>
     <use xlink:href="#md2442948ae" x="150.264" y="411.420058" style="stroke: #000000"/>
     <use xlink:href="#md2442948ae" x="152.496" y="409.077264" style="stroke: #000000"/>
     <use xlink:href="#md2442948ae" x="154.728" y="405.05887" style="stroke: #000000"/>
     <use xlink:href="#md2442948ae" x="156.96" y="401.131197" style="stroke: #000000"/>
     <use xlink:href="#md2442948ae" x="159.192" y="398.928797" style="stroke: #000000"/>
     <use xlink:href="#md2442948ae" x="161.424" y="398.487393" style="stroke: #000000"/>
     <use xlink:href="#md2442948ae" x="163.656" y="398.309868" style="stroke: #000000"/>
     <use xlink:href="#md2442948ae" x="165.888" y="396.808487" style="stroke: #000000"/>
     <use xlink:href="#md2442948ae" x="168.12" y="393.741533" style="stroke: #000000"/>
     <use xlink:href="#md2442948ae" x="170.352" y="390.350668" style="stroke: #000000"/>
     <use xlink:href="#md2442948ae" x="172.584" y="388.150043" style="stroke: #000000"/>
     <use xlink:href="#md2442948ae" x="174.816" y="387.536016" style="stroke: #000000"/>
     <use xlink:href="#md2442948ae" x="177.048" y="387.484201" style="stroke: #000000"/>
     <use xlink:href="#md2442948ae" x="179.28" y="386.550744" style="stroke: #000000"/>
     <use xlink:href="#md2442948ae" x="181.512" y="384.203817" style="stroke: #000000"/>
     <use xlink:href="#md2442948ae" x="183.744" y="381.261225" style="stroke: #000000"/>
     <use xlink:href="#md2442948ae" x="185.976" y="379.080107" style="stroke: #000000"/>
     <use xlink:href="#md2442948ae" x="188.208" y="378.293781" style="stroke: #000000"/>
     <use xlink:href="#md2442948ae" x="190.44" y="378.26518" style="stroke: #000000"/>
     <use xlink:href="#md2442948ae" x="192.672" y="377.722286" style="stroke: #000000"/>
     <use xlink:href="#md2442948ae" x="194.904" y="375.945275" style="stroke: #000000"/>
     <use xlink:href="#md2442948ae" x="197.136" y="373.399929" style="stroke: #000000"/>
     <use xlink:href="#md2442948ae" x="199.368" y="371.262542" style="stroke: #000000"/>
     <use xlink:href="#md2442948ae" x="201.6" y="370.314773" style="stroke: #000000"/>
     <use xlink:href="#md2442948ae" x="203.832" y="370.24257" style="stroke: #000000"/>
     <use xlink:href="#md2442948ae" x="206.064" y="369.964185" style="stroke: #000000"/>
     <use xlink:href="#md2442948ae" x="208.296" y="368.648565" style="stroke: #000000"/>
     <use xlink:href="#md2442948ae" x="210.528" y="366.467074" style="stroke: #000000"/>
     <use xlink:href="#md2442948ae" x="212.76" y="364.400138" style="stroke: #000000"/>
     <use xlink:href="#md2442948ae" x="214.992" y="363.309176" style="stroke: #000000"/>
     <use xlink:href="#md2442948ae" x="217.224" y="363.149399" style="stroke: #000000"/>
     <use xlink:href="#md2442948ae" x="219.456" y="363.040242" style="stroke: #000000"/>
     <use xlink:href="#md2442948ae" x="221.688" y="362.100521" style="stroke: #000000"/>
     <use xlink:href="#md2442948ae" x="223.92" y="360.257424" style="stroke: #000000"/>
     <use xlink:href="#md2442948ae" x="226.152" y="358.287728" style="stroke: #000000"/>
     <use xlink:href="#md2442948ae" x="228.384" y="357.077193" style="stroke: #000000"/>
     <use xlink:href="#md2442948ae" x="230.616" y="356.802126" style="stroke: #000000"/>
     <use xlink:href="#md2442948ae" x="232.848" y="356.787417" style="stroke: #000000"/>
     <use xlink:href="#md2442948ae" x="235.08" y="356.151784" style="stroke: #000000"/>
     <use xlink:href="#md2442948ae" x="237.312" y="354.62443" style="stroke: #000000"/>
     <use xlink:href="#md2442948ae" x="239.544" y="352.777166" style="stroke: #000000"/>
     <use xlink:href="#md2442948ae" x="241.776" y="351.474501" style="stroke: #000000"/>
     <use xlink:href="#md2442948ae" x="244.008" y="351.068911" style="stroke: #000000"/>
     <use xlink:href="#md2442948ae" x="246.24" y="351.088904" style="stroke: #000000"/>
     <use xlink:href="#md2442948ae" x="248.472" y="350.694347" style="stroke: #000000"/>
     <use xlink:href="#md2442948ae" x="250.704" y="349.460094" style="stroke: #000000"/>
     <use xlink:href="#md2442948ae" x="252.936" y="347.757619" style="stroke: #000000"/>
     <use xlink:href="#md2442948ae" x="255.168" y="346.392767" style="stroke: #000000"/>
     <use xlink:href="#md2442948ae" x="257.4" y="345.851496" style="stroke: #000000"/>
     <use xlink:href="#md2442948ae" x="259.632" y="345.858436" style="stroke: #000000"/>
     <use xlink:href="#md2442948ae" x="261.864" y="345.648207" style="stroke: #000000"/>
     <use xlink:href="#md2442948ae" x="264.096" y="344.682938" style="stroke: #000000"/>
     <use xlink:href="#md2442948ae" x="266.328" y="343.143841" style="stroke: #000000"/>
     <use xlink:href="#md2442948ae" x="268.56" y="341.748029" style="stroke: #000000"/>
     <use xlink:href="#md2442948ae" x="270.792" y="341.074252" style="stroke: #000000"/>
     <use xlink:href="#md2442948ae" x="273.024" y="341.030612" style="stroke: #000000"/>
     <use xlink:href="#md2442948ae" x="275.256" y="340.953" style="stroke: #000000"/>
     <use xlink:href="#md2442948ae" x="277.488" y="340.230427" style="stroke: #000000"/>
     <use xlink:href="#md2442948ae" x="279.72" y="338.868826" style="stroke: #000000"/>
     <use xlink:href="#md2442948ae" x="281.952" y="337.473433" style="stroke: #000000"/>
     <use xlink:href="#md2442948ae" x="284.184" y="336.677258" style="stroke: #000000"/>
     <use xlink:href="#md2442948ae" x="286.416" y="336.554637" style="stroke: #000000"/>
     <use xlink:href="#md2442948ae" x="288.648" y="336.562495" style="stroke: #000000"/>
     <use xlink:href="#md2442948ae" x="290.88" y="336.053995" style="stroke: #000000"/>
     <use xlink:href="#md2442948ae" x="293.112" y="334.879057" style="stroke: #000000"/>
     <use xlink:href="#md2442948ae" x="295.344" y="333.514543" style="stroke: #000000"/>
     <use xlink:href="#md2442948ae" x="297.576" y="332.61177" style="stroke: #000000"/>
     <use xlink:href="#md2442948ae" x="299.808" y="332.390139" style="stroke: #000000"/>
     <use xlink:href="#md2442948ae" x="302.04" y="332.440839" style="stroke: #000000"/>
     <use xlink:href="#md2442948ae" x="304.272" y="332.115645" style="stroke: #000000"/>
     <use xlink:href="#md2442948ae" x="306.504" y="331.131298" style="stroke: #000000"/>
     <use xlink:href="#md2442948ae" x="308.736" y="329.826221" style="stroke: #000000"/>
     <use xlink:href="#md2442948ae" x="310.968" y="328.837167" style="stroke: #000000"/>
     <use xlink:href="#md2442948ae" x="313.2" y="328.504265" style="stroke: #000000"/>
     <use xlink:href="#md2442948ae" x="315.432" y="328.559893" style="stroke: #000000"/>
     <use xlink:href="#md2442948ae" x="317.664" y="328.385548" style="stroke: #000000"/>
     <use xlink:href="#md2442948ae" x="319.896" y="327.59039" style="stroke: #000000"/>
     <use xlink:href="#md2442948ae" x="322.128" y="326.370511" style="stroke: #000000"/>
     <use xlink:href="#md2442948ae" x="324.36" y="325.318865" style="stroke: #000000"/>
     <use xlink:href="#md2442948ae" x="326.592" y="324.869632" style="stroke: #000000"/>
     <use xlink:href="#md2442948ae" x="328.824" y="324.897294" style="stroke: #000000"/>
     <use xlink:href="#md2442948ae" x="331.056" y="324.840275" style="stroke: #000000"/>
     <use xlink:href="#md2442948ae" x="333.288" y="324.227664" style="stroke: #000000"/>
     <use xlink:href="#md2442948ae" x="335.52" y="323.11517" style="stroke: #000000"/>
     <use xlink:href="#md2442948ae" x="337.752" y="322.026868" style="stroke: #000000"/>
     <use xlink:href="#md2442948ae" x="339.984" y="321.462853" style="stroke: #000000"/>
     <use xlink:href="#md2442948ae" x="342.216" y="321.434998" style="stroke: #000000"/>
     <use xlink:href="#md2442948ae" x="344.448" y="321.461465" style="stroke: #000000"/>
     <use xlink:href="#md2442948ae" x="346.68" y="321.01979" style="stroke: #000000"/>
     <use xlink:href="#md2442948ae" x="348.912" y="320.032637" style="stroke: #000000"/>
     <use xlink:href="#md2442948ae" x="351.144" y="318.934751" style="stroke: #000000"/>
     <use xlink:href="#md2442948ae" x="353.376" y="318.263458" style="stroke: #000000"/>
     <use xlink:href="#md2442948ae" x="355.608" y="318.158169" style="stroke: #000000"/>
     <use xlink:href="#md2442948ae" x="357.84" y="318.234786" style="stroke: #000000"/>
     <use xlink:href="#md2442948ae" x="360.072" y="317.947892" style="stroke: #000000"/>
     <use xlink:href="#md2442948ae" x="362.304" y="317.099307" style="stroke: #000000"/>
     <use xlink:href="#md2442948ae" x="364.536" y="316.018962" style="stroke: #000000"/>
     <use xlink:href="#md2442948ae" x="366.768" y="315.253113" style="stroke: #000000"/>
     <use xlink:href="#md2442948ae" x="369" y="315.054313" style="stroke: #000000"/>
     <use xlink:href="#md2442948ae" x="371.232" y="315.149093" style="stroke: #000000"/>
     <use xlink:href="#md2442948ae" x="373.464" y="314.996858" style="stroke: #000000"/>
     <use xlink:href="#md2442948ae" x="375.696" y="314.294989" style="stroke: #000000"/>
     <use xlink:href="#md2442948ae" x="377.928" y="313.258337" style="stroke: #000000"/>
     <use xlink:href="#md2442948ae" x="380.16" y="312.415054" style="stroke: #000000"/>
     <use xlink:href="#md2442948ae" x="382.392" y="312.1126" style="stroke: #000000"/>
     <use xlink:href="#md2442948ae" x="384.624" y="312.195743" style="stroke: #000000"/>
     <use xlink:href="#md2442948ae" x="386.856" y="312.154779" style="stroke: #000000"/>
     <use xlink:href="#md2442948ae" x="389.088" y="311.602516" style="stroke: #000000"/>
     <use xlink:href="#md2442948ae" x="391.32" y="310.633771" style="stroke: #000000"/>
     <use xlink:href="#md2442948ae" x="393.552" y="309.733684" style="stroke: #000000"/>
     <use xlink:href="#md2442948ae" x="395.784" y="309.32333" style="stroke: #000000"/>
     <use xlink:href="#md2442948ae" x="398.016" y="309.368015" style="stroke: #000000"/>
     <use xlink:href="#md2442948ae" x="400.248" y="309.412472" style="stroke: #000000"/>
     <use xlink:href="#md2442948ae" x="402.48" y="309.007437" style="stroke: #000000"/>
     <use xlink:href="#md2442948ae" x="404.712" y="308.128007" style="stroke: #000000"/>
     <use xlink:href="#md2442948ae" x="406.944" y="307.194302" style="stroke: #000000"/>
     <use xlink:href="#md2442948ae" x="409.176" y="306.677517" style="stroke: #000000"/>
     <use xlink:href="#md2442948ae" x="411.408" y="306.660615" style="stroke: #000000"/>
     <use xlink:href="#md2442948ae" x="413.64" y="306.763065" style="stroke: #000000"/>
     <use xlink:href="#md2442948ae" x="415.872" y="306.497774" style="stroke: #000000"/>
     <use xlink:href="#md2442948ae" x="418.104" y="305.725503" style="stroke: #000000"/>
     <use xlink:href="#md2442948ae" x="420.336" y="304.782921" style="stroke: #000000"/>
     <use xlink:href="#md2442948ae" x="422.568" y="304.166566" style="stroke: #000000"/>
     <use xlink:href="#md2442948ae" x="424.8" y="304.069258" style="stroke: #000000"/>
     <use xlink:href="#md2442948ae" x="427.032" y="304.201619" style="stroke: #000000"/>
     <use xlink:href="#md2442948ae" x="429.264" y="304.063806" style="stroke: #000000"/>
     <use xlink:href="#md2442948ae" x="431.496" y="303.412351" style="stroke: #000000"/>
     <use xlink:href="#md2442948ae" x="433.728" y="302.48618" style="stroke: #000000"/>
     <use xlink:href="#md2442948ae" x="435.96" y="301.782035" style="stroke: #000000"/>
     <use xlink:href="#md2442948ae" x="438.192" y="301.590296" style="stroke: #000000"/>
     <use xlink:href="#md2442948ae" x="440.424" y="301.724789" style="stroke: #000000"/>
     <use xlink:href="#md2442948ae" x="442.656" y="301.697886" style="stroke: #000000"/>
     <use xlink:href="#md2442948ae" x="444.888" y="301.176238" style="stroke: #000000"/>
     <use xlink:href="#md2442948ae" x="447.12" y="300.291303" style="stroke: #000000"/>
     <use xlink:href="#md2442948ae" x="449.352" y="299.515463" style="stroke: #000000"/>
     <use xlink:href="#md2442948ae" x="451.584" y="299.22041" style="stroke: #000000"/>
     <use xlink:href="#md2442948ae" x="453.816" y="299.3305" style="stroke: #000000"/>
     <use xlink:href="#md2442948ae" x="456.048" y="299.394255" style="stroke: #000000"/>
     <use xlink:href="#md2442948ae" x="458.28" y="299.006422" style="stroke: #000000"/>
     <use xlink:href="#md2442948ae" x="460.512" y="298.186114" style="stroke: #000000"/>
     <use xlink:href="#md2442948ae" x="462.744" y="297.358266" style="stroke: #000000"/>
     <use xlink:href="#md2442948ae" x="464.976" y="296.956349" style="stroke: #000000"/>
     <use xlink:href="#md2442948ae" x="467.208" y="297.017646" style="stroke: #000000"/>
     <use xlink:href="#md2442948ae" x="469.44" y="297.148859" style="stroke: #000000"/>
     <use xlink:href="#md2442948ae" x="471.672" y="296.89372" style="stroke: #000000"/>
     <use xlink:href="#md2442948ae" x="473.904" y="296.159085" style="stroke: #000000"/>
     <use xlink:href="#md2442948ae" x="476.136" y="295.301679" style="stroke: #000000"/>
     <use xlink:href="#md2442948ae" x="478.368" y="294.794706" style="stroke: #000000"/>
     <use xlink:href="#md2442948ae" x="480.6" y="294.785807" style="stroke: #000000"/>
     <use xlink:href="#md2442948ae" x="482.832" y="294.959167" style="stroke: #000000"/>
     <use xlink:href="#md2442948ae" x="485.064" y="294.830492" style="stroke: #000000"/>
     <use xlink:href="#md2442948ae" x="487.296" y="294.199405" style="stroke: #000000"/>
     <use xlink:href="#md2442948ae" x="489.528" y="293.336749" style="stroke: #000000"/>
     <use xlink:href="#md2442948ae" x="491.76" y="292.73175" style="stroke: #000000"/>
     <use xlink:href="#md2442948ae" x="493.992" y="292.634983" style="stroke: #000000"/>
     <use xlink:href="#md2442948ae" x="496.224" y="292.823977" style="stroke: #000000"/>
     <use xlink:href="#md2442948ae" x="498.456" y="292.810624" style="stroke: #000000"/>
     <use xlink:href="#md2442948ae" x="500.688" y="292.297067" style="stroke: #000000"/>
     <use xlink:href="#md2442948ae" x="502.92" y="291.454368" style="stroke: #000000"/>
     <use xlink:href="#md2442948ae" x="505.152" y="290.763292" style="stroke: #000000"/>
     <use xlink:href="#md2442948ae" x="507.384" y="290.565349" style="stroke: #000000"/>
     <use xlink:href="#md2442948ae" x="509.616" y="290.743215" style="stroke: #000000"/>
     <use xlink:href="#md2442948ae" x="511.848" y="290.829484" style="stroke: #000000"/>
     <use xlink:href="#md2442948ae" x="514.08" y="290.442962" style="stroke: #000000"/>
     <use xlink:href="#md2442948ae" x="516.312" y="289.645338" style="stroke: #000000"/>
     <use xlink:href="#md2442948ae" x="518.544" y="288.884598" style="stroke: #000000"/>
     <use xlink:href="#md2442948ae" x="520.776" y="288.577031" style="stroke: #000000"/>
     <use xlink:href="#md2442948ae" x="523.008" y="288.717728" style="stroke: #000000"/>
     <use xlink:href="#md2442948ae" x="525.24" y="288.883878" style="stroke: #000000"/>
     <use xlink:href="#md2442948ae" x="527.472" y="288.628969" style="stroke: #000000"/>
     <use xlink:href="#md2442948ae" x="529.704" y="287.900463" style="stroke: #000000"/>
     <use xlink:href="#md2442948ae" x="531.936" y="287.090332" style="stroke: #000000"/>
     <use xlink:href="#md2442948ae" x="534.168" y="286.669907" style="stroke: #000000"/>
     <use xlink:href="#md2442948ae" x="536.4" y="286.749078" style="stroke: #000000"/>
     <use xlink:href="#md2442948ae" x="538.632" y="286.971969" style="stroke: #000000"/>
     <use xlink:href="#md2442948ae" x="540.864" y="286.848042" style="stroke: #000000"/>
     <use xlink:href="#md2442948ae" x="543.096" y="286.21066" style="stroke: #000000"/>
     <use xlink:href="#md2442948ae" x="545.328" y="285.374551" style="stroke: #000000"/>
     <use xlink:href="#md2442948ae" x="547.56" y="284.843436" style="stroke: #000000"/>
     <use xlink:href="#md2442948ae" x="549.792" y="284.839326" style="stroke: #000000"/>
     <use xlink:href="#md2442948ae" x="552.024" y="285.093192" style="stroke: #000000"/>
     <use xlink:href="#md2442948ae" x="554.256" y="285.094279" style="stroke: #000000"/>
     <use xlink:href="#md2442948ae" x="556.488" y="284.567089" style="stroke: #000000"/>
     <use xlink:href="#md2442948ae" x="558.72" y="283.730717" style="stroke: #000000"/>
     <use xlink:href="#md2442948ae" x="560.952" y="283.09651" style="stroke: #000000"/>
     <use xlink:href="#md2442948ae" x="563.184" y="282.990823" style="stroke: #000000"/>
     <use xlink:href="#md2442948ae" x="565.416" y="283.248138" style="stroke: #000000"/>
     <use xlink:href="#md2442948ae" x="567.648" y="283.362982" style="stroke: #000000"/>
     <use xlink:href="#md2442948ae" x="569.88" y="282.961283" style="stroke: #000000"/>
     <use xlink:href="#md2442948ae" x="572.112" y="282.15175" style="stroke: #000000"/>
     <use xlink:href="#md2442948ae" x="574.344" y="281.427342" style="stroke: #000000"/>
     <use xlink:href="#md2442948ae" x="576.576" y="281.206013" style="stroke: #000000"/>
     <use xlink:href="#md2442948ae" x="578.808" y="281.438427" style="stroke: #000000"/>
     <use xlink:href="#md2442948ae" x="581.04" y="281.650688" style="stroke: #000000"/>
     <use xlink:href="#md2442948ae" x="583.272" y="281.385285" style="stroke: #000000"/>
     <use xlink:href="#md2442948ae" x="585.504" y="280.630105" style="stroke: #000000"/>
     <use xlink:href="#md2442948ae" x="587.736" y="279.833384" style="stroke: #000000"/>
     <use xlink:href="#md2442948ae" x="589.968" y="279.487235" style="stroke: #000000"/>
     <use xlink:href="#md2442948ae" x="592.2" y="279.666561" style="stroke: #000000"/>
     <use xlink:href="#md2442948ae" x="594.432" y="279.955184" style="stroke: #000000"/>
     <use xlink:href="#md2442948ae" x="596.664" y="279.831777" style="stroke: #000000"/>
     <use xlink:href="#md2442948ae" x="598.896" y="279.157867" style="stroke: #000000"/>
     <use xlink:href="#md2442948ae" x="601.128" y="278.311266" style="stroke: #000000"/>
     <use xlink:href="#md2442948ae" x="603.36" y="277.836551" style="stroke: #000000"/>
     <use xlink:href="#md2442948ae" x="605.592" y="277.935778" style="stroke: #000000"/>
     <use xlink:href="#md2442948ae" x="607.824" y="278.275497" style="stroke: #000000"/>
     <use xlink:href="#md2442948ae" x="610.056" y="278.294201" style="stroke: #000000"/>
     <use xlink:href="#md2442948ae" x="612.288" y="277.726863" style="stroke: #000000"/>
     <use xlink:href="#md2442948ae" x="614.52" y="276.856781" style="stroke: #000000"/>
     <use xlink:href="#md2442948ae" x="616.752" y="276.255592" style="stroke: #000000"/>
     <use xlink:href="#md2442948ae" x="618.984" y="276.249885" style="stroke: #000000"/>
     <use xlink:href="#md2442948ae" x="621.216" y="276.611869" style="stroke: #000000"/>
     <use xlink:href="#md2442948ae" x="623.448" y="276.766862" style="stroke: #000000"/>
     <use xlink:href="#md2442948ae" x="625.68" y="276.328776" style="stroke: #000000"/>
     <use xlink:href="#md2442948ae" x="627.912" y="275.464875" style="stroke: #000000"/>
     <use xlink:href="#md2442948ae" x="630.144" y="274.745418" style="stroke: #000000"/>
     <use xlink:href="#md2442948ae" x="632.376" y="274.613111" style="stroke: #000000"/>
     <use xlink:href="#md2442948ae" x="634.608" y="274.965704" style="stroke: #000000"/>
     <use xlink:href="#md2442948ae" x="636.84" y="275.245013" style="stroke: #000000"/>
     <use xlink:href="#md2442948ae" x="639.072" y="274.955266" style="stroke: #000000"/>
     <use xlink:href="#md2442948ae" x="641.304" y="274.129672" style="stroke: #000000"/>
     <use xlink:href="#md2442948ae" x="643.536" y="273.306412" style="stroke: #000000"/>
     <use xlink:href="#md2442948ae" x="645.768" y="273.029953" style="stroke: #000000"/>
    </g>
   </g>
   <g id="patch_3">
    <path d="M 90 640.8 
L 90 86.4 
" style="fill: none; stroke: #cccccc; stroke-width: 0.8; stroke-linejoin: miter; stroke-linecap: square"/>
   </g>
   <g id="patch_4">
    <path d="M 648 640.8 
L 648 86.4 
" style="fill: none; stroke: #cccccc; stroke-width: 0.8; stroke-linejoin: miter; stroke-linecap: square"/>
   </g>
   <g id="patch_5">
    <path d="M 90 640.8 
L 648 640.8 
" style="fill: none; stroke: #cccccc; stroke-width: 0.8; stroke-linejoin: miter; stroke-linecap: square"/>
   </g>
   <g id="patch_6">
    <path d="M 90 86.4 
L 648 86.4 
" style="fill: none; stroke: #cccccc; stroke-width: 0.8; stroke-linejoin: miter; stroke-linecap: square"/>
   </g>
  </g>
 </g>
 <defs>
  <clipPath id="pebdf999493">
   <rect x="90" y="86.4" width="558" height="554.4"/>
  </clipPath>
 </defs>
</svg>
